/* XPM */
static char *_630637515821[] = {
/* columns rows colors chars-per-pixel */
"60 80 215 2 ",
"   c #091313",
".  c #161111",
"X  c #171515",
"o  c #161616",
"O  c gray10",
"+  c #1D1D1D",
"@  c #370909",
"#  c #261B01",
"$  c #2C230B",
"%  c #302401",
"&  c #352905",
"*  c #3B2D06",
"=  c #3E320E",
"-  c #2D2819",
";  c #342F1F",
":  c #252525",
">  c #272727",
",  c #292D2D",
"<  c #2C2C2C",
"1  c #2F2F2F",
"2  c #3C372B",
"3  c #323232",
"4  c gray21",
"5  c #373737",
"6  c gray22",
"7  c gray23",
"8  c gray24",
"9  c #520000",
"0  c #5B0000",
"q  c #471D1D",
"w  c #6C0000",
"e  c #6B1515",
"r  c #41330B",
"t  c #42350F",
"y  c #423510",
"u  c #433610",
"i  c #453710",
"p  c #463912",
"a  c #4A3B11",
"s  c #403F3F",
"d  c #514214",
"f  c #584714",
"g  c #5E4B12",
"h  c #685109",
"j  c #695516",
"k  c #735B12",
"l  c #7A6114",
"z  c #7F6518",
"x  c #4B432C",
"c  c #5B4E28",
"v  c #5A4F2F",
"b  c #484438",
"n  c #5E563D",
"m  c #71602C",
"M  c gray26",
"N  c #434343",
"B  c #444444",
"V  c #484848",
"C  c #494948",
"Z  c gray29",
"A  c #4C4C4C",
"S  c #504C40",
"D  c #505050",
"F  c #515050",
"G  c #535353",
"H  c #565656",
"J  c #5A5750",
"K  c #585858",
"L  c gray35",
"P  c #5B5B5B",
"I  c gray36",
"U  c #665E48",
"Y  c #636057",
"T  c #60605F",
"R  c #706B5F",
"E  c #626363",
"W  c gray39",
"Q  c #666565",
"!  c #676766",
"~  c #676767",
"^  c #686868",
"/  c gray42",
"(  c gray43",
")  c #75736D",
"_  c gray44",
"`  c #717171",
"'  c #727272",
"]  c gray45",
"[  c #747474",
"{  c #767676",
"}  c gray47",
"|  c #7C7C7C",
" . c gray49",
".. c #7E7E7E",
"X. c #7F7F7E",
"o. c gray50",
"O. c #9F0F0F",
"+. c #891414",
"@. c #B20000",
"#. c #892323",
"$. c #9B2626",
"%. c #8E3434",
"&. c #C40000",
"*. c #C70000",
"=. c #D50000",
"-. c #DB0000",
";. c #866A16",
":. c #83691B",
">. c #846A1B",
",. c #856B1C",
"<. c #866C1C",
"1. c #8A6E1B",
"2. c #806A28",
"3. c #8A7021",
"4. c #907627",
"5. c #8E4545",
"6. c #8C5252",
"7. c #896464",
"8. c #857070",
"9. c #A38A3D",
"0. c #B79D50",
"q. c #BCA252",
"w. c #BEA559",
"e. c #D4BA6B",
"r. c #DEC373",
"t. c #818080",
"y. c gray51",
"u. c #858484",
"i. c #868686",
"p. c #888888",
"a. c #898989",
"s. c #8B8B8B",
"d. c #8C8C8D",
"f. c gray56",
"g. c #889797",
"h. c #869999",
"j. c #909091",
"k. c #929292",
"l. c #939292",
"z. c #959595",
"x. c #969797",
"c. c gray60",
"v. c gray61",
"b. c #9D9D9D",
"n. c gray62",
"m. c #9F9F9F",
"M. c #A1A2A2",
"N. c #A2A2A2",
"B. c #A5A6A6",
"V. c #A9A9A9",
"C. c #AAAAAA",
"Z. c #ACACAC",
"A. c #AFAEAF",
"S. c #ACBABA",
"D. c #B1B1B1",
"F. c gray70",
"G. c #B5B5B6",
"H. c #B7B7B7",
"J. c #B9B9B9",
"K. c #BABABB",
"L. c gray74",
"P. c #E8CF83",
"I. c #EDD385",
"U. c #EED588",
"Y. c #F2D786",
"T. c #F4DB8F",
"R. c #B3C6C6",
"E. c #C0C0C1",
"W. c #C3C3C2",
"Q. c gray77",
"!. c #C6C6C7",
"~. c gray79",
"^. c #CBCBCB",
"/. c #CDCDCE",
"(. c #C0D4D4",
"). c #CDDFDF",
"_. c #D0D1D1",
"`. c LightGray",
"'. c #D2D4D7",
"]. c #D5D5D6",
"[. c #D8D8D8",
"{. c gray86",
"}. c #DADCE2",
"|. c #DCECEC",
" X c gray88",
".X c #E1E1E1",
"XX c gray89",
"oX c gray90",
"OX c #E7E7E7",
"+X c #E8E7E7",
"@X c #E2E3E8",
"#X c gray91",
"$X c #E9E9E9",
"%X c gray92",
"&X c #EDECEC",
"*X c gray93",
"=X c #EEEEEE",
"-X c #EFEFEF",
";X c #E0F0F0",
":X c #E6F1F1",
">X c #F1F1F1",
",X c #F2F1F1",
"<X c gray95",
"1X c #F3F3F3",
"2X c gray96",
"3X c #F6F6F7",
"4X c gray97",
"5X c #F6F9FA",
"6X c #F8F8F8",
"7X c gray98",
"8X c #FBFBFB",
"9X c #FDFDFD",
"0X c #FEFDFD",
"qX c white",
"wX c None",
/* pixels */
"wXwXwXwXwXwXwXwXwXwXwXwXwXwXwXwXwXwXwXwXwXwXwXwXwXwXwXwXwXwXwXwXwXwXwXwXwXwXwXwXwXwXwXwXwXwXwXwXwXwXwXwXwXwXwXwXwXwXwXwX",
"wXwXwXwXwXwXwXwXwXwXwXwXwXwXwXwXwXwXwXwXwXwXwXwXwXwXwXwXwXwXwXwXwXwXwXwXwXwXwXwXwXwXwXwXwXwXwXwXwXwXwXwXwXwXwXwXwXwXwXwX",
"wXwXwXwXwXwXwXwXwXwXwXwXwXwXwXwXwXwXwXwXwXwXwXwXwXwXwXwXwXwXwXwXwXwXwXwXwXwXwXwXwXwXwXwXwXwXwXwXwXwXwXwXwXwXwXwXwXwXwXwX",
"wXwXwXwXwXwXwXwXwXwXwXwXwXwXwXwXwXwXwXwXwXwXwXwXwXwXwXwXwXwXwXwXwXwXwXwXwXwXwXwXwXwXwXwXwXwXwXwXwXwXwXwXwXwXwXwXwXwXwXwX",
"wXwXwXwXwXwXwXwXwXwXwXwXwXwXwXwXwXwXwXwXwXwXwXwXwXwXwXwXwXwXwXwXwXwXwXwXwXwXwXwXwXwXwXwXwXwXwXwXwXwXwXwXwXwXwXwXwXwXwXwX",
"wXwXwXwXwXwXwXwXwXwXwXwXwXwXwXwXwXwXwXwXwXwXwXwXwXwXwXwXwXwXwXwXwXwXwXwXwXwXwXwXwXwXwXwXwXwXwXwXwXwXwXwXwXwXwXwXwXwXwXwX",
"wXwXwXwXwXwXwXwXwXwXwXwXwXwXwXwXwXwXwXwXwXwXwXwXZ { v.L._.{.`.!.B. .F wXwXwXwXwXwXwXwXwXwXwXwXwXwXwXwXwXwXwXwXwXwXwXwXwX",
"wXwXwXwXwXwXwXwXwXwXwXwXwXwXwXwXwXwXwXwXwX> ' E.$X4X6X3X1X<X<X<X7X7X=X_.y.< wXwXwXwXwXwXwXwXwXwXwXwXwXwXwXwXwXwXwXwXwXwX",
"wXwXwXwXwXwXwXwXwXwXwXwXwXwXwXwXwXwXwXwX[  XqXqX*X#X#X#X#X$X#X#XOXOX$X<X4X!./ X wXwXwXwXwXwXwXwXwXwXwXwXwXwXwXwXwXwXwXwX",
"wXwXwXwXwXwXwXwXwXwXwXwXwXwXwXwXwXwX1 L.qXqX3X%X#X#X#X#X$X$X$X#X$X$X$XOX+X@X!.V.N wXwXwXwXwXwXwXwXwXwXwXwXwXwXwXwXwXwXwX",
"wXwXwXwXwXwXwXwXwXwXwXwXwXwXwXwXwX6  XqX7X=XOXOX#X*X*X%X*X*X*X*X=X$X$X$XOXoXJ.W.W.N wXwXwXwXwXwXwXwXwXwXwXwXwXwXwXwXwXwX",
"wXwXwXwXwXwXwXwXwXwXwXwXwXwXwXwXX _.qX3X*X=X7X3X%X@X}.}.}.}.}.}.}.@XOX<X7X<XW.H.E.L.6 wXwXwXwXwXwXwXwXwXwXwXwXwXwXwXwXwX",
"wXwXwXwXwXwXwXwXwXwXwXwXwXwXwXwXk.qX3X,X<X!.p.R U v v v c c v c v n U R y.D.E.W.G.W.c.wXwXwXwXwXwXwXwXwXwXwXwXwXwXwXwXwX",
"wXwXwXwXwXwXwXwXwXwXwXwXwXwXwXs 3XqX,X'.Y d 2.9.0.q.4.;.;.;.;.;.;.z l k h & 2 d.Q.H.!.G wXwXwXwXwXwXwXwXwXwXwXwXwXwXwXwX",
"wXwXwXwXwXwXwXwXwXwXwXwXwXwXwXa.qX=X'.x l e.I.T.P.0.3.>.,.,.,.,.>.,.<.3.:.a * # u.Q.W.z.wXwXwXwXwXwXwXwXwXwXwXwXwXwXwXwX",
"wXwXwXwXwXwXwXwXwXwXwXwXwXwXwX/.<X=XY l P.P.P.e.4.l >.>.>.>.>.>.>.>.>.1.g = i r - V.E.J.4 wXwXwXwXwXwXwXwXwXwXwXwXwXwXwX",
"wXwXwXwXwXwXwXwXwXwXwXwXwXwXZ $X3XJ.d e.P.P.e.3.:.,.,.;.>.>.,.>.,.>.<.z i r t p @ Q E.E.P wXwXwXwXwXwXwXwXwXwXwXwXwXwXwX",
"wXwXwXwXwXwXwXwXwXwXwXwXwXwX( <X3X) 4.U.P.e.3.z ,.:.,.,.,.,.>.>.>.,.1.g = i t y = 4 S.(.{ wXwXwXwXwXwXwXwXwXwXwXwXwXwXwX",
"wXwXwXwXwXwXwXwXwXwXwXwXwXwXa.7X@Xn q.I.r.4.z ,.,.,.,.,.,.>.>.,.:.1.k y y i y y p $ M.(.k.wXwXwXwXwXwXwXwXwXwXwXwXwXwXwX",
"wXwXwXwXwXwXwXwXwXwXwXwXwXwXv.qX'.c r.I.9.z <.:.,.,.,.,.>.>.,.>.,.z a y y y y y p $ 9.~.B.wXwXwXwXwXwXwXwXwXwXwXwXwXwXwX",
"wXwXwXwXwXwXwXwXwXwXwXwXwXwXD.qXW.c Y.w.z <.,.,.,.,.,.:.:.<.:.<.>.d = y y y y y p % / /.A.. wXwXwXwXwXwXwXwXwXwXwXwXwXwX",
"wXwXwXwXwXwXwXwXwXwXwXwXwXwXJ.qXD.m r.3.:.<.:.,.,.,.:.,.<.:.<.<.f = i t y i i y p % T /.D.> wXwXwXwXwXwXwXwXwXwXwXwXwXwX",
"wXwXwXwXwXwXwXwXwXwXwXwXwXwXL.qXV.g 4.:.<.:.<.,.:.,.,.,.:.<.:.f = y t y i y y y p % P ^.D.> wXwXwXwXwXwXwXwXwXwXwXwXwXwX",
"wXwXwXwXwXwXwXwXwXwXwXwXwXwXH.qXB.g 1.:.:.,.<.:.,.,.:.:.1.z d = y i t y y i y y p % J ~.G.: wXwXwXwXwXwXwXwXwXwXwXwXwXwX",
"wXwXwXwXwXwXwXwXwXwXwXwXwXO Z.qXZ.g 1.:.,.>.>.,.>.:.,.,.j p = u t t t t y t y t p % P /.Z., wXwXwXwXwXwXwXwXwXwXwXwXwXwX",
"wXwXwXwXwXwXwXwXwXwXwXwX/ D.v.qXG.f 1.:.,.>.>.:.,.1.:.f = t u t y i p y p t p t p % I _.k.z.V.wXwXwXwXwXwXwXwXwXwXwXwXwX",
"wXwXwXwXwXwXwXwXwXwXwXwX( /.a.qXE.f 1.:.:.>.<.1.:.j i = u u t u y y y t p y t t p % / _.y.D.D.wXwXwXwXwXwXwXwXwXwXwXwXwX",
"wXwXwXwXwXwXwXwXwXwXwXwXW  X .<X'.d 1.:.>.1.:.j a = t t u t u u p t p t t y t y p % } _./ `.v.wXwXwXwXwXwXwXwXwXwXwXwXwX",
"wXwXwXwXwXwXwXwXwXwXwXwX8 7Xu.~.@Xv 1.,.l g a = t t u t u u u u t p t p t p t t i $ d.L.W qXk.wXwXwXwXwXwXwXwXwXwXwXwXwX",
"wXwXwXwXwXwXwXwXwXwXwXwX8 3XW.u.3Xn g d t = t y i t u u u u u u t y t y y t y t i $ Z.p.z.qX .wXwXwXwXwXwXwXwXwXwXwXwXwX",
"wXwXwXwXwXwXwXwXwXwXwXwX< OXqX{ _.) # p t y y y t t u u u u u u y p t t t y t y r ; D.W OXqX .wXwXwXwXwXwXwXwXwXwXwXwXwX",
"wXwXwXwXwXwXwXwXwXwXwXwXwX XqX_.{ L.$ p i t t i t t u u u u u u t t t p y t y a # ' ' Z.qX7X .wXwXwXwXwXwXwXwXwXwXwXwXwX",
"wXwXwXwXwXwXwXwXwXwXwXwXwX[.3X7XV.[ | # r i i y y y r y y y y y t t = = p p p # F | u.7X=X8X' wXwXwXwXwXwXwXwXwXwXwXwXwX",
"wXwXwXwXwXwXwXwXwXwXwXwXwX^.8XqXqXk.' u.; % * i p p p i i i i i p p = 2 = $ $ / t.[ 6XqX7X3X( wXwXwXwXwXwXwXwXwXwXwXwXwX",
"wXwXwXwXwXwXwXwXwXwXwXwXwX!.2Xv.!.qXk.{ v.' 2 $ % % & * * * * * & % % : ; Y j.y.| 3X%Xv.~.8XW wXwXwXwXwXwXwXwXwXwXwXwXwX",
"wXwXwXwXwXwXwXwXwXwXwXwXwXJ.{ : 6 /.qXT E | d.d.' ~ J S b b b S J T / 9.j.| ' Z [.qX! : 5 /.W wXwXwXwXwXwXwXwXwXwXwXwXwX",
"wXwXwXwXwXwXwXwXwXwXwXwXwXZ.I 3 : ^.m.m.-XQ./ M W ! [ y.g.z.l.i.} / E F Z H.OX/.[ <XF 3 < H.I wXwXwXwXwXwXwXwXwXwXwXwXwX",
"wXwXwXwXwXwXwXwXwXwXwXwXwXV.`.H x./. .1X$X7X!.Z  .W F Z M M b V F I  .P a.qXOX5XB.v.`.H k.=X8 wXwXwXwXwXwXwXwXwXwXwXwXwX",
"wXwXwXwXwXwXwXwXwXwXwXwXwXx.qX7XqX ./.<X$X+X=Xy.F  .d.d.a.u.u.a.d.y.T P {.$XOX+X-X}  XqXqXOXwXwXwXwXwXwXwXwXwXwXwXwXwXwX",
"wXwXwXwXwXwXwXwXwXwXwXwXwXd.qX3XW.p.1XOX$X$X&X-XB.W F F H H H D F P a. X=X$X$XOX3XH.j.qX1X{.wXwXwXwXwXwXwXwXwXwXwXwXwXwX",
"wXwXwXwXwXwXwXwXwXwXwXwXwXs.qX7Xd.W.<X+X$XOX XOX7XqXOX`./.~./._. X3XqX*X X X$X$X$XOX} OXqX/.wXwXwXwXwXwXwXwXwXwXwXwXwXwX",
"wXwXwXwXwXwXwXwXwXwXwXwXwX .qXOX .OX$X$X$XD.v.<X~.d.l.z.x.x.x.x.z.d.Z.<XL.c. X=XOX3Xk.J.qXQ.wXwXwXwXwXwXwXwXwXwXwXwXwXwX",
"wXwXwXwXwXwXwXwXwXwXwXwXwX .qX~.z.qX$X#X`.W z.<X| H./.~.!.!.!.~.!._.{ `._.H H.OX$X7X!.x.qXH.wXwXwXwXwXwXwXwXwXwXwXwXwXwX",
"wXwXwXwXwXwXwXwXwXwXwXwXwX' qXV.{ E._.<XD.T /.[.a.7X7X7X8X8X8X8X6XqXB.D.$X{ u.$X XQ.c.{ qXZ.wXwXwXwXwXwXwXwXwXwXwXwXwXwX",
"wXwXwXwXwXwXwXwXwXwXwXwXwX( qXu.k.c.| p. .Z `.~.p.8X=X<X,X<X,X,X=X6XH.v.$X{ H x.{ d.B./ &XV.wXwXwXwXwXwXwXwXwXwXwXwXwXwX",
"wXwXwXwXwXwXwXwXwXwXwXwXwX( OXu.1X7X=Xz.< < Z.~.m.qX7X<X,X1X<X<X6XqX`.z. XM : W {.4XqXv.!.V.wXwXwXwXwXwXwXwXwXwXwXwXwXwX",
"wXwXwXwXwXwXwXwXwXwXwXwXwXE _.p.1XOX{._.F + Z { { } v.3X,X,X,X6X!.[ y./ E : : H.`.$X-XD.D.B.wXwXwXwXwXwXwXwXwXwXwXwXwXwX",
"wXwXwXwXwXwXwXwXwXwXwXwXwXI H.v.3X+X_.G.' M + < : 5 M J.qX=X3X$XH M + < : 3 T M.!.$X<XQ.v.v.wXwXwXwXwXwXwXwXwXwXwXwXwXwX",
"wXwXwXwXwXwXwXwXwXwXwXwXwXwXv.H.1X$X/.v.{ u.' M : 5 C H.8X,X2X+XF M + 3 / { p.| !. X,X].c.s.wXwXwXwXwXwXwXwXwXwXwXwXwXwX",
"wXwXwXwXwXwXwXwXwXwXwXwXwXwXy./.=X X~.{ c.a.Z c.A.T l.3X,X,X,X7XK.~ c.D.P P H.W J.].$X+Xz.] wXwXwXwXwXwXwXwXwXwXwXwXwXwX",
"wXwXwXwXwXwXwXwXwXwXwXwXwXwX'  X<X XH.W !./ c.3XqX3XqX<X,X1X1X<XqX X[.qX~.T E.} z.].,X4Xk.D wXwXwXwXwXwXwXwXwXwXwXwXwXwX",
"wXwXwXwXwXwXwXwXwXwXwXwXwXwX} 7XW.@XD.P {./ K.7X=X<X=X<X1X1X=X8XZ.< : t.OX/ L.d.} &XR.1XJ.o wXwXwXwXwXwXwXwXwXwXwXwXwXwX",
"wXwXwXwXwXwXwXwXwXwXwXwXwX6 {.qXM.y.<XP G.` G.4X<X<X,X,X,X,X<X2XF M H < !.` G.W !.L.} =X3X_ wXwXwXwXwXwXwXwXwXwXwXwXwXwX",
"wXwXwXwXwXwXwXwXwXwXwXwXwXz.7X$X[.W  XH.| } G.6X,X,X<X<X,X,X<X8X/ : 6 M ].[ p.y.qX[ D.=X1X'.wXwXwXwXwXwXwXwXwXwXwXwXwXwX",
"wXwXwXwXwXwXwXwXwXwXwXwX< {.=X$X X} K.$X| W L.&X=X3X6X7X6X6X4X8XOX' P J.$X[ W !.oX) !.%XOX2X! wXwXwXwXwXwXwXwXwXwXwXwXwX",
"wXwXwXwXwXwXwXwXwXwXwXwXN %X=X$X$X .Z.qX..T P y.a.z.v.V.Z.A.Z.B.B.N.x.d./ P !  X$X! {.%X@XqX8.wXwXwXwXwXwXwXwXwXwXwXwXwX",
"wXwXwXwXwXwXwXwXwXwXwXwXwXv.3X*XOXD.W [ u.} V.E.V.b.j.i.9.| X.u.d.z.M.D.L.o.d.[ / s.oX%X2X`.8 wXwXwXwXwXwXwXwXwXwXwXwXwX",
"wXwXwXwXwXwXwXwXwXwXwXwXwXwX( Z.D.m.P k.~.[  X4X1X3X6X3X:X2X3X3X4X3X3X-XqX8.Z.S.P p.Z.F.s.1 wXwXwXwXwXwXwXwXwXwXwXwXwXwX",
"wXwXwXwXwXwXwXwXwXwXwXwXwXwXF a.} y.H./.D.} OX$X+X+X@X@X;X;X#XOXOXOXOXOX3Xx.k./.W.g. . .| wXwXwXwXwXwXwXwXwXwXwXwXwXwXwX",
"wXwXwXwXwXwXwXwXwXwXwXwXwXwX8. X~._.~./.V.u.8XOX+X+X%X%X@X}. X%XOXOXOX+X2XJ.y._.!._./.'.F.wXwXwXwXwXwXwXwXwXwXwXwXwXwXwX",
"wXwXwXwXwXwXwXwXwXwXwXwXwXwXI A.N.N.N.Z. .h.;X|.5X3X&X@X@XH._.#X$X2X5X:X|.R.E Z.B.B.M.Z.8.wXwXwXwXwXwXwXwXwXwXwXwXwXwXwX",
"wXwXwXwXwXwXwXwXwXwXwXwXwXwXwXwXwXwXwXwXo +.$.5.8.N.).7X`.K.W.3X|.S.y.6.%.$.@ wXwXwXwXwXwXwXwXwXwXwXwXwXwXwXwXwXwXwXwXwX",
"wXwXwXwXwXwXwXwXwXwXwXwXwXwXwXwXwXwXwXwX. &.-.-.-.*.#.8.S.} B.z.%.@.-.-.=.-.0 wXwXwXwXwXwXwXwXwXwXwXwXwXwXwXwXwXwXwXwXwX",
"wXwXwXwXwXwXwXwXwXwXwXwXwXwXwXwXwXwXwXwXs m.k.8.5.O.=.*.e   q @.-.@.%.7.u.M.E wXwXwXwXwXwXwXwXwXwXwXwXwXwXwXwXwXwXwXwXwX",
"wXwXwXwXwXwXwXwXwXwXwXwXwXwXwXwXwXwXwXwX{ qX3X5X;X(.d.#.w wX9 +.8.R.|.<X5XqXH.wXwXwXwXwXwXwXwXwXwXwXwXwXwXwXwXwXwXwXwXwX",
"wXwXwXwXwXwXwXwXwXwXwXwXwXwXwXwXwXwXwXwXk.3X X#X$X<X3XS., wX. g.<X3X$X+X X=X`.wXwXwXwXwXwXwXwXwXwXwXwXwXwXwXwXwXwXwXwXwX",
"wXwXwXwXwXwXwXwXwXwXwXwXwXwXwXwXwXwXwXwXD.3X#X$X#X%X[.Z.: wXwX .{.#X#X$X$X=XOXB wXwXwXwXwXwXwXwXwXwXwXwXwXwXwXwXwXwXwXwX",
"wXwXwXwXwXwXwXwXwXwXwXwXwXwXwXwXwXwXwXwX[.<X#X$X#X#X_.| wXwXwXA ~.OX$X#X$X$X<XW wXwXwXwXwXwXwXwXwXwXwXwXwXwXwXwXwXwXwXwX",
"wXwXwXwXwXwXwXwXwXwXwXwXwXwXwXwXwXwXwXB $X3X1X1X2XXXQ.P wXwXwX: A. X<X<X<X=XqX .wXwXwXwXwXwXwXwXwXwXwXwXwXwXwXwXwXwXwXwX",
"wXwXwXwXwXwXwXwXwXwXwXwXwXwXwXwXwXwXwX' -X!.H.H.~._.L.> wXwXwXwXa.|._.J.H.L.OXV.wXwXwXwXwXwXwXwXwXwXwXwXwXwXwXwXwXwXwXwX",
"wXwXwXwXwXwXwXwXwXwXwXwXwXwXwXwXwXwXwXM a.u.c.z.u.' T wXwXwXwXwXB } 8.k.c.d.u.! wXwXwXwXwXwXwXwXwXwXwXwXwXwXwXwXwXwXwXwX",
"wXwXwXwXwXwXwXwXwXwXwXwXwXwXwXwXwXwX, b.XX4X5X3X7X_.! wXwXwXwXwXB !.5X3X3X3X=XE.A wXwXwXwXwXwXwXwXwXwXwXwXwXwXwXwXwXwXwX",
"wXwXwXwXwXwXwXwXwXwXwXwXwXwXwXwXwXwXZ.qX%XOXOX$X#X X~.Z wXwXwXwXZ.=X$XoXOXOXOX4XOX7 wXwXwXwXwXwXwXwXwXwXwXwXwXwXwXwXwXwX",
"wXwXwXwXwXwXwXwXwXwXwXwXwXwXwXwXwX7 &X<X<X<X<X<X3X X!.A wXwXwX. Z.{.<X<X1X-X<X%XqX[ wXwXwXwXwXwXwXwXwXwXwXwXwXwXwXwXwXwX",
"wXwXwXwXwXwXwXwXwXwXwXwXwXwXwXwXwXwXP ! ! ~ / W ! P Z wXwXwXwXwX6 P W / ~ / ! / W < wXwXwXwXwXwXwXwXwXwXwXwXwXwXwXwXwXwX",
"wXwXwXwXwXwXwXwXwXwXwXwXwXwXwXwXwXwXwXwXwXwXwXwXwXwXwXwXwXwXwXwXwXwXwXwXwXwXwXwXwXwXwXwXwXwXwXwXwXwXwXwXwXwXwXwXwXwXwXwX",
"wXwXwXwXwXwXwXwXwXwXwXwXwXwXwXwXwXwXwXwXwXwXwXwXwXwXwXwXwXwXwXwXwXwXwXwXwXwXwXwXwXwXwXwXwXwXwXwXwXwXwXwXwXwXwXwXwXwXwXwX",
"wXwXwXwXwXwXwXwXwXwXwXwXwXwXwXwXwXwXwXwXwXwXwXwXwXwXwXwXwXwXwXwXwXwXwXwXwXwXwXwXwXwXwXwXwXwXwXwXwXwXwXwXwXwXwXwXwXwXwXwX",
"wXwXwXwXwXwXwXwXwXwXwXwXwXwXwXwXwXwXwXwXwXwXwXwXwXwXwXwXwXwXwXwXwXwXwXwXwXwXwXwXwXwXwXwXwXwXwXwXwXwXwXwXwXwXwXwXwXwXwXwX",
"wXwXwXwXwXwXwXwXwXwXwXwXwXwXwXwXwXwXwXwXwXwXwXwXwXwXwXwXwXwXwXwXwXwXwXwXwXwXwXwXwXwXwXwXwXwXwXwXwXwXwXwXwXwXwXwXwXwXwXwX"
};
