/* XPM */
static char *_630541401230[] = {
/* columns rows colors chars-per-pixel */
"50 50 164 2 ",
"   c #010101",
".  c #0C0405",
"X  c #0C0907",
"o  c #0C0B08",
"O  c #120507",
"+  c #120C06",
"@  c #19050B",
"#  c #120D09",
"$  c #1F0B0D",
"%  c #110408",
"&  c #14120D",
"*  c #19120D",
"=  c #191610",
"-  c #1D1B14",
";  c #22170D",
":  c #270811",
">  c #2C0F12",
",  c #3D0E1B",
"<  c #320E15",
"1  c #201710",
"2  c #231C15",
"3  c #2D1F12",
"4  c #2F1113",
"5  c #331115",
"6  c #3B1418",
"7  c #2D2217",
"8  c #242118",
"9  c #2A221A",
"0  c #2E2A1F",
"q  c #382818",
"w  c #2F2A20",
"e  c #302C20",
"r  c #3F3A2B",
"t  c #450F1F",
"y  c #41171B",
"u  c #491A1F",
"i  c #45191D",
"p  c #402C19",
"a  c #4D341E",
"s  c #4E1C20",
"d  c #541E23",
"f  c #581327",
"g  c #791A35",
"h  c #711832",
"j  c #463624",
"k  c #443D2D",
"l  c #4A3826",
"z  c #513720",
"x  c #573B22",
"c  c #513D29",
"v  c #5D3F25",
"b  c #632329",
"n  c #6C262D",
"m  c #47402F",
"M  c #57422D",
"N  c #5A442E",
"B  c #494231",
"V  c #544433",
"C  c #5E4730",
"Z  c #534A37",
"A  c #564D39",
"S  c #5B523D",
"D  c #624226",
"F  c #744F2E",
"G  c #644C33",
"H  c #69563F",
"J  c #6C5237",
"K  c #7D5938",
"L  c #6B5740",
"P  c #645A43",
"I  c #6B6047",
"U  c #6C6148",
"Y  c #72674C",
"T  c #74684D",
"R  c #7B6F52",
"E  c #8A1E3D",
"W  c #8D323B",
"Q  c #94353D",
"!  c #855A34",
"~  c #8B5F37",
"^  c #9C6B3E",
"/  c #9D3841",
"(  c #9C3740",
")  c #A9254A",
"_  c #B1284E",
"`  c #A43A44",
"'  c #AA3D47",
"]  c #AF3E49",
"[  c #B03E49",
"{  c #BE2953",
"}  c #CD2C5A",
"|  c #D12F5B",
" . c #D4325C",
".. c #E13F60",
"X. c #B5404B",
"o. c #B9414D",
"O. c #806141",
"+. c #9B6F45",
"@. c #99744E",
"#. c #8A7153",
"$. c #8A7D5C",
"%. c #87795A",
"&. c #9F7951",
"*. c #A36F40",
"=. c #AB7443",
"-. c #B37A46",
";. c #B67C49",
":. c #A47D54",
">. c #A87F56",
",. c #C64752",
"<. c #CB4854",
"1. c #CA4754",
"2. c #D24A57",
"3. c #DC4E5B",
"4. c #D44958",
"5. c #E4515F",
"6. c #E64462",
"7. c #ED4B64",
"8. c #F14E65",
"9. c #EA5361",
"0. c #F65566",
"q. c #F95867",
"w. c #FC5968",
"e. c #FA5368",
"r. c #AE8459",
"t. c #BD8653",
"y. c #B5895C",
"u. c #938462",
"i. c #A18361",
"p. c #BD8F61",
"a. c #A7956E",
"s. c #AB9A72",
"d. c #B19F76",
"f. c #B6A479",
"g. c #B8A57B",
"h. c #B8A67B",
"j. c #C28C58",
"k. c #C6915D",
"l. c #C59665",
"z. c #CB9966",
"x. c #CC9B68",
"c. c #CA9562",
"v. c #D19F6B",
"b. c #D3A06C",
"n. c #C3AF82",
"m. c #D1AF81",
"M. c #CCB788",
"N. c #C6B284",
"B. c #D3BE8D",
"V. c #DFBB8B",
"C. c #DBC08E",
"Z. c #D6C08F",
"A. c #DBC592",
"S. c #DEC894",
"D. c #EDC18F",
"F. c #E2CB96",
"G. c #F1C491",
"H. c #EAD29C",
"J. c #F3D49D",
"K. c #F4DBA2",
"L. c #F8DEA5",
"P. c #FAE1A6",
"I. c #FDE3A8",
"U. c None",
/* pixels */
"U.U.U.U.U.U.U.U.U.U.U.U.U.U.U.U.U.U.U.U.              U.U.U.U.U.U.U.U.U.U.U.U.U.U.U.U.U.U.U.U.U.U.U.",
"U.U.U.U.U.U.U.U.U.U.U.U.U.U.U.U.U.U.    X 7 j c j 7 X                     U.U.U.U.U.U.U.U.U.U.U.U.U.",
"U.U.U.U.U.U.U.U.U.U.U.U.U.U.U.U.U.  # C :.x.v.b.v.l.:.G * + q D F F q         U.U.U.U.U.U.U.U.U.U.U.",
"U.U.U.U.U.U.U.U.U.U.U.U.U.U.U.U.  7 &.v.b.b.b.b.v.b.b.b.r.+.=.-.-.K *     U.U.U.U.U.U.U.U.U.U.U.U.U.",
"U.U.U.U.U.U.U.U.U.U.U.U.U.U.U.  7 y.b.b.b.b.b.b.b.b.v.b.b.z.;.;.~ +   U.U.U.U.U.U.U.U.U.U.U.U.U.U.U.",
"U.U.U.U.U.U.U.U.U.U.U.U.U.U.  # :.b.b.b.b.b.v.b.v.b.b.b.b.b.t.*.3         U.U.U.U.U.U.U.U.U.U.U.U.U.",
"U.U.U.U.U.U.U.U.U.U.U.U.U.U.  G b.b.b.b.b.b.b.b.b.b.v.b.b.b.j.^ D D a 7 .     U.U.U.U.U.U.U.U.U.U.U.",
"U.U.U.U.U.U.U.U.U.U.U.U.U.  & r.b.b.b.b.b.b.v.b.b.b.b.b.b.b.k.-.;.-.-.=.~ q     U.U.U.U.U.U.U.U.U.U.",
"U.U.U.U.U.U.U.U.U.U.U.U.U.  q x.b.b.b.b.v.b.b.v.v.b.b.b.b.v.v.j.-.-.-.-.*.z     U.U.U.U.U.U.U.U.U.U.",
"U.U.U.U.U.U.U.U.U.U.U.U.U.  M b.b.b.v.b.b.b.b.b.b.b.b.b.b.b.v.v.j.-.-.=.a     U.U.U.U.U.U.U.U.U.U.U.",
"U.U.U.U.U.U.U.U.U.U.U.U.U.  G b.b.b.v.b.b.b.b.b.b.x.y.v.b.b.b.b.k.^ -.! .   U.U.U.U.U.U.U.U.U.U.U.U.",
"U.U.U.U.U.U.U.U.U.U.U.U.U.  J b.l.z.b.b.b.b.b.v.r.j G v.b.b.b.y.G q =.N   U.U.U.U.U.U.U.U.U.U.U.U.U.",
"U.U.U.U.U.U.U.U.U.U.U.U.U.  G x.j M b.b.v.l.@.c #   N b.b.l.K 1   ; =.x   U.U.U.U.U.U.U.U.U.U.U.U.U.",
"U.U.U.U.U.U.U.U.U.U.U.U.U.  G x.2 2 O.J l -   & w   G :.J 1   w - ; =.x   U.U.U.U.U.U.U.U.U.U.U.U.U.",
"U.U.U.U.U.U.U.U.U.U.U.U.U.  C @.*   . # 8 B %.M.T   o . o r u.F.m + ! z   U.U.U.U.U.U.U.U.U.U.U.U.U.",
"U.U.U.U.U.U.U.U.U.U.U.U.U.  * X   e s.N.S.K.I.Z.0 = r R n.H.I.L.B   . +   U.U.U.U.U.U.U.U.U.U.U.U.U.",
"U.U.U.U.U.U.U.U.U.U.U.U.U.    A - B P.P.H.H.P.A.d.Z.K.P.H.H.I.K.B - Z     U.U.U.U.U.U.U.U.U.U.U.U.U.",
"U.U.U.U.U.U.U.U.U.U.U.U.U.  k A.w m K.K.S I L.P.I.P.P.K.P S K.K.k 0 A.r   U.U.U.U.U.U.U.U.U.U.U.U.U.",
"U.U.U.U.U.U.U.U.U.U.U.U.U.  T H.0 k K.P.a.s.P.P.P.P.P.P.s.a.P.K.B 0 H.T   U.U.U.U.U.U.U.U.U.U.U.U.U.",
"U.U.U.U.U.U.U.U.U.U.U.U.U.  B F.w B K.P.I.P.P.P.P.P.P.P.I.I.P.K.B e F.B   U.U.U.U.U.U.U.U.U.U.U.U.U.",
"U.U.U.U.U.U.U.U.U.U.U.U.U.    P - k K.P.P.P.I.I.P.P.P.I.P.P.P.K.k 2 P     U.U.U.U.U.U.U.U.U.U.U.U.U.",
"U.U.U.U.U.U.U.U.U.U.U.U.U.U.      e H.P.P.H.h.S.P.P.S.h.H.P.P.H.e       U.U.U.U.U.U.U.U.U.U.U.U.U.U.",
"U.U.U.U.U.U.U.U.U.U.U.U.U.U.U.U.  # n.I.P.M.& P K.K.P = M.P.P.n.#   U.U.U.U.U.U.U.U.U.U.U.U.U.U.U.U.",
"U.U.U.U.U.U.U.U.U.U.U.U.U.U.U.U.U.  U P.P.K.A   m m   S K.P.P.U   U.U.U.U.U.U.U.U.U.U.U.U.U.U.U.U.U.",
"U.U.U.U.U.U.U.U.U.U.U.U.U.U.U.U.U.  & d.I.I.S.U 8 8 I S.P.I.d.&   U.U.U.U.U.U.U.U.U.U.U.U.U.U.U.U.U.",
"U.U.U.U.U.U.U.U.U.U.U.U.U.U.U.U.U.U.  8 f.I.I.L.F.S.P.P.P.f.8   U.U.U.U.U.U.U.U.U.U.U.U.U.U.U.U.U.U.",
"U.U.U.U.U.U.U.U.U.U.U.U.U.U.U.U.U.U.U.  & R B.K.I.P.K.Z.R =   U.U.U.U.U.U.U.U.U.U.U.U.U.U.U.U.U.U.U.",
"U.U.U.U.U.U.U.U.U.U.U.U.U.U.U.U.U.U.U.      = k P P m =       U.U.U.U.U.U.U.U.U.U.U.U.U.U.U.U.U.U.U.",
"U.U.U.U.U.U.U.U.U.U.U.U.U.U.U.U.U.U.U.  = #.V 3 * * 7 V #.=   U.U.U.U.U.U.U.U.U.U.U.U.U.U.U.U.U.U.U.",
"U.U.U.U.U.U.U.U.U.U.U.U.U.U.U.U.U.U.    2 A.J.V.m.m.V.J.A.-     U.U.U.U.U.U.U.U.U.U.U.U.U.U.U.U.U.U.",
"U.U.U.U.U.U.U.U.U.U.U.U.U.U.U.      % $   u.P.I.P.P.P.I.u.  @ .       U.U.U.U.U.U.U.U.U.U.U.U.U.U.U.",
"U.U.U.U.U.U.U.U.U.U.U.U.      $ s W ,.2.5 & $.A.K.K.A.$.& < ) ) h , @       U.U.U.U.U.U.U.U.U.U.U.U.",
"U.U.U.U.U.U.U.U.U.U.    5 n ' 3.0.w.w.w.<.6   - r r 8   6 ,.0.6. .} _ E f :     U.U.U.U.U.U.U.U.U.U.",
"U.U.U.U.U.U.U.U.U.  @ Q 9.w.w.w.q.w.w.w.w.9.( d 5 5 s ( 9.w.q.w.0.6. .} } { g %   U.U.U.U.U.U.U.U.U.",
"U.U.U.U.U.U.U.U.U.  Q w.w.w.w.w.w.w.w.w.w.w.w.q.9.9.q.w.w.w.w.w.w.w.e.6.| } } g   U.U.U.U.U.U.U.U.U.",
"U.U.U.U.U.U.U.U.  4 9.w.w.w.w.w.q.w.w.q.w.w.w.w.w.w.q.w.w.w.q.w.w.w.w.w.7.| } { :   U.U.U.U.U.U.U.U.",
"U.U.U.U.U.U.U.U.  s 0.w.w.0.5.0.0.9.9.0.q.9.9.0.w.w.w.w.w.w.w.q.w.w.q.9.0...} } t   U.U.U.U.U.U.U.U.",
"U.U.U.U.U.U.U.U.  d w.w.w.o.5 X.3.6 > ] 9.y 1 ` w.w.w.w.w.w.w.q.w.w.X.5 o.8.} } s   U.U.U.U.U.U.U.U.",
"U.U.U.U.U.U.U.U.  d w.w.w.`   ` 9.s   / 9.s   ( w.w.w.w.w.w.q.w.w.w.`   X.0.} } t   U.U.U.U.U.U.U.U.",
"U.U.U.U.U.U.U.U.  d w.w.w.X.  ` w.[   / w.]   ( w.w.w.w.q.w.w.w.w.w.`   ` 0.| } t   U.U.U.U.U.U.U.U.",
"U.U.U.U.U.U.U.U.  d w.w.w.'   ` w.X.  / w.o.  ( w.q.q.w.w.w.w.w.w.w.`   ' e.| | t   U.U.U.U.U.U.U.U.",
"U.U.U.U.U.U.U.U.  u 2.2.3.Q   ` w.X.  / w.o.  ( w.w.w.w.q.w.q.w.w.w.` . W 4._ ) ,   U.U.U.U.U.U.U.U.",
"U.U.U.U.U.U.U.U.    O O O O   ` w.<.s o.w.2.s X.w.w.q.w.w.w.w.q.w.w.`   . O % .     U.U.U.U.U.U.U.U.",
"U.U.U.U.U.U.U.U.  8 H H L k   ` w.w.0.w.w.w.q.q.w.w.w.w.w.q.w.q.w.w.`   l H H H 2   U.U.U.U.U.U.U.U.",
"U.U.U.U.U.U.U.U.  B D.D.G.r.  ` w.w.w.w.w.w.w.q.w.w.w.w.w.w.q.w.w.w.'   i.G.D.D.V   U.U.U.U.U.U.U.U.",
"U.U.U.U.U.U.U.U.  Z K.K.L.a.  ` w.w.w.w.w.q.w.w.w.w.w.w.w.q.w.w.w.w.` . a.L.K.K.Z   U.U.U.U.U.U.U.U.",
"U.U.U.U.U.U.U.U.  A L.P.I.s.. ` w.w.w.w.q.w.q.q.q.w.w.w.w.w.w.w.w.w.`   s.P.P.L.A   U.U.U.U.U.U.U.U.",
"U.U.U.U.U.U.U.U.  A P.I.I.s.  ` w.w.q.w.q.w.q.w.w.w.w.q.q.w.w.w.w.w.` X s.I.P.L.A   U.U.U.U.U.U.U.U.",
"U.U.U.U.U.U.U.U.  2 P P P k   y b b b b b b b b b b b b b b b b b b s   r P P P 2   U.U.U.U.U.U.U.U.",
"U.U.U.U.U.U.U.U.                                                                    U.U.U.U.U.U.U.U."
};
