/* XPM */
static char *_630542332721[] = {
/* columns rows colors chars-per-pixel */
"50 50 102 2 ",
"   c #010000",
".  c #090401",
"X  c #120604",
"o  c #130B00",
"O  c #1C0B05",
"+  c #1D1100",
"@  c #230D06",
"#  c #231300",
"$  c #361F00",
"%  c #35130A",
"&  c #231F1F",
"*  c #392000",
"=  c #24211E",
"-  c #2D271C",
";  c #3C2D1B",
":  c #2C2220",
">  c #3C2720",
",  c #3F372B",
"<  c #3D3130",
"1  c #4A1C0D",
"2  c #521F0E",
"3  c #4C2A01",
"4  c #542707",
"5  c #552F00",
"6  c #54220C",
"7  c #573000",
"8  c #5D3300",
"9  c #5B2210",
"0  c #683900",
"q  c #642611",
"w  c #712B14",
"e  c #6A3422",
"r  c #764100",
"t  c #6D4513",
"y  c #8E3617",
"u  c #8E3915",
"i  c #8E3518",
"p  c #923F11",
"a  c #913619",
"s  c #A33D1C",
"d  c #843B24",
"f  c #934D04",
"g  c #90430C",
"h  c #935000",
"j  c #885210",
"k  c #925B18",
"l  c #A95C00",
"z  c #A25E0C",
"x  c #AB401D",
"c  c #B0431E",
"v  c #B36100",
"b  c #8D442C",
"n  c #9D4225",
"m  c #C44C1F",
"M  c #C65814",
"N  c #C4501B",
"B  c #C9511D",
"V  c #CA6E01",
"C  c #C7610C",
"Z  c #C8610C",
"A  c #D17403",
"S  c #E27C00",
"D  c #EE7E04",
"F  c #EB720F",
"G  c #ED780A",
"H  c #F67C0B",
"J  c #FA7B0D",
"K  c #EA6917",
"L  c #E9621D",
"P  c #EA6818",
"I  c #F2661E",
"U  c #F46B1A",
"Y  c #F9691F",
"T  c #EB7110",
"R  c #F57313",
"E  c #F87315",
"W  c #FC7911",
"Q  c #FA7019",
"!  c #C34921",
"~  c #C94C24",
"^  c #CA4F28",
"/  c #DA5225",
"(  c #DD5529",
")  c #E75627",
"_  c #E75925",
"`  c #E85C22",
"'  c #E65628",
"]  c #E85729",
"[  c #ED5929",
"{  c #F25E26",
"}  c #F35B29",
"|  c #FB5E2B",
" . c #ED6220",
".. c #F36223",
"X. c #F96424",
"o. c #FD6228",
"O. c #E68004",
"+. c #EF8300",
"@. c #F58204",
"#. c #F98503",
"$. c #FC8A00",
"%. c #FD8109",
/* pixels */
"} [ } } } b , S #.#.#.E } [ } } } ( < k $.#.#.R I } } [ } } b , O.#.#.@.R [ } } } } ( < k $.$.#.J P ",
"} } } } | w . S #.E ..} } } } } } ( X 0 $.W Y ..} | } } } | w . S %.W X.} | } } } } ( . r $.W Y | } ",
"e 6 2 2 2 @   3 4 2 2 6 6 6 2 2 2 1   # 5 6 1 6 6 6 2 2 2 6 @   3 4 1 6 6 6 2 2 2 6 1   # 5 6 2 6 e ",
"; + + + + # # # + + O X   o + + O # # # + + + O     + + + + # # + + + O .   o + + + O # + + + O O > ",
"+.+.+.+.+.+.+.+.D T  .s   l +.@.@.+.+.+.+.G K _ % $ +.+.@.+.+.+.+.D T  .s   l #.+.+.+.+.+.+.G P _ ' ",
"$.$.$.$.#.#.#.R ..} } x   v $.$.$.$.@.J U ..} [ % * $.$.@.#.#.#.R I [ | x   v $.#.#.#.#.@.U ..[ } [ ",
"$.+.#.#.#.R I  .} [ ..x   v $.#.@.H U  .[ [ [ [ % $ #.#.$.$.H ..} } } } x   v $.#.#.@.K ..[ } } [ } ",
"$.$.#.W X.| } | | } o.x   v $.%.E ..| | | | | } % * $.$.R X.} | } | } | c   v $.%.E o.| } | } | } | ",
"z h g y y y y y y y a q   0 f u y y y y y y y y O + f g y y y y u y y a q   0 f u y y y y y y u y n ",
"=                       .                                                                         = ",
"A V V C B 9 . v V V V V V V V Z M c . 8 A V V V V V V V C B 9 . v A V V V V V V V M c . 8 A V V V A ",
"#.J X...o.w . S $.$.$.#.#.#.W ..| / . r $.$.$.$.$.$.J U } | w . S $.$.$.$.$.#.E ..} ( . r $.$.$.$.$.",
"U ..[ } } w . S $.$.#.@.E  .} [ [ / . 0 $.$.#.#.H U { [ } } w . S #.$.#.J E  .} } } /   r $.$.#.#.J ",
"[ } } } | w . S $.#.E ..} } } } } / . r $.#.J U | } } } } o.w . S $.#.E ..} } } } } ( . r $.$.W I ..",
"^ ! ! ! ^ 9 . v Z N ! ! ! ~ ! ! ! c . 0 V M ! ! ! ! ! ! ! ~ 9 . v Z N ! ! ! ! ! ! ! c . 8 V M ~ ! ^ ",
":                                                                                                 : ",
"z h h h h h h h h h g q   r h h f h h h h h g u O # h h h h h h f h f p q   0 h h h h h h h h g u n ",
"$.$.$.$.$.$.$.#.W X.o.x   v $.$.$.$.$.$.%.Q X.| % $ $.$.$.$.$.$.#.W Y o.c   v $.$.$.$.$.$.%.Q X.| } ",
"$.$.#.$.$.#.R I } [ } x   v $.$.$.#.%.U { [ } [ % $ #.$.$.$.#.J I [ } } s   v $.$.$.$.#.U ..} } [ [ ",
"$.$.#.#.R I { } } } } x   v $.#.@.U ..[ } [ } [ % $ #.#.@.R ....} } } } x   v $.+.J U ..[ } [ [ [ } ",
"+.+.T L _ ' ) ' ' ' ] s   l H K _ ' ' ' ' ' ' ' % $ O.T L ' ' ' ' ' ' ] s   l H K  .' ' ' ' ' ' ' [ ",
"; + O O O O @ O O O O X   o O O O O @ @ O O O O     + O O O O O O O O O X   o O O O O @ O O O O O > ",
"t 7 7 3 6 @   5 7 5 5 5 5 5 5 5 4 1   # 5 7 7 7 7 5 7 7 7 4 @   5 5 5 7 5 7 7 5 5 4 6   # 8 7 7 7 t ",
"$.$.W U o.w . S $.$.$.$.$.$.#.E ..( . r $.$.$.$.$.$.$.W U o.w . S $.$.$.$.$.#.#.U ../   r $.$.$.$.#.",
"H ..} } } w . S #.$.$.@.@.R ..[ } / . r $.$.#.#.#.H I { } } w . S $.$.#.#.@.R  .} [ / . r $.#.#.#.#.",
"..[ [ } } w . S #.#.@.R ..[ } } } / . r $.$.#.H I } [ } [ | w . A #.$.#.E ..} } [ [ / . r $.$.#.H U ",
"} } } } o.w . S #.E ..| } } } } } ( . r $.J U } | } } } } | w . S %.E ..} } } } } } ( . r $.J U ..} ",
"e 6 2 2 2 @   3 4 6 2 6 6 2 2 2 2 1   # 7 6 2 6 6 2 2 2 2 2 #   3 4 6 6 2 6 2 2 2 2 1 . # 7 6 6 2 e ",
"; + + + + # # + + + O X   o + + O + # # + + + O     + + + + + # + + + O o   o + O + + # + + + O O > ",
"+.+.+.+.+.+.+.+.+.T  .s   l +.+.+.+.+.+.+.G K _ % * +.+.@.+.+.+.+.+.T  .s   l +.@.+.+.+.+.+.G K _ ' ",
"$.$.+.$.$.$.@.R I [ } x   v $.$.#.#.@.H U  .[ [ % * +.#.#.$.#.#.R I [ | x   v $.$.#.#.#.H U ..[ } [ ",
"$.$.$.$.@.R ..} } [ } x   v $.$.$.H U ..} [ } [ % * $.$.$.@.R I [ } [ } x   v $.$.#.H R ..[ } } [ } ",
"$.$.#.W X.o.| } | } o.x   v $.%.Y o.| | } | } } % * $.%.W X...| } | } | x   v $.%.Q o.} } | } | | } ",
"z h g y y y y i y y a q   0 f a y a y i i i y u @ # f g u y y i i i a a q   0 f a a y a a y i i i n ",
":                       .                         .                       .                       : ",
"A V V C B 9 . v V V V V V V A Z M c   0 V V V V V V V V C B 9 . v V V V V V V V V M c   0 V V V V A ",
"#.J X...o.w . O.$.$.$.#.$.#.R ..} / . r $.$.$.$.$.#.J U } o.w . S $.$.$.$.$.#.R ..} / . r $.$.$.$.$.",
"U [ [ } } w o A $.$.#.@.R  .[ } } / . 0 $.$.#.@.H U } } [ | w . S $.$.$.H T ..[ } [ / . r $.$.#.#.H ",
"[ } } } o.w . S $.#.E ..} } } } } (   r $.$.J U { } } } } | w . S $.%.E X.} } } } } ( . r $.#.J U { ",
"^ ! ! ! ~ 9 . v C N ! ! ~ ! ! ! ! c . 0 A M ~ ! ! ! ! ! ! ! 9 . v Z N ~ ! ! ! ! ! ! c   0 V M N ! ^ ",
":                                                                                                 = ",
"z h h h h h h h h f g q   0 h h h h h h h h g u @ # h h h h h h h h f g q   r h h f h h h h h g u n ",
"$.$.$.$.$.$.$.$.W X.o.x   v $.$.$.$.$.$.%.Q X.} % * $.$.$.$.$.$.#.W Y o.x   v $.$.$.$.$.$.%.Q ..| } ",
"$.$.#.#.#.#.R I [ } | x   v $.$.#.#.#.U ..[ } [ % * $.$.$.$.#.R ..} [ | x   v $.#.$.$.%.U ..} } } [ ",
"$.$.$.@.R I { } [ } } x   v $.#.H U { [ [ } [ [ % * @.$.#.R ..[ } [ } | x   v #.#.H U { [ } } [ [ } ",
"+.+.F L ' ] ' ) ] ] ] s   l @.K ` ' ' ' ) ' ' ' % $ O.F L _ _ ' _ ' ' ] s   l H K ` ' ] ] ' ] ' _ [ ",
"; + O O O O @ O O O O X   o + O O O @ @ O O O O     + O O O O @ O O O O .   o O O O O @ O O O O O > ",
"t 7 7 3 6 @   3 5 5 5 5 7 5 5 5 4 1   # 5 5 7 5 7 5 7 5 4 6 #   3 5 5 5 7 7 7 7 5 4 1   # 5 5 5 7 t ",
"#.#.W U o.w . O.$.$.$.$.$.$.#.E X.(   r $.$.$.$.$.$.$.W U o.w . S $.$.$.$.$.$.#.R X.(   r $.$.$.$.$.",
"J U  .[ } d - O.#.#.$.$.#.R  .} } ( - j $.$.#.$.#.H U ..[ | d - S #.#.#.$.#.R ..} } ( - j $.#.$.#.$."
};
