/* XPM */
static char *cthulhu__1_[] = {
/* columns rows colors chars-per-pixel */
"80 80 181 2 ",
"   c None",
".  c black",
"X  c #000100",
"o  c #000001",
"O  c #010001",
"+  c #010300",
"@  c #020002",
"#  c #070000",
"$  c #030401",
"%  c #040702",
"&  c #040005",
"*  c #060803",
"=  c #060A03",
"-  c #080D04",
";  c #060109",
":  c #0B020D",
">  c #130303",
",  c #190504",
"<  c #0A1005",
"1  c #0A1105",
"2  c #0C1406",
"3  c #0F1507",
"4  c #0F1708",
"5  c #121B09",
"6  c #151F0B",
"7  c #0E0310",
"8  c #100312",
"9  c #110414",
"0  c #130417",
"q  c #17051D",
"w  c #16051F",
"e  c #181C11",
"r  c #240707",
"t  c #14220B",
"y  c #16250C",
"u  c #17250C",
"i  c #17270D",
"p  c #19250D",
"a  c #19290E",
"s  c #1E2A0F",
"d  c #1B2C0F",
"f  c #1D3110",
"g  c #202D11",
"h  c #233212",
"j  c #203411",
"k  c #213712",
"l  c #273614",
"z  c #243B14",
"x  c #253C15",
"c  c #263E15",
"v  c #2A3B16",
"b  c #2B3E16",
"n  c #1D0620",
"m  c #1C0627",
"M  c #1B0728",
"N  c #24082D",
"B  c #290A2F",
"V  c #270A37",
"C  c #2A0A3D",
"Z  c #330C39",
"A  c #400C0C",
"S  c #601313",
"D  c #751717",
"F  c #284216",
"G  c #2F4319",
"H  c #2B4718",
"J  c #2D4A19",
"K  c #2F4D1A",
"L  c #32461A",
"P  c #354A1C",
"I  c #314F1C",
"U  c #384F1D",
"Y  c #31521B",
"T  c #33541D",
"R  c #36571D",
"E  c #3B531F",
"W  c #375B1E",
"Q  c #3F5921",
"!  c #3A5F20",
"~  c #3C6221",
"^  c #3F6824",
"/  c #435E23",
"(  c #446124",
")  c #486526",
"_  c #406824",
"`  c #436F26",
"'  c #4C6B28",
"]  c #467427",
"[  c #4C752A",
"{  c #497929",
"}  c #4D7E2B",
"|  c #51722B",
" . c #55772D",
".. c #597D2F",
"X. c #2E0B42",
"o. c #310C47",
"O. c #3D0E45",
"+. c #350D4C",
"@. c #380D51",
"#. c #3B0E56",
"$. c #44104C",
"%. c #4C1257",
"&. c #54145F",
"*. c #421061",
"=. c #471268",
"-. c #5B1667",
";. c #4D1371",
":. c #54157B",
">. c #62186F",
",. c #651871",
"<. c #6A1A79",
"1. c #9C1F1F",
"2. c #4E812B",
"3. c #4F822C",
"4. c #51842D",
"5. c #52862E",
"6. c #52882E",
"7. c #548A2F",
"8. c #5C8230",
"9. c #568D30",
"0. c #589031",
"q. c #599232",
"w. c #5B9333",
"e. c #5C9633",
"r. c #618833",
"t. c #648D35",
"y. c #669036",
"u. c #619835",
"i. c #6A9538",
"p. c #669D38",
"a. c #6D993A",
"s. c #709D3B",
"d. c #6AA13A",
"f. c #6EA63C",
"g. c #72A03C",
"h. c #74A33D",
"j. c #76A53E",
"k. c #75AD3F",
"l. c #78A93F",
"z. c #7BAD41",
"x. c #7CB142",
"c. c #7FB343",
"v. c #80B644",
"b. c #82B845",
"n. c #84BB46",
"m. c #86BD47",
"M. c #88BF48",
"N. c #88C048",
"B. c #89C149",
"V. c #8AC249",
"C. c #8AC349",
"Z. c #8BC34A",
"A. c #8CC44A",
"S. c #8CC54A",
"D. c #8DC64B",
"F. c #8EC84B",
"G. c #8FC94C",
"H. c #91CC4D",
"J. c #93CF4E",
"K. c #96D34F",
"L. c #581680",
"P. c #60188B",
"I. c #731C80",
"U. c #791D87",
"Y. c #631890",
"T. c #661994",
"R. c #6B1B9B",
"E. c #6D1B9E",
"W. c #6F1CA2",
"Q. c #761DA0",
"!. c #801F90",
"~. c #842094",
"^. c #8A229B",
"/. c #8220A5",
"(. c #9224A7",
"). c #9D26B0",
"_. c #9E27B2",
"`. c #A027B4",
"'. c #A228B5",
"]. c #A628BA",
"[. c #AD2AC1",
/* pixels */
"                        o . .                                             o O o . . . .                                             . . o                       ",
"                        O . O                                           . O . . . . . O .                                           . o O                       ",
"                    . . . . .                                       . . X $ % = = % % + X . .                                       . . . . .                   ",
"                  . . . ; . .                                   . . . . 5 U | r.y.8.~ c 2 . . . o                                   . . ; . . .                 ",
"                . . : B Z & . .                               . . . s ' s.z.v.n.m.b.z.d.} Y y . . o                               . . . V m ; . .               ",
"              . . : %.,.N . . .                             . . . v 8.b.J.G.F.D.S.D.G.S.v.w.! d X . .                             . . . m *.o.; . .             ",
"            . . . $.~.I.. . . .                           . . - v a.Z.G.V.V.V.Z.Z.V.Z.Z.Z.x.u.] d = . o                           . . . . ;.L.C . . .           ",
"            . . n ~.^.O.. & @ . .                       . . = P c.A.A.V.Z.Z.Z.Z.Z.Z.V.V.Z.V.x.w.4.z = . o                       . . @ & . C P.L.0 . .           ",
"          . . : I.'.,.8 @ X.m & . O                     . . L z.Z.Z.Z.V.Z.Z.Z.Z.Z.Z.V.V.Z.A.M.k.9.} k . .                     . . & m X.@ 8 *.E.;.; . .         ",
"        . . : $.(.].%.. & *.;.N . . O                 . . 5 ..G.A.Z.V.Z.Z.Z.Z.Z.Z.Z.Z.Z.V.Z.Z.m.e.0.W 4 . .                 O . . N ;.*.& . +.W.Y.X.; . .       ",
"        . . n U.).(.O.. & :.R.=.q . . . .             . . / z.G.V.V.Z.Z.Z.Z.Z.Z.Z.Z.Z.Z.Z.V.A.V.f.w.} H . . o           . . . . q =.R.:.& . X.T.R.:.0 . .       ",
"        . . Z )._.~.Z . : Y.W.P.@.. . . . . . O . O o X 4 i.G.Z.Z.Z.Z.Z.Z.Z.Z.Z.Z.Z.Z.Z.Z.Z.Z.V.n.u.0.` 3 X . . . O . . . . . . @.P.W.Y.: . V P.R.R.N . .       ",
"      . . 0 &.'._.I.B . m T.E.T.*.. . : : & & @ @ . . % ( x.G.V.Z.Z.Z.Z.Z.Z.Z.Z.Z.Z.Z.Z.Z.Z.V.Z.D.f.w.} Y $ . . @ & & ; 8 0 . . *.T.E.T.m . B <.R.E.#.8 . .     ",
"      o . Z !._.`.,.n & o.T.E.Y.#.. 7 I.!.&.O.Z N 8 . * a.B.A.V.Z.Z.Z.Z.Z.Z.Z.Z.Z.Z.Z.Z.Z.Z.V.Z.A.x.u.7.{ * . : B $.-.U.(.U.7 . #.Y.E.T.X.& n -.R.R.L.N . o     ",
"      . . %.`.).`.&.0 ; @.T.E.Y.#.. 9 !.'.(.^.^.<.B . < c.F.Z.Z.A.Z.V.Z.Z.Z.Z.Z.Z.Z.Z.Z.Z.Z.V.Z.A.b.p.7.3.< . N ,.^.(.).].!.9 . #.Y.E.T.@.; 0 %.Q.R.R.+.. .     ",
"    . . q <.].).`.&.8 ; @.T.E.Y.#.. 9 ~.[.].[.[.U.B . e n.F.A.D.F.H.D.Z.V.Z.Z.Z.Z.Z.Z.Z.V.Z.D.H.F.V.d.7.4.e . N I.[.[.].[.~.9 . #.Y.E.T.@.; 8 %./.R.W.=.0 . .   ",
"    o . O.!.'.).`.&.8 ; +.T.W.Y.@.. 7 ,.!.I.U.!.&.q + v n.F.M.l.r.a.b.S.A.V.V.Z.Z.Z.V.V.A.D.n.s.r.j.d.7.4.h $ 0 %.!.U.I.!.,.7 . @.Y.W.T.+.; 8 &.(.R.E.:.V . o   ",
"    . . %.^.`.).`.&.0 ; +.T.R.L.o.. . q 8 . & q q ; - E m.H.j.E . 5 ..b.Z.Z.Z.V.V.V.Z.Z.Z.n.8.6 . U 8.0.5.H - ; 0 q @ . 8 q . . o.L.R.T.+.; 0 &.).R.R.P.o.. .   ",
"    . . -.(._.).`.-.0 ; o.P.@.0 . . . . . . . . . . 4 | M.K. .- . . % U j.G.Z.V.V.V.Z.F.z.Q - . . = R u.6.W 2 . . . . . . . . . @ q #.Y.o.; 0 -._.E.R.T.#.. .   ",
"    . . <.`.).).`.-.q ; X.X.0 . . . . o o     . . . 5  .M.H./ . . # . % l 8.S.D.V.D.D.r.v = . # @ . H w.6.! 2 . . .     o . . . . . 0 X.X.; q -._.Q.R.E.=.. .   ",
"    . . U.].).).`.,.n @ q : @ o . . . O         . . 4 | M.m.U . , D A # . s  .c.G.b...h . # A D r . k 4.6.R 2 . .         O . . O o @ : q . n ,._.Q.R.W.;.. .   ",
"  . . 9 !.].).)._.I.N . . . ; M   . . .         . . 2 / M.b.P . r 1.S , . . p s.K.h.h . . , S 1.r . f } 6.J < . .         . . .   M ; . . . N I._./.R.W.:.8 . . ",
". . @ B ~.].).)._.!.Z . . . w       . .           o - P m.M.Q . . > > # . % s g.K.j.v % . # > > . . z 3.5.c = .           . .       w . . . Z !.)./.E.E.L.m @ . ",
". . & O.^.].`.`.'.(.O.. . .         . .           O X p n.H.h.U . . . . % P l.B.S.V.z.E - . . . . L } 0.5.d % .           . .         . . . O.(.`.(.Q.W.P.C @ . ",
". . & &.<.,.&.&.>.^.$.. . @                       . . < j.S.B.j.| E E ' t.l.V.A.V.A.A.z.y.' E U | i.u.9.{ < . .                       @ . . $.^.,.%.#.*.;.#.& . ",
"o . @ B B n 0 8 n O.m . . ;                         . % ..b.G.S.n.j.j.v.F.G.A.V.V.V.Z.G.G.b.j.h.n.k.u.3.! $ .                         . . . m O.n 0 8 q m m @ . ",
"o . . . . . . o . . . . . .                         . $ / x.F.Z.S.F.F.D.Z.V.V.Z.Z.Z.V.V.Z.D.F.G.S.p.0.{ j + .                         . . . . . . . . . . . . . ",
". . . . . .   . . . . . . o                         . $ Q z.G.Z.Z.Z.Z.Z.Z.Z.Z.Z.Z.Z.Z.Z.Z.Z.Z.V.b.e.0.` - . .                         o . . . . . .   O . . . . ",
". . . .             . . . .                         . $ Q z.G.Z.Z.Z.Z.Z.Z.Z.Z.Z.Z.Z.Z.Z.Z.Z.Z.B.k.w.9.~ . .                           . . . .             . . . ",
". o . .                 . .                         . $ Q z.G.A.F.A.Z.V.Z.V.V.S.D.S.V.V.Z.Z.Z.B.f.w.7.W . .                           . .                 . . o ",
". . .                   o . .                       . $ / z.H.M.l.m.V.Z.V.Z.A.n.c.b.Z.Z.V.Z.A.B.f.q.4.Y . .                         . . o                   . . ",
". . .                   . . .                       . $ / x.S.a.Q t.b.D.Z.Z.Z.8.) 8.D.Z.Z.Z.A.N.d.q.} H . .                         . . .                   . . ",
". . .                     . o                       . $ / c.z.E . b j.G.Z.V.v.s . g S.C.V.V.A.N.p.q.] z . .                         . .                     . . ",
"o . .                     .                         . $ ( v.g.L . l h.H.A.M.t.6 . j f.b.z.b.F.N.u.0.] z . o                           .                     . . ",
". . .                                               . $ ( b.s.v . b j.G.D.m.( < = K 0.E a ) m.B.u.0.] c . .                                                 . . ",
". . o                                               o $ ( b.i.l X P l.G.F.n.l . t _ 4.t . b z.B.u.0.{ c . .                                                 o . ",
"                                                  o o % ) n.y.g + E z.G.G.b.3 . j 3.4.t . b g.V.u.0.{ F . . .                                                   ",
"                                                . . . * | M.r.p + / x.G.F.c.- . c 0.4.y . v g.V.p.0.{ F . . .                                                   ",
"                    . . . . . . . . . . . . . . . . . * y.F.8.5 $ ) x.G.S.l.= . F e.4.y . v s.C.p.0.{ F . . . . .                                               ",
"                  . . . . . . . . . . . . . . - y 3 . = l.J...3 $ | c.G.V.g.= . H e.4.p . l a.C.p.q.{ F . . . . o . .                                           ",
"                o . - d J J J F c z j d d k H R ~ d . 4 b.K...3 $ | c.G.M.i.= . K e.4.p . l i.C.d.q.} J . + j j < . . . o . . . . .                             ",
"              . . . 5 Y } 4.q.e.9.4.{ ` ] 3.w.w.{ f . g n.K.8.5 $ ' c.G.n.r.% + Y e.4.d . h y.A.d.0.6.R . . _ { H y 3 < - = $ X . . . .                         ",
"              . . % 5 y y z _ 3.6.7.9.9.9.7.7.9.! 5 % P n.J.8.6 + ( x.H.n.8.% $ Y e.4.j X a 8.S.f.0.0.~ . . W 9.9.4.~ T H k a 5 - % + . .                       ",
"            . . . . X + + + $ 6 Y 6.9.9.7.7.9.q.H = < ) m.J.r.a + Q z.G.N.a.= . H w.6.H = 3 ) D.k.w.0.` = . K 4.9.7.7.7.7.7.7.6.5._ f . . .                     ",
"            O . . . . . . . . + < d W } q.w.3.H 3 . 5 r.M.H.t.g + E z.G.D.x.4 . j 3.7.W < + U G.v.e.9.` 5 . d ~ 3.7.{ _ T F j a y y 6 - . . .                   ",
"              .             . o . . 5 j H H k < . . g x.V.H.y.h X P l.G.F.m.l . t _ 7.` 4 . v G.B.u.9.] d X - y k c f y 4 = X . . . % % . . .                   ",
"                                . . . . . . . . . % U G.Z.G.i.v . G l.G.D.m.( < - K 9.3.6 . g m.A.d.0.} J + . . . . . . . . o . . . . . . . .                   ",
"                                    . . . . . . . s 8.D.Z.G.a.G . h h.H.S.M.r.5 . k 0.0.a . p h.V.k.u.6.] = . . . . . . .             . . . O                   ",
"                                              . . P v.A.Z.F.l.Q . 5 s.H.Z.V.c.s . t 5.0.k . 5 r.M.M.d.7.4.d % .                                                 ",
"                                            o . 3  .G.Z.Z.D.b.' . % i.J.Z.Z.D.G . 3 _ 9.J = 2 ' m.F.k.w.6.! 2 . .                                               ",
"                                          . . . Q l.G.V.V.A.S.8.. . r.G.Z.Z.G.) < = K 7.W 4 = U n.G.n.f.7.4.p . .                                               ",
"                                        . . . s s.G.Z.V.V.S.M. .. . | n.S.Z.D.r.g . f 6.` y . h n.F.S.v.u.q.Y 2 . .                                             ",
"                                      O . . < r.n.D.V.Z.Z.G.i.b . . Q l.F.Z.A.j.G . 5 4.} j . 4 b.F.Z.V.v.u.7.H $ . . o                                         ",
"                                  . . . . 6 8.m.A.Z.V.Z.Z.G.) . . . b i.G.Z.A.l.G . 6 4.0.c . = j.Z.A.Z.V.m.f.4.J % . . o                                       ",
"                            O . . . . . b t.n.A.Z.V.V.Z.J.r.g . . . g r.H.Z.S.j.G . t 4.e.J . % r.n.D.Z.Z.Z.m.x.u.~ y . . . .                                   ",
"                      . . . . . % p L ) a.V.F.Z.V.V.D.D.a.v % . . . 6 8.H.Z.S.s.v . y 4.e.R = $ ' c.F.V.Z.Z.D.C.n.f.[ F 4 . . . .                               ",
"                    . . X 2 6 h U  .l.G.H.A.V.V.Z.F.Z.j.G % . .   . 2  .J.Z.S.a.l . d 4.w.~ 5 + E z.G.V.Z.Z.V.Z.D.A.v.u.~ d < . . .                             ",
"                . . . = p ( i.n.H.F.A.Z.V.Z.Z.Z.V.B.s.P X . .     . $ ' J.Z.D.i.l . d 4.q.` f . h g.G.Z.V.V.Z.V.V.Z.A.V.k.5.Y 2 X . .                           ",
"              . . . 6 ' c.m.B.V.Z.Z.Z.V.Z.S.D.G.z.( 5 + . .       . . ) J.Z.D.t.h . f 4.0.{ F . - 8.N.D.V.V.Z.V.V.Z.Z.Z.N.k.7.` t . . .                         ",
"            . . . E i.v.D.D.A.Z.A.F.H.J.Z.j.8.Q h < . . .         . . Q G.Z.F. .6 $ z 5.0.4.Y . . 5 ) z.H.A.Z.V.Z.V.V.Z.Z.M.x.0.` j + . o                       ",
"          . . $ E h.F.G.Z.F.H.H.Z.l.t.| Q G s < . . o .           . . ) H.Z.G.Q % - Y 6.9.7.W . . . 3 E a.A.H.F.A.V.V.V.Z.A.B.k.u.] z + . .                     ",
"        . . = G x.D.S.S.S.x.h.i.8.Q h = . . . . . .               . 4 ..J.Z.B.l . 4 ` 7.9.0.~ . . . . $ b 8.g.c.B.F.S.Z.V.Z.Z.A.f.e.] a X . o                   ",
"        . . v v.Z.A.C.N.z.) j - . . . . . . . .                 . . v i.H.B.g.p . 6 5.7.7.w._ . . . . . . . s ' g.n.M.V.Z.Z.Z.Z.b.p.6.] 2 . .                   ",
"      . . s 8.S.Z.G.n...6 % + . . . .                           . . ( z.G.M.| 4 . u 0.7.7.q._ % . o     . . + $ 2 v ..v.G.D.Z.Z.D.k.0.5.W 2 . .                 ",
"      . X / M.S.J.s.E 4 . . .                                   . . 8.A.G.M.v % . 1 2.7.9.q.` 2 . .         . . . % 5 h Q y.M.H.G.n.d.7.4.a . .                 ",
"    . . h y.K.Z.8.G - . o .                                   . . 6 s.J.M.i.3 . . 1 ^ 7.9.0.` 5 X .             . o . . < h Q ..v.G.c.0.q.J < . .               ",
"    . . ) b.S.s.p . . .                                     . . = ' c.J.l.L X . . 1 I 7.9.0.] y + .                 . o o . . 5 ' z.b.u.9.` d . .               ",
"    . . r.H.j.G + . .                                       . $ h b.G.V.8.. . . . . x 5.9.0.] p + .                     . o . . . P a.p.9.9.F . .               ",
"  . X 3 s.m.' . . o                                       . . p a.B.J.y.l . . . . . u 5.9.q.` 4 X .                           o . . t ) 7.e.H . .               ",
"  . + l l.8.3 . O                                       . . 3 ) V.G.c.Q + . o   . + u 5.9.w.` = .                               . . . 6 { w.K X .               ",
"  . $ L t.U . .                                     . . . 5 ) z.H.x.( 4 . o     . X u 5.0.0.~ . .                                 . . . J 7.Y . .               ",
". . $ G Q s . .                                   . . % a | c.G.j.) < . o       . X u 5.q.} J . .                                   . X 4 ] J . .               ",
". . + v p = .                             . o . . . % g a.m.n.y.L X . .         . + i 5.w.~ 6 . .                                     . . H f . .               ",
"  . X 3 * . .                         . . . . . . = h  .| ) l = + . o           . = b 5.7.F . .                                       . . - = . .               ",
"    . + . . .                           . . . . . + < 6 5 3 % . . .             . < T 7.J < . .                                       . . . . o o               ",
"    . . . .                                 . . . . . . o . . .               . . 3 R K 2 . o                                           . . . .                 ",
"    . . . .                                       . . . o                     . . < k = . .                                             . . . .                 ",
"    . . . .                                                                   . . . . . .                                             o . . .                   ",
"      . . .                                                                 o . . . . .                                               . . .                     ",
"      . o                                                                   . . .                                                       . o                     "
};
