/* XPM */
static char *_630542171854[] = {
/* columns rows colors chars-per-pixel */
"50 50 149 2 ",
"   c black",
".  c #010000",
"X  c #020101",
"o  c #040201",
"O  c #050403",
"+  c #060403",
"@  c #070403",
"#  c #080403",
"$  c #0A0504",
"%  c #0B0604",
"&  c #0D0A07",
"*  c #120907",
"=  c #140A08",
"-  c #150B08",
";  c #100C08",
":  c #110D09",
">  c #1A0E0A",
",  c #1F1512",
"<  c #21110D",
"1  c #22120D",
"2  c #23120E",
"3  c #23130E",
"4  c #24130E",
"5  c #25130F",
"6  c #25140F",
"7  c #27150F",
"8  c #201512",
"9  c #291510",
"0  c #241B12",
"q  c #251B13",
"w  c #261C13",
"e  c #261D13",
"r  c #261D14",
"t  c #2C1812",
"y  c #2D1812",
"u  c #351C15",
"i  c #361C15",
"p  c #3A1F17",
"a  c #3B1F17",
"s  c #32261A",
"d  c #3E2119",
"f  c #3C2D1F",
"g  c #3D2E1F",
"h  c #46251C",
"j  c #4C281E",
"k  c #522B20",
"l  c #542C21",
"z  c #4D3A28",
"x  c #653527",
"c  c #753D2E",
"v  c #57422D",
"b  c #59432E",
"n  c #59442E",
"m  c #5A442E",
"M  c #5C452F",
"N  c #5C462F",
"B  c #624A33",
"V  c #654C34",
"C  c #7B4131",
"Z  c #4A4C4C",
"A  c #505152",
"S  c #5F6161",
"D  c #666869",
"F  c #834433",
"G  c #844534",
"H  c #8A4836",
"J  c #8E4A38",
"K  c #974F3B",
"L  c #9D523E",
"P  c #9E523E",
"I  c #A85842",
"U  c #AC5A44",
"Y  c #B05C45",
"T  c #B55E47",
"R  c #B55F47",
"E  c #866545",
"W  c #886646",
"Q  c #896747",
"!  c #8F6B4A",
"~  c #8F6C4A",
"^  c #926E4C",
"/  c #936F4C",
"(  c #BB6149",
")  c #A37B55",
"_  c #C5664D",
"`  c #C5674E",
"'  c #C8684E",
"]  c #CE6B51",
"[  c #D06C51",
"{  c #D56F54",
"}  c #D66F54",
"|  c #D67054",
" . c #D77055",
".. c #D87155",
"X. c #D97155",
"o. c #D97255",
"O. c #DB7256",
"+. c #DC7356",
"@. c #DD7357",
"#. c #E07558",
"$. c #E17558",
"%. c #E37659",
"&. c #E5775A",
"*. c #E7785A",
"=. c #E8795B",
"-. c #ED7B5D",
";. c #F27E5F",
":. c #F27F5F",
">. c #F37F5F",
",. c #AB8159",
"<. c #AC8159",
"1. c #B0855B",
"2. c #B6895E",
"3. c #BA8C60",
"4. c #BC8D61",
"5. c #C39365",
"6. c #C69566",
"7. c #CC9A6A",
"8. c #D39F6D",
"9. c #F58060",
"0. c #F78161",
"q. c #F88161",
"w. c #FA8262",
"e. c #FA8362",
"r. c #FB8362",
"t. c #FB8363",
"y. c #FC8363",
"u. c #FC8463",
"i. c #FF8564",
"p. c #FF8664",
"a. c #FF8665",
"s. c #FF8765",
"d. c #FF8766",
"f. c #FF8867",
"g. c #D7A26F",
"h. c #DFA873",
"j. c #E8AF78",
"k. c #EBB17A",
"l. c #F3B77E",
"z. c #F4B77E",
"x. c #F5B87F",
"c. c #F9BB81",
"v. c #FFC084",
"b. c #FFC286",
"n. c #FFC386",
"m. c #FFC487",
"M. c #FFC587",
"N. c #FFC588",
"B. c None",
/* pixels */
"B.B.B.B.B.B.B.B.B.B.B.B.B.B.B.B.B.B.B.B.B.B.B.B.B.B.B.B.    B.B.B.B.B.B.B.B.B.B.B.B.B.B.B.B.B.B.B.B.",
"B.B.B.B.B.B.B.B.B.B.B.B.B.B.B.B.B.B.B.B.B.B.B.B.      $ 3   B.B.B.B.B.B.B.B.B.B.B.B.B.B.B.B.B.B.B.B.",
"B.B.B.B.B.B.B.B.B.B.B.B.B.B.B.B.B.B.B.B.    o @ 3 k F Y I # B.B.B.B.B.B.B.B.B.B.B.B.B.B.B.B.B.B.B.B.",
"B.B.B.B.B.B.B.B.B.B.B.B.B.B.B.B.    # = 3 j G ( @.-.y.f.O.$ B.B.B.B.B.B.B.B.B.B.B.B.B.B.B.B.B.B.B.B.",
"B.B.B.B.B.B.B.B.B.B.B.B.      > i l F ( %.9.t.i.a.a.i.a.{ $ B.B.B.B.B.B.B.B.B.B.B.B.B.B.B.B.B.B.B.B.",
"B.B.B.B.B.B.B.B.B.    * a x J R O.t.a.i.i.i.i.i.i.i.i.a.{ # g B.@                 B.B.B.B.B.B.B.B.B.",
"B.B.B.B.B.B.B.B.  = H ` @.>.a.a.a.i.i.i.i.i.i.i.i.i.i.a.| % Q 8.B b m m m m b z &   B.B.B.B.B.B.B.B.",
"B.B.B.B.B.B.B.B.  5 O.f.a.a.i.i.a.i.i.i.i.i.i.i.i.i.a.a.{ $ / b.l.l.l.l.l.j.j.7.q   B.B.B.B.B.B.B.B.",
"B.B.B.B.B.B.B.B.  6 O.a.i.i.i.i.i.i.i.i.i.i.i.i.i.i.i.a.{ % / M.v.v.v.v.M.<.b 2.e   B.B.B.B.B.B.B.B.",
"B.B.B.B.B.B.B.B.  6 O.a.i.i.i.i.i.i.i.i.i.i.i.i.i.i.i.a.{ # / M.v.v.v.v.M.2.V 4.e   B.B.B.B.B.B.B.B.",
"B.B.B.B.B.B.B.B.  6 O.a.i.i.i.i.i.i.i.i.i.i.i.i.i.i.i.a.{ $ / M.v.v.v.v.b.z.k.g.e   B.B.B.B.B.B.B.B.",
"B.B.B.B.B.B.B.B.  6 O.a.i.i.i.i.i.i.i.i.i.i.i.i.i.i.i.a.{ $ / M.v.v.v.v.b.6.E 5.e   B.B.B.B.B.B.B.B.",
"B.B.B.B.B.B.B.B.  6 O.a.a.i.i.i.i.i.i.i.i.i.i.i.i.i.i.a.{ $ / M.v.v.v.v.M.! : ,.r   B.B.B.B.B.B.B.B.",
"B.B.B.B.B.B.B.B.  6 O.a.i.i.i.i.i.i.i.i.i.i.i.i.i.i.i.a.{ $ / M.v.v.v.v.M.! : ,.r   B.B.B.B.B.B.B.B.",
"B.B.B.B.B.B.B.B.  6 O.a.i.i.i.i.i.i.i.i.i.i.i.i.i.i.i.a.{ $ / M.v.v.v.v.M.~ : ,.r   B.B.B.B.B.B.B.B.",
"B.B.B.B.B.B.B.B.  6 O.a.i.i.i.i.i.i.i.i.i.i.i.i.i.i.a.a.{ $ / M.v.v.v.v.M.~ : ,.r   B.B.B.B.B.B.B.B.",
"B.B.B.B.B.B.B.B.  6 O.a.i.i.i.i.i.i.i.i.i.i.i.i.i.i.i.a.{ % / M.v.v.v.v.M.~ : ,.e   B.B.B.B.B.B.B.B.",
"B.B.B.B.B.B.B.B.  5 O.a.i.i.i.i.i.i.i.i.i.i.i.i.i.i.i.a.{ # / M.v.v.v.v.M.~ : ,.r   B.B.B.B.B.B.B.B.",
"B.B.B.B.B.B.B.B.  6 O.a.i.i.i.i.i.i.i.i.i.i.i.i.i.i.i.a.| $ / b.v.v.v.v.M.~ : ,.r   B.B.B.B.B.B.B.B.",
"B.B.B.B.B.B.B.B.  6 O.a.i.i.i.i.i.i.i.i.i.i.i.i.i.i.i.a.{ $ / N.v.v.v.v.M.~ : ,.r   B.B.B.B.B.B.B.B.",
"B.B.B.B.B.B.B.B.  6 O.a.i.i.i.i.i.i.i.i.i.i.i.i.i.i.i.a.{ $ / M.v.v.v.v.M.~ : ,.r   B.B.B.B.B.B.B.B.",
"B.B.B.B.B.B.B.B.  6 O.a.i.i.i.i.i.i.i.i.i.i.i.i.i.i.i.a.{ $ / M.v.v.v.v.M.~ : ,.r   B.B.B.B.B.B.B.B.",
"B.B.B.B.B.B.B.B.  6 O.a.i.i.i.i.i.i.i.i.i.i.i.i.i.i.i.a.{ $ / M.v.v.v.v.M.~ : ,.r   B.B.B.B.B.B.B.B.",
"B.B.B.B.B.B.B.B.  6 O.a.i.i.i.i.i.i.i.i.i.i.i.i.i.i.a.a.{ $ / M.v.v.v.v.M.~ : ,.r   B.B.B.B.B.B.B.B.",
"B.B.B.B.B.B.B.B.  6 O.a.a.i.i.i.i.i.i.i.i.i.i.q.&.=.q.i.| % ^ M.v.v.v.v.M.~ : ,.r   B.B.B.B.B.B.B.B.",
"B.B.B.B.B.B.B.B.  6 O.a.i.i.i.i.i.i.i.i.i.i.9.K 6 9 L i.{ % ^ M.v.v.v.v.M.~ : ,.r   B.B.B.B.B.B.B.B.",
"B.B.B.B.B.B.B.B.  6 O.a.i.i.i.i.i.i.i.i.i.f.' u A Z u X.X.% ^ M.v.v.v.v.M.~ : ,.r   B.B.B.B.B.B.B.B.",
"B.B.B.B.B.B.B.B.  6 O.a.i.i.i.i.i.i.i.i.i.a.' 6 D D 9 ' X.# ^ M.v.v.v.v.M.~ : ,.r   B.B.B.B.B.B.B.B.",
"B.B.B.B.B.B.B.B.  6 O.a.i.i.i.i.i.i.i.i.i.i.>.c , 8 C q.| % ^ M.v.v.v.v.M.~ : ,.r   B.B.B.B.B.B.B.B.",
"B.B.B.B.B.B.B.B.  6 O.a.i.i.i.i.i.i.i.i.i.i.i.0.` ' q.a.| % ^ M.v.v.v.v.M.~ : ,.r   B.B.B.B.B.B.B.B.",
"B.B.B.B.B.B.B.B.  6 O.a.i.i.i.i.i.i.i.i.i.i.i.i.i.i.i.a.| % ^ M.v.v.b.c.M.~ : ,.r   B.B.B.B.B.B.B.B.",
"B.B.B.B.B.B.B.B.  6 O.a.i.i.i.i.i.i.i.i.i.i.i.i.i.i.i.a.| # ^ M.v.v.v.b.M.~ : ,.r   B.B.B.B.B.B.B.B.",
"B.B.B.B.B.B.B.B.B.d %.a.i.i.i.i.i.i.i.i.i.i.i.i.i.i.i.a.{ % ^ M.v.v.v.v.M.~ : ,.e   B.B.B.B.B.B.B.B.",
"B.B.B.B.B.B.B.B.B.O.q.a.i.i.i.i.i.i.i.i.i.i.i.i.i.i.i.a.{ % ^ M.v.v.v.v.M.~ : ,.r   B.B.B.B.B.B.B.B.",
"B.B.B.B.B.B.B.B.B.P >.a.i.i.i.i.i.i.i.i.i.i.i.i.i.i.i.a.{ % ^ M.v.v.v.v.M.~ : ,.r   B.B.B.B.B.B.B.B.",
"B.B.B.B.B.B.B.B.B.p @.a.i.i.i.i.i.i.i.i.i.i.i.i.i.i.i.a.| # ^ M.v.v.v.v.M.~ : ,.r   B.B.B.B.B.B.B.B.",
"B.B.B.B.B.B.B.B.B.U 0.i.i.i.i.i.i.i.i.i.i.i.i.i.i.i.i.a.| # ^ M.v.v.v.v.M.~ : ,.r   B.B.B.B.B.B.B.B.",
"B.B.B.B.B.B.B.B.B.| q.i.i.i.i.i.i.i.i.i.i.i.i.i.i.i.i.a.{ & ^ M.v.v.v.v.M.~ : ,.r   B.B.B.B.B.B.B.B.",
"B.B.B.B.B.B.B.B.B.h %.a.i.i.i.i.i.i.i.i.i.i.i.i.i.i.i.a.{ % / M.v.v.v.v.M.~ : ,.r   B.B.B.B.B.B.B.B.",
"B.B.B.B.B.B.B.B.  6 O.a.i.i.i.i.i.i.i.i.i.i.i.i.i.i.i.a.{ # ^ M.v.v.v.v.M.~ : ,.r   B.B.B.B.B.B.B.B.",
"B.B.B.B.B.B.B.B.  6 O.a.a.i.i.i.i.i.i.i.i.i.i.i.i.i.i.a.{ $ / M.v.v.b.c.M.~ : ,.r   B.B.B.B.B.B.B.B.",
"B.B.B.B.B.B.B.B.  6 O.a.i.i.i.i.i.i.i.i.i.i.i.i.i.i.i.a.{ $ / M.v.v.b.b.N.~ : ,.r   B.B.B.B.B.B.B.B.",
"B.B.B.B.B.B.B.B.  6 O.f.a.a.i.i.i.i.i.i.i.i.i.i.i.i.i.a.{ $ / b.z.l.z.l.c.E ; ) q   B.B.B.B.B.B.B.B.",
"B.B.B.B.B.B.B.B.  = H ` O.9.a.a.a.i.i.i.i.i.i.i.i.i.a.a.| % Q 8.B b m m M s @ g &   B.B.B.B.B.B.B.B.",
"B.B.B.B.B.B.B.B.B.    * d x J T O.q.f.i.i.i.i.a.i.i.i.a.{ $ g B.@                 B.B.B.B.B.B.B.B.B.",
"B.B.B.B.B.B.B.B.B.B.B.B.      > i l G T &.q.y.a.a.a.i.a.{ $ B.B.B.B.B.B.B.B.B.B.B.B.B.B.B.B.B.B.B.B.",
"B.B.B.B.B.B.B.B.B.B.B.B.B.B.B.B.    # = 3 j G ( @.-.y.a.O.# B.B.B.B.B.B.B.B.B.B.B.B.B.B.B.B.B.B.B.B.",
"B.B.B.B.B.B.B.B.B.B.B.B.B.B.B.B.B.B.B.B.      @ 3 k G Y I # B.B.B.B.B.B.B.B.B.B.B.B.B.B.B.B.B.B.B.B.",
"B.B.B.B.B.B.B.B.B.B.B.B.B.B.B.B.B.B.B.B.B.B.B.B.      $ 3   B.B.B.B.B.B.B.B.B.B.B.B.B.B.B.B.B.B.B.B.",
"B.B.B.B.B.B.B.B.B.B.B.B.B.B.B.B.B.B.B.B.B.B.B.B.B.B.B.B.    B.B.B.B.B.B.B.B.B.B.B.B.B.B.B.B.B.B.B.B."
};
