/* XPM */
static char *_630637520793[] = {
/* columns rows colors chars-per-pixel */
"60 60 127 2 ",
"   c #3F6674",
".  c #4D5A65",
"X  c #4F5C67",
"o  c #56636E",
"O  c #5C636D",
"+  c #5D636D",
"@  c #5C646F",
"#  c #5D656F",
"$  c #436673",
"%  c #466573",
"&  c #4A6A78",
"*  c #4D6E7C",
"=  c #5D6570",
"-  c #5E6670",
";  c #CF2D2D",
":  c #CF2E2D",
">  c #D1302F",
",  c #D2302F",
"<  c #D2312F",
"1  c #D33230",
"2  c #D43330",
"3  c #D43331",
"4  c #D43332",
"5  c #D43431",
"6  c #D53432",
"7  c #D53533",
"8  c #D63533",
"9  c #D73633",
"0  c #D73634",
"q  c #D73734",
"w  c #DA3936",
"e  c #DB3A37",
"r  c #DB3B37",
"t  c #DF3F3B",
"y  c #E0403B",
"u  c #E0413C",
"i  c #E1413C",
"p  c #E2413D",
"a  c #E3433E",
"s  c #E3443E",
"d  c #E3453E",
"f  c #E3453F",
"g  c #E4453E",
"h  c #E4453F",
"j  c #BA5856",
"k  c #BC5958",
"l  c #C55653",
"z  c #C05754",
"x  c #E44640",
"c  c #E54740",
"v  c #E64741",
"b  c #E64841",
"n  c #E64842",
"m  c #E74942",
"M  c #E84A43",
"N  c #E94B43",
"B  c #E94C44",
"V  c #EB4D45",
"C  c #EC4F46",
"Z  c #ED5047",
"A  c #ED5048",
"S  c #EE5048",
"D  c #EE5148",
"F  c #EF5148",
"G  c #EE5149",
"H  c #EF5149",
"J  c #EC5249",
"K  c #EE5248",
"L  c #EF5248",
"P  c #EE5249",
"I  c #EF5249",
"U  c #F55147",
"Y  c #F75046",
"T  c #FC5045",
"R  c #FD5045",
"E  c #FE5147",
"W  c #F05249",
"Q  c #F15249",
"!  c #F05349",
"~  c #F0534A",
"^  c #F2534A",
"/  c #F3534A",
"(  c #F4534A",
")  c #F0544A",
"_  c #F1544A",
"`  c #F1544B",
"'  c #F1554B",
"]  c #F5544A",
"[  c #F2564C",
"{  c #F3574D",
"}  c #F8554C",
"|  c #FA554C",
" . c #FB564C",
".. c #FD564D",
"X. c #FD574D",
"o. c #FF574E",
"O. c #FF584E",
"+. c #FF594F",
"@. c #FF5950",
"#. c #FF5A50",
"$. c #FF5B51",
"%. c #FF5C52",
"&. c #657481",
"*. c #697885",
"=. c #8A98A2",
"-. c #8D9BA4",
";. c #8F9DA6",
":. c #92A1AA",
">. c #A9B8C0",
",. c #AAB9C1",
"<. c #ABB9C1",
"1. c #AABAC1",
"2. c #ABBAC1",
"3. c #ABB9C2",
"4. c #ABBAC2",
"5. c #ABBAC3",
"6. c #ADBCC5",
"7. c #AEBDC6",
"8. c #B0BFC7",
"9. c #B0C0C8",
"0. c #B2C1C9",
"q. c #B2C1CA",
"w. c #B2C2CA",
"e. c #B3C2CA",
"r. c #B4C4CB",
"t. c #BACAD2",
"y. c None",
/* pixels */
"y.y.y.y.y.y.y.y.y.y.y.y.y.y.y.y.y.y.y.y.y.y.y.y.y.y.y.y.y.y.y.y.y.y.y.y.y.y.y.y.y.y.y.y.y.y.y.y.y.y.y.y.y.y.y.y.y.y.y.y.",
"y.y.y.y.y.y.y.y.y.y.y.y.y.y.y.y.y.y.y.y.y.y.y.y.y.y.y.y.y.y.y.y.y.y.y.y.y.y.y.y.y.y.y.y.y.y.y.y.y.y.y.y.y.y.y.y.y.y.y.y.",
"y.y.y.y.y.y.y.y.y.y.y.y.y.y.y.y.y.y.y.y.y.y.y.y.y.y.y.y.y.y.y.y.y.y.y.y.y.y.y.y.y.y.y.y.y.y.y.y.y.y.y.y.y.y.y.y.y.y.y.y.",
"y.y.y.y.y.y.y.y.y.y.y.y.y.y.y.y.y.y.2.2.y.y.y.y.y.y.y.y.y.y.y.y.y.y.y.y.y.y.y.y.y.y.y.y.y.y.y.y.y.y.y.y.y.y.y.y.y.y.y.y.",
"y.y.y.y.y.y.y.y.y.y.y.y.y.y.y.y.y.2.8.7.5.y.y.y.y.y.y.y.y.y.y.y.y.y.y.y.y.y.y.y.y.y.y.y.y.y.y.y.y.y.y.y.y.y.y.y.y.y.y.y.",
"y.y.y.y.y.y.y.y.y.y.y.y.y.y.y.y.y.2.q.2.7.2.y.y.y.y.y.y.y.y.y.y.y.y.y.y.y.y.y.y.y.y.y.y.y.y.y.y.y.y.y.y.y.y.y.y.y.y.y.y.",
"y.y.y.y.y.y.y.y.y.y.y.y.y.y.y.y.y.y.2.8.2.7.5.y.y.y.y.y.y.y.y.y.y.y.y.y.y.y.y.y.y.y.y.y.y.y.y.y.y.y.y.y.y.y.y.y.y.y.y.y.",
"y.y.y.y.y.y.y.y.y.y.y.y.y.y.y.y.y.y.y.2.7.5.8.5.y.y.y.y.y.y.y.y.y.y.y.y.y.y.y.y.y.y.y.y.y.y.y.y.y.y.y.y.y.y.y.y.y.y.y.y.",
"y.y.y.y.y.y.y.y.y.y.y.y.y.y.y.y.y.y.y.y.6.6.6.5.y.y.y.y.y.y.y.y.y.y.y.y.y.y.y.y.y.y.y.y.y.y.y.y.y.y.y.y.y.y.y.y.y.y.y.y.",
"y.y.y.y.y.y.y.y.y.y.y.y.y.y.y.y.y.y.y.y.>.0.6.5.y.y.y.y.y.y.y.y.y.y.y.y.y.y.y.y.y.y.y.y.y.y.y.y.y.y.y.y.y.y.y.y.y.y.y.y.",
"y.y.y.y.y.y.y.y.y.y.y.y.y.y.y.y.y.y.y.y.2.w.6.5.y.y.y.y.y.y.y.y.y.y.y.y.y.y.y.y.y.y.y.y.y.y.y.y.y.y.y.y.y.y.y.y.y.y.y.y.",
"y.y.y.y.y.y.y.y.y.y.y.y.y.y.y.y.y.y.y.y.>.0.5.>.y.y.y.y.y.y.y.y.y.y.y.y.y.y.y.y.y.y.y.y.y.y.y.y.y.y.y.y.y.y.y.y.y.y.y.y.",
"y.y.y.y.y.y.y.y.y.y.y.y.y.y.y.y.y.y.y.y.e.t.r.0.y.y.y.y.y.y.y.y.y.y.y.y.y.y.y.y.y.y.y.y.y.y.y.y.y.y.y.y.y.y.y.y.y.y.y.y.",
"y.y.y.y.y.y.y.y.y.y.y.y.y.y.y.y.y.y.y.y.=.:.;.-.y.y.y.y.y.y.y.y.y.y.y.y.y.y.y.y.y.y.y.y.y.y.y.y.y.y.y.y.y.y.y.y.y.y.y.y.",
"y.y.y.y.y.y.y.y.y.y.y.y.y.y.y.y.y.y.o *.X X . . &.o y.y.y.y.y.( #.#.#.#.#.#.#.#.#.#.#.#.~ Q y.y.y.y.y.y.y.y.y.y.y.y.y.y.",
"y.y.y.y.y.y.y.y.y.y.y.y.y.y.y.y.y.y.@ - @ = = = @ O y.y.y.y.I Q I I I I I I I I I I I I I #.I y.y.y.y.y.y.y.y.y.y.y.y.y.",
"y.y.y.y.y.y.y.y.y.y.y.y.y.y.y.y.y.y.$ * % % % % & % y.y.y.I ! Q ! #.#.#.#.#.#.#.#.#.%...I I ~ y.y.y.y.y.y.y.y.y.y.y.y.y.",
"y.y.y.y.y.y.y.y.y.y.y.y.y.y.y.y.J Y l k j j j j k k U I I ] I } I y.y.y.y.y.y.y.y.y.y.Q o.I #.y.y.y.y.y.y.y.y.y.y.y.y.y.",
"y.y.y.y.y.y.y.y.y.y.y.y.y.y.I } +.+.E Y Y R R Y R R +.+.! Z } Z y.y.y.y.y.y.y.y.y.y.y.y.#.I #.y.y.y.y.y.y.y.y.y.y.y.y.y.",
"y.y.y.y.y.y.y.y.y.y.y.y.y.Q ] Z I W ! J J J I I Z K I J I ] Q y.y.y.y.y.y.y.y.y.y.y.y.y.#.I #.y.y.y.y.y.y.y.y.y.y.y.y.y.",
"y.y.y.y.y.y.y.y.y.y.y.y.I ( I I I I I I I I I I I I I I Q #.I y.y.y.y.y.y.y.y.y.y.y.y.y.#.I #.y.y.y.y.y.y.y.y.y.y.y.y.y.",
"y.y.y.y.y.y.y.y.y.y.y.y.+.I I I I I I I I I I Q I I I I I +.y.y.y.y.y.y.y.y.y.y.y.y.y.y.#.I #.y.y.y.y.y.y.y.y.y.y.y.y.y.",
"y.y.y.y.y.y.y.y.y.y.y.y.+.I I I I I I I I I I ! I I I I I Q I Z Q I I I I I I I I Q I Q I I #.y.y.y.y.y.y.y.y.y.y.y.y.y.",
"y.y.y.y.y.y.y.y.y.y.y.y.+.I I I Z I Z I I I Z J I I I I I Q ! ] Q ] Q ( ] Q ] ] ~ ] ( Q I I #.y.y.y.y.y.y.y.y.y.y.y.y.y.",
"y.y.y.y.y.y.y.y.y.y.y.y.+.I I I I Z I I I I I I I I I I I I I I I I I I I I I Z I I I I I Z #.y.y.y.y.y.y.y.y.y.y.y.y.y.",
"y.y.y.y.y.y.y.y.y.y.y.y.+.I I I I I I I I Z I I I I I I I I I I I I I I I C I I Z I Z I I I #.y.y.y.y.y.y.y.y.y.y.y.y.y.",
"y.y.y.y.y.y.y.y.y.y.y.y.+.I I Z Z I s x I I I I I I I I I I I I I I C I I Z I n u A I Z I I #.y.y.y.y.y.y.y.y.y.y.y.y.y.",
"y.y.y.y.y.y.y.y.y.y.y.y.+.I I I I B 0 1 s I I I I I I I I I I I I I I I I I v 1 3 B I I I Z #.y.y.y.y.y.y.y.y.y.y.y.y.y.",
"y.y.y.y.y.y.y.y.y.y.y.y.+.I I Z I I v 5 3 h Q I Z I I I I I I I I I C I I v 5 5 h I I C I Z #.y.y.y.y.y.y.y.y.y.y.y.y.y.",
"y.y.y.y.y.y.y.y.y.y.y.y.+.I I I I Z I n 0 5 s Q I I Z I Z I I Z I I I I v 0 5 s Q I I I I I #.y.y.y.y.y.y.y.y.y.y.y.y.y.",
"y.y.y.y.y.y.y.y.y.y.y.y.+.I I I I I I I n 5 5 s J ! ! { { J ! ! [ ! ~ v 0 1 s ! Z I I I I Z #.y.y.y.y.y.y.y.y.y.y.y.y.y.",
"y.y.y.y.y.y.y.y.y.y.y.y.+.I I I Z I I I Q v 5 5 y s u u u u u s u u u 0 5 s I Z I I Z I I I #.y.y.y.y.y.y.y.y.y.y.y.y.y.",
"y.y.y.y.y.y.y.y.y.y.y.y.+.I I I I Z I Z I I n 3 > : : : : : : : : : : 3 s I I I I Z I I I I +.y.y.y.y.y.y.y.y.y.y.y.y.y.",
"y.y.y.y.y.y.y.y.y.y.y.y.+.I I I I I I I Z I I 3 9 N n N N B N N n B w 1 I I Z I I I I I I Z #.y.y.y.y.y.y.y.y.y.y.y.y.y.",
"y.y.y.y.y.y.y.y.y.y.y.y.+.I I I I I I I I I I 3 0 [ Q ! I J J I ! { e : Z Q I I I I I I I Z #.y.y.y.y.y.y.y.y.y.y.y.y.y.",
"y.y.y.y.y.y.y.y.y.y.y.y.+.I I I I I I I Z I Z 5 0 I I I I I Q I I Q e 1 B I I I I I I I I I #.y.y.y.y.y.y.y.y.y.y.y.y.y.",
"y.y.y.y.y.y.y.y.y.y.y.y.+.I I I I I I I I I I 5 0 I C I I I I I I ~ r > B Q I I I I I I I Z #.y.y.y.y.y.y.y.y.y.y.y.y.y.",
"y.y.y.y.y.y.y.y.y.y.y.y.+.I I I I I I I Z I Z 5 0 ! I I I I I I I ~ r > J I I I I I I I I I #.y.y.y.y.y.y.y.y.y.y.y.y.y.",
"y.y.y.y.y.y.y.y.y.y.y.y.+.I I I I I I I I I Z 5 0 [ I I I I I I I ~ r > B I I I I I I I I Z #.y.y.y.y.y.y.y.y.y.y.y.y.y.",
"y.y.y.y.y.y.y.y.y.y.y.y.+.I I I I I I I Z I Z 4 0 ! A I I I I I I I r 1 I I I I I I I I I I #.y.y.y.y.y.y.y.y.y.y.y.y.y.",
"y.y.y.y.y.y.y.y.y.y.y.y.+.I I I I I I I I I Z 4 q ! Z Q I ! I Q I ! r > Z I I I I I I I I Z #.y.y.y.y.y.y.y.y.y.y.y.y.y.",
"y.y.y.y.y.y.y.y.y.y.y.y.+.I I I I I I I Z I I 4 0 { ! J ! ! J J ! { r > Z I I I I I I I I I #.y.y.y.y.y.y.y.y.y.y.y.y.y.",
"y.y.y.y.y.y.y.y.y.y.y.y.+.I I I I I I I I I I 4 5 B n N N n n B N B w > Z I Z I I I I I I Z #.y.y.y.y.y.y.y.y.y.y.y.y.y.",
"y.y.y.y.y.y.y.y.y.y.y.y.+.I I I I C I I Z I v 1 3 : : : : > : > : : > > s I I I I Z I I I I #.y.y.y.y.y.y.y.y.y.y.y.y.y.",
"y.y.y.y.y.y.y.y.y.y.y.y.+.I I I I I I I I v 5 5 t u u u u u u u u u u 5 1 h Q Q I I Z I I Z #.y.y.y.y.y.y.y.y.y.y.y.y.y.",
"y.y.y.y.y.y.y.y.y.y.y.y.+.I I I Z I C I n 0 5 s Q ! [ [ [ ! [ ! ! [ [ v 0 3 s J Z Z I I I I #.y.y.y.y.y.y.y.y.y.y.y.y.y.",
"y.y.y.y.y.y.y.y.y.y.y.y.+.I I I I I Q v 5 5 s ! I Z I Z I Z Z I C I I I n 5 5 s J Q I I I Z #.y.y.y.y.y.y.y.y.y.y.y.y.y.",
"y.y.y.y.y.y.y.y.y.y.y.y.+.I I Z I Q v 5 3 v I I Z I I Q I I I I I I A I Q n 5 5 s I Z I I I #.y.y.y.y.y.y.y.y.y.y.y.y.y.",
"y.y.y.y.y.y.y.y.y.y.y.y.+.I I I I B q 1 x I I I I Z J I I I I I I I I I C I v 1 5 N I I I C #.y.y.y.y.y.y.y.y.y.y.y.y.y.",
"y.y.y.y.y.y.y.y.y.y.y.y.+.I I Z Z I s s I I Z I I I ! Q I I I I I I I Q I I I n u I I I I I #.y.y.y.y.y.y.y.y.y.y.y.y.y.",
"y.y.y.y.y.y.y.y.y.y.y.y.+.I I I I I I I I I I I I I I I I I I I I I I C Q Z I I Z I Z I I I #.y.y.y.y.y.y.y.y.y.y.y.y.y.",
"y.y.y.y.y.y.y.y.y.y.y.y.+.I I I I Z I I Z I I I I I I I I I I I I I I I I I I Z I I Q I I I #.y.y.y.y.y.y.y.y.y.y.y.y.y.",
"y.y.y.y.y.y.y.y.y.y.y.y.#.I I I I I Z Z I I I I I I I I I I I I I I I I I I I Z Z ! I ! I I #.y.y.y.y.y.y.y.y.y.y.y.y.y.",
"y.y.y.y.y.y.y.y.y.y.y.y.} Z I Z I I ! I I I I I Q ! I I I I I I I I I I I I I I ! Z Z J I Q ..y.y.y.y.y.y.y.y.y.y.y.y.y.",
"y.y.y.y.y.y.y.y.y.y.y.y.Q } I I I I Z Q I Z I I W Z I Z I I I I I I Z I Q Z I I Q I I I I } I y.y.y.y.y.y.y.y.y.y.y.y.y.",
"y.y.y.y.y.y.y.y.y.y.y.y.y.Q Q ..} +.+.} +.+.....X.} +.+.....+... .+.+. .+.+.} +.} +.....Q I y.y.y.y.y.y.y.y.y.y.y.y.y.y.",
"y.y.y.y.y.y.y.y.y.y.y.y.y.y.I I Q I I I I I I I I I I I I I I I Z Q I I I I I I I I I I I y.y.y.y.y.y.y.y.y.y.y.y.y.y.y.",
"y.y.y.y.y.y.y.y.y.y.y.y.y.y.y.y.y.y.y.y.y.y.y.y.y.y.y.y.y.y.y.y.y.y.y.y.y.y.y.y.y.y.y.y.y.y.y.y.y.y.y.y.y.y.y.y.y.y.y.y.",
"y.y.y.y.y.y.y.y.y.y.y.y.y.y.y.y.y.y.y.y.y.y.y.y.y.y.y.y.y.y.y.y.y.y.y.y.y.y.y.y.y.y.y.y.y.y.y.y.y.y.y.y.y.y.y.y.y.y.y.y.",
"y.y.y.y.y.y.y.y.y.y.y.y.y.y.y.y.y.y.y.y.y.y.y.y.y.y.y.y.y.y.y.y.y.y.y.y.y.y.y.y.y.y.y.y.y.y.y.y.y.y.y.y.y.y.y.y.y.y.y.y."
};
