/* XPM */
static char *_630541416483[] = {
/* columns rows colors chars-per-pixel */
"50 50 159 2 ",
"   c #000000",
".  c #070708",
"X  c #090708",
"o  c #0C0A0B",
"O  c #120C0D",
"+  c #0C0E10",
"@  c #150E10",
"#  c #0F1112",
"$  c #141516",
"%  c #1A1114",
"&  c #171718",
"*  c #161819",
"=  c #1B1C1D",
"-  c #23161A",
";  c #261A1D",
":  c #281C1F",
">  c #1E1F20",
",  c #2B1D21",
"<  c #1F2121",
"1  c #1F2529",
"2  c #242526",
"3  c #2E2023",
"4  c #20262A",
"5  c #272929",
"6  c #2B2D2D",
"7  c #322327",
"8  c #3C2A2E",
"9  c #38252C",
"0  c #2D2F30",
"q  c #3F2B31",
"w  c #293236",
"e  c #2D353A",
"r  c #323436",
"t  c #393C3D",
"y  c #402D31",
"u  c #472F38",
"i  c #4C343B",
"p  c #473438",
"a  c #503A3E",
"s  c #323B41",
"d  c #3D3F40",
"f  c #543B40",
"g  c #5E3F4A",
"h  c #5A3E46",
"j  c #3E4143",
"k  c #424546",
"l  c #47494A",
"z  c #494C4D",
"x  c #52444B",
"c  c #4C4F51",
"v  c #56595A",
"b  c #61414C",
"n  c #6C4C55",
"m  c #674551",
"M  c #76555C",
"N  c #7A575F",
"B  c #4D5B64",
"V  c #5B5E60",
"C  c #7A5461",
"Z  c #5C6061",
"A  c #5A6B74",
"S  c #5F707B",
"D  c #616466",
"F  c #61676A",
"G  c #63686B",
"H  c #696C6E",
"J  c #6C6F71",
"K  c #6D7274",
"L  c #60727D",
"P  c #717476",
"I  c #777A7C",
"U  c #797C7E",
"Y  c #815766",
"T  c #835E66",
"R  c #876169",
"E  c #8C656D",
"W  c #946B74",
"Q  c #986B77",
"!  c #9C717A",
"~  c #A06D7E",
"^  c #797E81",
"/  c #A26E80",
"(  c #A67482",
")  c #AA7586",
"_  c #A77882",
"`  c #AB7B85",
"'  c #AE7789",
"]  c #B17D8B",
"[  c #7D8183",
"{  c #7A8589",
"}  c #818587",
"|  c #85898B",
" . c #838789",
".. c #8B8E91",
"X. c #8D9295",
"o. c #8F979C",
"O. c #939799",
"+. c #95999C",
"@. c #999D9F",
"#. c #B4828D",
"$. c #B98591",
"%. c #BE8994",
"&. c #9A9EA1",
"*. c #97A0A6",
"=. c #9CA0A3",
"-. c #9DACB4",
";. c #A2A6A9",
":. c #A5AAAC",
">. c #A0A4A7",
",. c #AAAFB2",
"<. c #ACB1B4",
"1. c #B2B7BA",
"2. c #C7889D",
"3. c #C6879D",
"4. c #C7909C",
"5. c #CA929E",
"6. c #CC8CA1",
"7. c #D28FA6",
"8. c #D396A5",
"9. c #D599A6",
"0. c #D89CA8",
"q. c #E19BB1",
"w. c #E5A3B3",
"e. c #E9A8B6",
"r. c #EDA5BB",
"t. c #EEABB9",
"y. c #B9BEC1",
"u. c #D7BBC8",
"i. c #F5ABC1",
"p. c #FCAEC6",
"a. c #F7B2C1",
"s. c #FBB5C4",
"d. c #FFB8C7",
"f. c #FFB4CA",
"g. c #FFBACA",
"h. c #BDC2C5",
"j. c #BFC7CC",
"k. c #C1C6C9",
"l. c #C6CBCE",
"z. c #C6CDD2",
"x. c #C8CDD0",
"c. c #CBD2D6",
"v. c #C5D2D9",
"b. c #C8D5DC",
"n. c #D2D7DB",
"m. c #D3D9DC",
"M. c #D7DDE0",
"N. c #DADFE3",
"B. c #DCE2E5",
"V. c #DFE4E8",
"C. c #E1E6EA",
"Z. c #E3E9EE",
"A. c #E6ECF0",
"S. c #E9EEF2",
"D. c #E7F1F7",
"F. c #EDF3F7",
"G. c #EEF5F9",
"H. c #F0F6FB",
"J. c None",
/* pixels */
"J.J.J.J.J.J.J.J.J.J.J.J.                . .         . . .                   J.J.J.J.J.J.J.J.J.J.J.J.",
"J.J.J.J.J.J.J.J.J.J.J.  $ e s s s s s s s e s s s s s s s s s s s s s s e $   J.J.J.J.J.J.J.J.J.J.J.",
"J.J.J.J.J.J.J.J.J.J.  + B S L S L L L L A A A ^ ^ ^ A B A A ^ ^ ^ S S S S B +   J.J.J.J.J.J.J.J.J.J.",
"J.J.J.J.J.J.J.J.J.J.  4 S S S S S S S S ^ A ^ S ^ A A ^ A ^ B ^ S S S S S S 1   J.J.J.J.J.J.J.J.J.J.",
"J.J.J.J.J.J.J.J.J.J.  4 A A A A A A A A A A A A A A B ^ A A A A A A A A A A 4   J.J.J.J.J.J.J.J.J.J.",
"J.J.J.J.J.J.J.J.J.J.  # e w w w w w w w w w w w w w w w w w w w w w w w w e #   J.J.J.J.J.J.J.J.J.J.",
"J.J.J.J.J.J.J.J.J.J.      # $ $ $ $ $ * $ $ * $ * # # * * * * * $ $ * $ #       J.J.J.J.J.J.J.J.J.J.",
"J.J.J.J.J.J.J.J.J.J.J.J.. { -.-.-.-.-.-.-.-.-.-.-.-.-.-.-.-.-.-.-.-.-.-.{ . J.J.J.J.J.J.J.J.J.J.J.J.",
"J.J.J.J.J.J.J.J.J.J.J.J.. *.b.b.v.c.v.v.v.v.v.v.v.v.v.v.v.v.v.v.v.v.v.b.*.X J.J.J.J.J.J.J.J.J.J.J.J.",
"J.J.J.J.J.J.J.J.J.J.J.J.. c G G F D A X.v.O.F F B ^ G A G G F G G G G G c . J.J.J.J.J.J.J.J.J.J.J.J.",
"J.J.J.J.J.J.J.J.J.J.J.  O = = = > > = D N.J = = * 1 > > - > > > = = = = = O   J.J.J.J.J.J.J.J.J.J.J.",
"J.J.J.J.J.J.J.J.J.J.  2 <.m.m.n.n.n.n.C.F.Z.n.n.b.b.b.b.b.n.n.n.n.m.m.m.m.<.2   J.J.J.J.J.J.J.J.J.J.",
"J.J.J.J.J.J.J.J.J.  $ <.H.G.H.G.F.G.G.G.F.F.H.F.G.G.G.G.G.G.G.G.H.G.H.G.G.H.<.$   J.J.J.J.J.J.J.J.J.",
"J.J.J.J.J.J.J.J.J.  P G.F.F.F.F.F.H.H.H.H.H.H.H.F.F.G.F.F.F.F.F.F.F.F.F.F.F.F.P   J.J.J.J.J.J.J.J.J.",
"J.J.J.J.J.J.J.J.  & x.H.F.F.F.F.Z.,.&.k.M.;.&.c.G.F.F.F.F.F.G.F.F.F.F.F.F.F.H.l.&   J.J.J.J.J.J.J.J.",
"J.J.J.J.J.J.J.J.  l S.F.F.F.G.V.v X o & 4 o o , y.G.F.F.F.F.F.F.F.F.F.F.F.F.F.S.z   J.J.J.J.J.J.J.J.",
"J.J.J.J.J.J.J.J.  H G.F.F.F.H.@.o T 5.f % _ $., k Z.G.F.F.F.F.F.F.F.F.F.F.F.F.G.H   J.J.J.J.J.J.J.J.",
"J.J.J.J.J.J.J.J.  I H.F.F.G.H.K - e.g.w.5.d.g.M 2 m.G.F.F.F.F.F.F.F.F.F.F.F.F.G.I   J.J.J.J.J.J.J.J.",
"J.J.J.J.J.J.J.J.  I H.F.F.F.H.[ @ 8.g.g.g.d.f.h 6 B.G.G.F.F.F.F.F.F.F.F.F.G.F.H.I   J.J.J.J.J.J.J.J.",
"J.J.J.J.J.J.J.J.  I H.F.F.F.H.h.$ b i.g.d.f.] o P G.G.G.F.G.F.F.F.G.F.F.F.F.F.H.I   J.J.J.J.J.J.J.J.",
"J.J.J.J.J.J.J.J.  I H.F.F.F.F.F.} X n r.p.' % t m.H.F.F.G.H.H.G.G.H.H.G.F.G.G.G.I   J.J.J.J.J.J.J.J.",
"J.J.J.J.J.J.J.J.  I H.F.F.F.F.G.A.^ o q m o d x.H.F.G.S.k.:.h.Z.B.<.<.n.G.F.G.H.I   J.J.J.J.J.J.J.J.",
"J.J.J.J.J.J.J.J.  I H.F.F.F.F.F.G.F.>.r $ J N.F.F.F.Z.P $ X # l r o X 2 >.G.G.H.I   J.J.J.J.J.J.J.J.",
"J.J.J.J.J.J.J.J.  I H.F.F.F.F.F.F.F.H.m.x.S.H.F.F.H.=.X n %.T . ; _ #.8 2 c.G.H.I   J.J.J.J.J.J.J.J.",
"J.J.J.J.J.J.J.J.  I H.F.F.F.F.F.F.F.F.G.G.F.F.F.F.F.v 3 t.g.d.W $.g.g.%.o =.H.H.I   J.J.J.J.J.J.J.J.",
"J.J.J.J.J.J.J.J.  I H.F.F.F.F.F.G.F.F.G.G.F.F.F.F.S.z y t.g.d.g.d.d.g.9.o X.H.H.I   J.J.J.J.J.J.J.J.",
"J.J.J.J.J.J.J.J.$ >.G.F.F.F.G.S.Z.F.H.Z.Z.G.G.F.F.H.P @ 0.g.d.d.f.d.g.Q # 1.H.H.I   J.J.J.J.J.J.J.J.",
"J.J.J.J.J.J.J.J.J.F.G.F.F.F.<.z r H } k t } C.F.F.H.k.$ x t.g.d.g.g.7.; k C.G.G.I   J.J.J.J.J.J.J.J.",
"J.J.J.J.J.J.J.J.6 1.G.G.H.h.& , a O   y p X [ G.F.F.F.| o n r.f.f.8.9 > y.H.F.H.I   J.J.J.J.J.J.J.J.",
"J.J.J.J.J.J.J.J.  I H.G.H.I % 8.d.! n t.s.f 0 C.F.F.F.S.U O u 3./ - > ,.H.F.F.H.I   J.J.J.J.J.J.J.J.",
"J.J.J.J.J.J.J.J.  I G.F.G.H ; e.g.d.s.d.g.n 2 N.H.F.F.F.S.@.2 o X k h.H.F.F.F.H.I   J.J.J.J.J.J.J.J.",
"J.J.J.J.J.J.J.J.  I G.G.H.+.X ` g.d.d.g.q., z S.F.F.F.F.H.H.x.P X.C.H.F.F.F.F.H.I   J.J.J.J.J.J.J.J.",
"J.J.J.J.J.J.J.J.  I H.F.H.N.t - 5.d.g.r.b @ ,.G.F.F.F.F.F.F.G.G.G.G.F.F.F.F.F.H.I   J.J.J.J.J.J.J.J.",
"J.J.J.J.J.J.J.J.  I H.F.F.H.y.5 ; ~ 6.i o  .F.F.F.F.F.F.G.G.G.F.G.F.F.F.F.F.F.G.I   J.J.J.J.J.J.J.J.",
"J.J.J.J.J.J.J.J.  I H.F.F.F.H.k.j o O < O.F.F.F.G.H.H.H.G.G.G.G.H.H.G.G.G.F.G.H.I   J.J.J.J.J.J.J.J.",
"J.J.J.J.J.J.J.J.  I H.F.F.F.F.H.B. .H k.G.G.F.G.c.=...:.m.G.S.h.O.X.1.C.G.F.F.H.I   J.J.J.J.J.J.J.J.",
"J.J.J.J.J.J.J.J.  I H.F.F.F.F.F.G.G.G.H.F.F.S.X.< o O X 6 @.G $ O O o l x.H.G.G.I   J.J.J.J.J.J.J.J.",
"J.J.J.J.J.J.J.J.  I H.F.F.F.F.F.F.F.H.H.G.H.=.o f %.9.#.8 . o N 5.8.W % d B.G.H.I   J.J.J.J.J.J.J.J.",
"J.J.J.J.J.J.J.J.  I H.F.F.F.F.F.H.C.1.>.l.C.t 8 t.g.g.g.9.; M d.g.g.g.` o +.H.H.I   J.J.J.J.J.J.J.J.",
"J.J.J.J.J.J.J.J.  I H.F.F.F.F.H.c.l o o & v # E g.g.g.d.d.0.t.d.d.d.g.t., Z G.H.I   J.J.J.J.J.J.J.J.",
"J.J.J.J.J.J.J.J.  I H.F.F.F.F.Z.z @ Q %.n .   #.g.d.d.d.d.g.d.d.d.d.d.s.y z F.H.U   J.J.J.J.J.J.J.J.",
"J.J.J.J.J.J.J.J.  I H.F.F.H.H.y.# E g.g.d.n   W g.d.d.d.d.d.d.d.d.d.d.t.7 v F.H.I   J.J.J.J.J.J.J.J.",
"J.J.J.J.J.J.J.J.  I H.F.H.m.P 6   ` g.d.g.5.o i a.g.d.d.d.d.d.d.d.d.g.#.o O.H.H.I   J.J.J.J.J.J.J.J.",
"J.J.J.J.J.J.J.J.  I H.H.m.t O i p #.g.d.g.e.: . ) g.d.d.d.d.d.d.d.d.f.N 0 m.G.H.I   J.J.J.J.J.J.J.J.",
"J.J.J.J.J.J.J.J.  I H.G.[ O ` d.s.s.d.d.g.t.7   ; 2.g.g.g.d.d.d.g.s.i.u.x.G.F.H.I   J.J.J.J.J.J.J.J.",
"J.J.J.J.J.J.J.J.  ^ H.F.z 8 t.d.d.d.d.d.g.e., j 5 , 2.f.f.g.d.g.i.Y h C.G.F.F.H.U   J.J.J.J.J.J.J.J.",
"J.J.J.J.J.J.J.J.  K G.G.Z - w.g.g.f.f.f.g.9.@ ..y.5 % ( p.g.f.q.b . H A.G.F.F.H.K   J.J.J.J.J.J.J.J.",
"J.J.J.J.J.J.J.J.  r v.G.<.$ b q.p.f.f.f.p.! + <.H.j.k O m 7.) 7 $ { Z.D.D.D.D.v.r   J.J.J.J.J.J.J.J.",
"J.J.J.J.J.J.J.J.J.  r K I 5   , b Y Y n i % o F ^ ^ F *   % X   j ^ ^ ^ I ^ K w   J.J.J.J.J.J.J.J.J.",
"J.J.J.J.J.J.J.J.J.J.                                                            J.J.J.J.J.J.J.J.J.J."
};
