/* XPM */
static char *lava_ground_cracked_4__1_[] = {
/* columns rows colors chars-per-pixel */
"80 80 190 2 ",
"   c None",
".  c black",
"X  c #030000",
"o  c #070000",
"O  c #0A0000",
"+  c #0E0100",
"@  c #120000",
"#  c #120100",
"$  c #130100",
"%  c #170200",
"&  c #190400",
"*  c #1A0400",
"=  c #1C0400",
"-  c #1D0400",
";  c #1F0500",
":  c #200500",
">  c #200600",
",  c #220600",
"<  c #220700",
"1  c #240500",
"2  c #260500",
"3  c #240700",
"4  c #280700",
"5  c #280800",
"6  c #280900",
"7  c #290901",
"8  c #2A0901",
"9  c #2A0A01",
"0  c #2D0900",
"q  c #2D0A01",
"w  c #2F0A00",
"e  c #310A00",
"r  c #310B01",
"t  c #330B01",
"y  c #350A00",
"u  c #320C01",
"i  c #360C01",
"p  c #370C01",
"a  c #370D02",
"s  c #360E02",
"d  c #380D01",
"f  c #3B0D01",
"g  c #390F03",
"h  c #3E0E01",
"j  c #3D0E02",
"k  c #3A1003",
"l  c #3C1104",
"z  c #3E1104",
"x  c #410F02",
"c  c #460F01",
"v  c #401002",
"b  c #431103",
"n  c #431203",
"m  c #451103",
"M  c #441203",
"N  c #461202",
"B  c #401204",
"V  c #421304",
"C  c #431304",
"Z  c #451304",
"A  c #471304",
"S  c #441404",
"D  c #461404",
"F  c #4B1101",
"G  c #481102",
"H  c #4A1102",
"J  c #4B1202",
"K  c #4F1303",
"L  c #491403",
"P  c #4C1403",
"I  c #4D1403",
"U  c #4E1403",
"Y  c #4B1706",
"T  c #4C1404",
"R  c #4D1504",
"E  c #4D1605",
"W  c #4E1605",
"Q  c #4F1605",
"!  c #511503",
"~  c #531503",
"^  c #561503",
"/  c #561603",
"(  c #501604",
")  c #511604",
"_  c #501705",
"`  c #551604",
"'  c #5B1703",
"]  c #591704",
"[  c #5A1704",
"{  c #521805",
"}  c #541805",
"|  c #561805",
" . c #571805",
".. c #551906",
"X. c #591804",
"o. c #581805",
"O. c #5A1804",
"+. c #5A1805",
"@. c #5A1905",
"#. c #591A06",
"$. c #591B06",
"%. c #591B07",
"&. c #5A1A06",
"*. c #5C1804",
"=. c #5D1904",
"-. c #5D1905",
";. c #5F1904",
":. c #5C1B06",
">. c #5D1B06",
",. c #5E1B06",
"<. c #5D1C07",
"1. c #5A1D08",
"2. c #5D1E08",
"3. c #621A05",
"4. c #601B06",
"5. c #641A04",
"6. c #601C06",
"7. c #611D07",
"8. c #651C06",
"9. c #651D06",
"0. c #671D06",
"q. c #641E07",
"w. c #661E07",
"e. c #6A1D05",
"r. c #681D06",
"t. c #691D06",
"y. c #691E06",
"u. c #6B1E06",
"i. c #6B1F06",
"p. c #6D1F07",
"a. c #631F08",
"s. c #641F08",
"d. c #701F06",
"f. c #6B2007",
"g. c #6C2007",
"h. c #662008",
"j. c #6D2108",
"k. c #6E2309",
"l. c #702007",
"z. c #712007",
"x. c #732006",
"c. c #722007",
"v. c #732207",
"b. c #762107",
"n. c #792307",
"m. c #7B2206",
"M. c #7B2207",
"N. c #722108",
"B. c #702209",
"V. c #722309",
"C. c #742308",
"Z. c #752308",
"A. c #762308",
"S. c #772308",
"D. c #732409",
"F. c #71240A",
"G. c #76250A",
"H. c #782308",
"J. c #792509",
"K. c #7B2508",
"L. c #7B270B",
"P. c #7D2508",
"I. c #7C2509",
"U. c #7E2508",
"Y. c #7F2609",
"T. c #7C270A",
"R. c #7E270A",
"E. c #7F290B",
"W. c #812407",
"Q. c #812609",
"!. c #832609",
"~. c #80270A",
"^. c #852709",
"/. c #82280A",
"(. c #812A0B",
"). c #84290A",
"_. c #87290A",
"`. c #882A0A",
"'. c #882B0B",
"]. c #892B0B",
"[. c #8E2A0A",
"{. c #8D2C0B",
"}. c #8E2C0B",
"|. c #8A2D0C",
" X c #922B0A",
".X c #932B0A",
"XX c #902D0C",
"oX c #912D0C",
"OX c #A22F0A",
"+X c #A7340D",
/* pixels */
"                                                                                                                                                                ",
"                                                                                                                                                                ",
"              5.1 O.| k.M.  W.8 = *.| k.M.  W.8 = *.| k.M.  W.8 = *.| k.M.  W.8 = *.| k.M.  W.8 = *.| k.M.  W.8 = *.| k.M.  W.8 = *.| k.M.  W.4 x               ",
"        OX/ n.T ..3._ f.& f C.g.W 8._ f.& f C.g.W 8._ f.& f C.g.W 8._ f.& f C.g.W 8._ f.& f C.g.W 8._ f.& f C.g.W 8._ f.& f C.g.W 8._ f.& f v.k.G U +X  P.      ",
"        t Y Q.N J.9.; ( 0.c 7.u 7.t.- ( 0.c 7.u 7.t.- ( 0.c 7.u 7.t.- ( 0.c 7.u 7.t.- ( 0.c 7.u 7.t.- ( 0.c 7.u 7.t.- ( 0.c 7.u 7.t.- ( 0.c 7.t t. .8 X.&       ",
"      m.& s s , Z.z =.,.z.t A &.7.v =.,.z.t A &.7.v =.,.z.t A &.7.v =.,.z.t A &.7.v =.,.z.t A &.7.v =.,.z.t A &.7.v =.,.z.t A &.7.v =.,.z.t A ) ;.,.N r.P       ",
"        4.D.s.r D.l.X b w X.K.t ~.p.X b w X.K.t ~.p.X b w X.K.t ~.p.X b w X.K.t ~.p.X b w X.K.t ~.p.X b w X.K.t ~.p.X b w X.K.t ~.p.X b w X.J.j ' Z...o j       ",
"      ..h ..B.z.E G d.:.X ' f _.B J p.:.X ' f _.B J p.:.X ' f _.B J p.:.X ' f _.B J p.:.X ' f _.B J p.:.X ' f _.B J p.:.X ' f _.B J p.:.X ' f `.7 4 / ; i       ",
"      0 h.W 1 K.A ! P z H.= 1 [ x ~ J z H.= 1 [ x ~ J z H.= 1 [ x ~ J z H.= 1 [ x ~ J z H.= 1 [ x ~ J z H.= 1 [ x ~ J z H.= 1 [ x ~ P z H.= < ;.g + z l.0.      ",
"        {.3 k ! S 0.o D 0.w ).# E 9.o D 0.w ).# E 9.o D 0.w ).# E 9.o D 0.w ).# E 9.o D 0.w ).# E 9.o D 0.w ).# E 9.o D 0.w ).# E 9.o D 0.r (.= ~ > 9.Q #       ",
"        q A.#._ J ! Z.y.o.0.F.V i ` Z.y.o.w.F.V i ` Z.y.o.w.F.V i ` C.y.o.0.F.V i ` C.y.o.0.F.V i ` C.y.o.0.F.V i ` C.y.o.0.F.V i ` C.y.o.0.B.A K J.#.j./       ",
"      5.u s.= S }.. ' i -. .G c.R.. [ i -. .G c.R.. [ i -. .G c.R.. ' i -. .G c.R.. ' i -. .G c.R.. ' i -. .G c.R.. ' i -. .G c.R.. ' i -. .G z.g ( U C M       ",
"      XXK.5 '.[ ..G.X.v % N.8 P a.D.+.v % N.8 P a.D.+.v % N.8 P a.D.+.v % N.8 P a.D.+.v % N.8 P a.D.+.v % N.8 P a.D.+.v % N.8 P a.D.+.v % N.8 I ! s.{.h & b.    ",
"      H A L.7 / f.2.h.n _.N @.4.T.1.h.n _.N @.4.T.1.h.n _.N @.4.T.1.h.n _.N @.4.T.1.h.n _.N @.4.T.1.h.n _.N @.4.T.1.h.n _.N @.4.T.1.h.n _.N o.p.>.+ ) U .X      ",
"      S.B T - 4.< 1 oX{ s I.s.e ; 2 oX{ s I.s.e ; 2 oX{ s I.s.e ; 2 oX{ s I.s.e ; 2 oX{ s I.s.e ; 2 oX{ s I.s.e ; 2 oX{ s I.s.e ; 2 oX{ s I.s.w ' : ,.3.        ",
"      <.l | A.z.A a _ / @ i.J Z.&.t _ / @ i.J Z.&.t _ / @ i.J Z.&.t _ / @ i.J Z.&.t _ / @ i.J Z.&.t _ / @ i.J Z.&.t _ / @ i.J Z.&.t _ / @ i.P l.V._.A N ].      ",
"      i a.Y ; `.-.N f D Q.# u u.3.m f D Q.# u u.3.m f D Q.# u u.3.m f D Q.# u u.3.m f D Q.# u u.3.m f D Q.# u u.3.m f D Q.# u u.3.m f D Q.$ r d.>., P ).$.      ",
"        {.3 k I z y.O Z 8.r (.+ D 0.O Z 8.r (.+ D 0.O Z 8.r (.+ D 0.O Z 8.r (.+ D 0.O Z 8.r (.+ D 0.O Z 8.r (.+ D 0.O Z 8.r (.+ D 0.O Z 8.r E.& J * 6.W $       ",
"        q A.#._ J ! Z.y.o.w.F.V p ` C.y.o.w.F.V p ` C.y.o.w.F.V p ` C.y.o.w.F.V p ` C.y.o.w.F.V p ` C.y.o.w.F.V p ` C.y.o.w.F.V p ` C.y.o.w.B.A K J.#.j.^       ",
"      5.u s.= S }.. ' i -. .G c.R.. [ i -. .G c.R.. [ i -. .G c.R.. ' i -. .G c.R.. ' i -. .G c.R.. ' i -. .G c.R.. ' i -. .G c.R.. ' i -. .G z.g ( U C M       ",
"      XXK.5 '.[ ..G.X.v % N.8 P a.D.+.v % N.8 P a.D.+.v % N.8 P a.D.+.v % N.8 P a.D.+.v % N.8 P a.D.+.v % N.8 P a.D.+.v % N.8 P a.D.+.v % N.8 I ! s.{.h & b.    ",
"      H A L.7 / f.2.h.n _.N @.4.T.1.h.n _.N @.4.T.1.h.n _.N @.4.T.1.h.n _.N @.4.T.1.h.n _.N @.4.T.1.h.n _.N @.4.T.1.h.n _.N @.4.T.1.h.n _.N o.p.>.+ ) U .X      ",
"      S.B T - 4.< 1 oX{ s I.s.e ; 2 oX{ s I.s.e ; 2 oX{ s I.s.e ; 2 oX{ s I.s.e ; 2 oX{ s I.s.e ; 2 oX{ s I.s.e ; 2 oX{ s I.s.e ; 2 oX{ s I.s.w ' : ,.3.        ",
"      <.l | A.z.A a _ / @ i.J Z.&.t _ / @ i.J Z.&.t _ / @ i.J Z.&.t _ / @ i.J Z.&.t _ / @ i.J Z.&.t _ / @ i.J Z.&.t _ / @ i.J Z.&.t _ / @ i.P l.V._.A N ].      ",
"      i a.Y ; `.;.N f D Q.# u u.3.m f D Q.# u u.3.m f D Q.# u u.3.m f D Q.# u u.3.m f D Q.# u u.3.m f D Q.# u u.3.m f D Q.# u u.3.m f D Q.$ r d.>., P ).$.      ",
"        {.3 k I z y.O Z 8.r (.+ D 0.O Z 8.r (.+ D 0.O Z 8.r (.+ D 0.O Z 8.r (.+ D 0.O Z 8.r (.+ D 0.O Z 8.r (.+ D 0.O Z 8.r (.+ D 0.O Z 8.r E.& J * 6.W $       ",
"        q A.#._ J ! Z.y.o.w.F.V p ` C.y.o.w.F.V p ` C.y.o.w.F.V p ` C.y.o.w.F.V p ` C.y.o.w.F.V p ` C.y.o.w.F.V p ` C.y.o.w.F.V p ` C.y.o.w.B.A K J.#.j.^       ",
"      5.u s.= S }.. ' i -. .G c.R.. [ i -. .G c.R.. [ i -. .G c.R.. ' i -. .G c.R.. ' i -. .G c.R.. ' i -. .G c.R.. ' i -. .G c.R.. ' i -. .G z.g ( U C M       ",
"      XXK.5 '.[ ..G.X.v % N.8 P a.D.+.v % N.8 P a.D.+.v % N.8 P a.D.+.v % N.8 P a.D.+.v % N.8 P a.D.+.v % N.8 P a.D.+.v % N.8 P a.D.+.v % N.8 I ! s.{.h & b.    ",
"      H A L.7 / f.2.h.n _.N @.4.T.1.h.n _.N @.4.T.1.h.n _.N @.4.T.1.h.n _.N @.4.T.1.h.n _.N @.4.T.1.h.n _.N @.4.T.1.h.n _.N @.4.T.1.h.n _.N o.p.>.+ ) U .X      ",
"      S.B T - 4.< 1 oX{ s I.s.e ; 2 oX{ s I.s.e ; 2 oX{ s I.s.e ; 2 oX{ s I.s.e ; 2 oX{ s I.s.e ; 2 oX{ s I.s.e ; 2 oX{ s I.s.e ; 2 oX{ s I.s.w ' : ,.3.        ",
"      <.l | A.z.A a _ / @ i.J Z.&.t _ / @ i.J Z.&.t _ / @ i.J Z.&.t _ / @ i.J Z.&.t _ / @ i.J Z.&.t _ / @ i.J Z.&.t _ / @ i.J Z.&.t _ / @ i.P l.V._.A N ].      ",
"      i a.Y ; `.;.N f D Q.# u u.3.m f D Q.# u u.3.m f D Q.# u u.3.m f D Q.# u u.3.m f D Q.# u u.3.m f D Q.# u u.3.m f D Q.# u u.3.m f D Q.$ r d.>., P ).$.      ",
"        {.3 k I z y.O Z 8.r (.+ D 0.O Z 8.r (.+ D 0.O Z 8.r (.+ D 0.O Z 8.r (.+ D 0.O Z 8.r (.+ D 0.O Z 8.r (.+ D 0.O Z 8.r (.+ D 0.O Z 8.r E.& J * 6.W $       ",
"        q A.#._ J ! Z.y.o.w.F.V p ` C.y.o.w.F.V p ` C.y.o.w.F.V p ` C.y.o.w.F.V p ` C.y.o.w.F.V p ` C.y.o.w.F.V p ` C.y.o.w.F.V p ` C.y.o.w.B.A K J.#.j.^       ",
"      5.u s.= S }.. ' i -. .G c.R.. [ i -. .G c.R.. [ i -. .G c.R.. [ i -. .G c.R.. [ i -. .G c.R.. [ i -. .G c.R.. [ i -. .G c.R.. [ i -. .G z.g ( U C M       ",
"      XXK.5 '.[ ..G.X.v % N.8 P a.D.+.v % N.8 P a.D.+.v % N.8 P a.D.+.v % N.8 P a.D.+.v % N.8 P a.D.+.v % N.8 P a.D.+.v % N.8 P a.D.+.v % N.8 I ! s.{.h & b.    ",
"      H A L.7 / f.2.h.n _.N @.4.T.1.h.n _.N @.4.T.1.h.n _.N @.4.T.1.h.n _.N @.4.T.1.h.n _.N @.4.T.1.h.n _.N @.4.T.1.h.n _.N @.4.T.1.h.n _.N o.p.>.+ ) U  X      ",
"      S.B T - 4.< 1 oX{ s I.s.e ; 2 oX{ s I.s.e ; 2 oX{ s I.s.e ; 2 oX{ s I.s.e ; 2 oX{ s I.s.e ; 2 oX{ s I.s.e ; 2 oX{ s I.s.e ; 2 oX{ s I.s.w ' : ,.3.        ",
"      <.l | A.z.A a _ / @ i.J Z.&.t _ / @ i.J Z.&.t _ / @ i.J Z.&.t _ / @ i.J Z.&.t _ / @ i.J Z.&.t _ / @ i.J Z.&.t _ / @ i.J Z.&.t _ / @ i.P l.V._.A N ].      ",
"      i a.Y ; `.;.N f D Q.# u u.3.m f D Q.# u u.3.m f D Q.# u u.3.m f D Q.# u u.3.m f D Q.# u u.3.m f D Q.# u u.3.m f D Q.# u u.3.m f D Q.$ r d.>., P ).$.      ",
"        {.3 k I z y.O Z 8.r (.+ D 0.O Z 8.r (.+ D 0.O Z 8.r (.+ D 0.O Z 8.r (.+ D 0.O Z 8.r (.+ D 0.O Z 8.r (.+ D 0.O Z 8.r (.+ D 0.O Z 8.r E.& J * 6.W $       ",
"        q A.#._ J ! Z.y.o.w.F.V p ` C.y.o.w.F.V p ` C.y.o.w.F.V p ` C.y.o.w.F.V p ` C.y.o.w.F.V p ` C.y.o.w.F.V p ` C.y.o.w.F.V p ` C.y.o.w.B.A K J.#.j.^       ",
"      5.u s.= S }.. ' i -. .G c.R.. [ i -. .G c.R.. [ i -. .G c.R.. [ i -. .G c.R.. [ i -. .G c.R.. [ i -. .G c.R.. [ i -. .G c.R.. [ i -. .G z.g ( U C M       ",
"      XXK.5 '.[ ..G.X.v % N.8 P a.D.+.v % N.8 P a.D.+.v % N.8 P a.D.+.v % N.8 P a.D.+.v % N.8 P a.D.+.v % N.8 P a.D.+.v % N.8 P a.D.+.v % N.8 I ! s.{.h & b.    ",
"      H A L.7 / f.2.h.n _.N @.4.T.1.h.n _.N @.4.T.1.h.n _.N @.4.T.1.h.n _.N @.4.T.1.h.n _.N @.4.T.1.h.n _.N @.4.T.1.h.n _.N @.4.T.1.h.n _.N o.p.>.+ ) U  X      ",
"      S.B T - 4.< 1 oX{ s I.s.e ; 2 oX{ s I.s.e ; 2 oX{ s I.s.e ; 2 oX{ s I.s.e ; 2 oX{ s I.s.e ; 2 oX{ s I.s.e ; 2 oX{ s I.s.e ; 2 oX{ s I.s.w ' : ,.3.        ",
"      <.l | A.z.A a _ / @ i.J Z.&.t _ / @ i.J Z.&.t _ / @ i.J Z.&.t _ / @ i.J Z.&.t _ / @ i.J Z.&.t _ / @ i.J Z.&.t _ / @ i.J Z.&.t _ / @ i.P l.V._.A N ].      ",
"      i a.Y ; `.;.N f D Q.# u u.3.m f D Q.# u u.3.m f D Q.# u u.3.m f D Q.# u u.3.m f D Q.# u u.3.m f D Q.# u u.3.m f D Q.# u u.3.m f D Q.$ r d.>., P ).$.      ",
"        {.3 k I z y.O Z 8.r (.+ D 0.O Z 8.r (.+ D 0.O Z 8.r (.+ D 0.O Z 8.r (.+ D 0.O Z 8.r (.+ D 0.O Z 8.r (.+ D 0.O Z 8.r (.+ D 0.O Z 8.r E.& J * 6.W $       ",
"        q A.#._ J ! Z.y.o.w.F.V p ` C.y.o.w.F.V p ` C.y.o.w.F.V p ` C.y.o.w.F.V p ` C.y.o.w.F.V p ` C.y.o.w.F.V p ` C.y.o.w.F.V p ` C.y.o.w.B.A K J.#.j.^       ",
"      5.u s.= S }.. ' i -. .G c.R.. [ i -. .G c.R.. [ i -. .G c.R.. [ i -. .G c.R.. [ i -. .G c.R.. [ i -. .G c.R.. [ i -. .G c.R.. [ i -. .G z.g ( U C M       ",
"      XXK.5 '.[ ..G.X.v % N.8 P a.D.+.v % N.8 P a.D.+.v % N.8 P a.D.+.v % N.8 P a.D.+.v % N.8 P a.D.+.v % N.8 P a.D.+.v % N.8 P a.D.+.v % N.8 I ! s.{.h & b.    ",
"      H A L.7 / f.2.h.n _.N @.4.T.1.h.n _.N @.4.T.1.h.n _.N @.4.T.1.h.n _.N @.4.T.1.h.n _.N @.4.T.1.h.n _.N @.4.T.1.h.n _.N @.4.T.1.h.n _.N o.p.>.+ ) U  X      ",
"      S.B T - 4.< 1 oX{ s I.s.e ; 2 oX{ s I.s.e ; 2 oX{ s I.s.e ; 2 oX{ s I.s.e ; 2 oX{ s I.s.e ; 2 oX{ s I.s.e ; 2 oX{ s I.s.e ; 2 oX{ s I.s.w ' : ,.3.        ",
"      <.l | A.z.A a _ / @ i.J Z.&.t _ / @ i.J Z.&.t _ / @ i.J Z.&.t _ / @ i.J Z.&.t _ / @ i.J Z.&.t _ / @ i.J Z.&.t _ / @ i.J Z.&.t _ / @ i.P l.V._.A N ].      ",
"      i a.Y ; `.;.N f D Q.# u u.3.m f D Q.# u u.3.m f D Q.# u u.3.m f D Q.# u u.3.m f D Q.# u u.3.m f D Q.# u u.3.m f D Q.# u u.3.m f D Q.$ r d.>., P ).$.      ",
"        {.3 k I z y.O Z 8.r (.+ D 0.O Z 8.r (.+ D 0.O Z 8.r (.+ D 0.O Z 8.r (.+ D 0.O Z 8.r (.+ D 0.O Z 8.r (.+ D 0.O Z 8.r (.+ D 0.O Z 8.r E.& J * 6.W $       ",
"        q A.#._ J ! Z.y.o.w.F.V p ` C.y.o.w.F.V p ` C.y.o.w.F.V p ` C.y.o.w.F.V p ` C.y.o.w.F.V p ` C.y.o.w.F.V p ` C.y.o.w.F.V p ` C.y.o.w.B.A K J.#.j.^       ",
"      5.u s.= S }.. ' i -. .G c.R.. [ i -. .G c.R.. [ i -. .G c.R.. [ i -. .G c.R.. [ i -. .G c.R.. [ i -. .G c.R.. [ i -. .G c.R.. [ i -. .G z.g ( U C M       ",
"      XXK.5 '.[ ..G.X.v % N.8 P a.D.+.v % N.8 P a.D.+.v % N.8 P a.D.+.v % N.8 P a.D.+.v % N.8 P a.D.+.v % N.8 P a.D.+.v % N.8 P a.D.+.v % N.8 I ! s.{.h & b.    ",
"      H A L.7 / f.2.h.n _.N @.4.T.1.h.n _.N @.4.T.1.h.n _.N @.4.T.1.h.n _.N @.4.T.1.h.n _.N @.4.T.1.h.n _.N @.4.T.1.h.n _.N @.4.T.1.h.n _.N o.p.>.+ ) U  X      ",
"      S.B T - 4.< 1 oX{ s I.s.e ; 2 oX{ s I.s.e ; 2 oX{ s I.s.e ; 2 oX{ s I.s.e ; 2 oX{ s I.s.e ; 2 oX{ s I.s.e ; 2 oX{ s I.s.e ; 2 oX{ s I.s.w ' : ,.3.        ",
"      <.l | A.z.A a _ / @ i.J Z.&.t _ / @ i.J Z.&.t _ / @ i.J Z.&.t _ / @ i.J Z.&.t _ / @ i.J Z.&.t _ / @ i.J Z.&.t _ / @ i.J Z.&.t _ / @ i.P l.V._.A N ].      ",
"      i a.Y ; `.;.N f D Q.# u u.3.m f D Q.# u u.3.m f D Q.# u u.3.m f D Q.# u u.3.m f D Q.# u u.3.m f D Q.# u u.3.m f D Q.# u u.3.m f D Q.# r d.>., P ).$.      ",
"        {.3 k I z y.O Z 8.r (.+ D 0.O Z 8.r (.+ D 0.O Z 8.r (.+ D 0.O Z 8.r (.+ D 0.O Z 8.r (.+ D 0.O Z 8.r (.+ D 0.O Z 8.r (.+ D 0.O Z 8.r E.& J * 6.W $       ",
"        q A.#._ J ! Z.y.o.w.F.V p ` C.y.o.w.F.V p ` C.y.o.w.F.V p ` C.y.o.w.F.V p ` C.y.o.w.F.V p ` C.y.o.w.F.V p ` C.y.o.w.F.V p ` C.y.o.w.B.A K K.#.j.^       ",
"      5.u s.= S }.. ' i -. .G c.R.. ' i -. .G c.R.. ' i -. .G c.R.. ' i -. .G c.R.. ' i -. .G c.R.. ' i -. .G c.R.. ' i -. .G c.R.. [ i -. .G z.g ( U C M       ",
"      XXK.5 '.[ ..G.X.v % N.8 P a.D.+.v % N.8 P a.D.+.v % N.8 P a.D.+.v % N.8 P a.D.+.v % N.8 P a.D.+.v % N.8 P a.D.+.v % N.8 P a.D.+.v % N.8 I ! s.{.h & b.    ",
"      H A L.7 / f.2.h.n _.N @.4.T.1.h.n _.N @.4.T.1.h.n _.N @.4.T.1.h.n _.N @.4.T.1.h.n _.N @.4.T.1.h.n _.N @.4.T.1.h.n _.N @.4.T.1.h.n _.N o.p.>.# ) U  X      ",
"      S.B W - 4.< 1 oX{ a I.s.e ; 1 oX{ a I.s.e ; 1 oX{ a I.s.e ; 1 oX{ a I.s.e ; 1 oX{ a I.s.e ; 1 oX{ a I.s.e ; 1 oX{ a I.s.e ; 1 oX{ s I.s.w ' : ,.3.        ",
"      <.l T D.N.P j E / + 9.P v.>.f E / + 9.P v.>.f E / + 9.P v.>.f E / + 9.P v.>.f E / + 9.P v.>.f E / + 9.P v.>.f E / + 9.P v.>.f E / + 9.P l.Z.).A L M.      ",
"      r S '.I I / % I y ^.D ; z.3.# I y ^.D ; z.3.# I y ^.D ; z.3.# I y ^.D ; z.3.# I y ^.D ; z.3.# I y ^.D ; z.3.# I y ^.D ; z.3.# I y ^.D 1 4.J.).6 6.Y.      ",
"      0.y.A.N.E 2.. 0.O A X.J.8 L X 0.O A X.J.8 L X 0.O A X.J.8 L X 0.O A X.J.8 L X 0.O A X.J.8 L X 0.O A X.J.8 L X 0.O A X.J.8 L X 0.O A X.I.= F - &. ./.      ",
"      q Q ..6.z A &.Z j.} L ,.J U #.Z j.} L ,.J U #.Z j.} L ,.J U #.Z j.} L ,.J U #.Z j.} L ,.J U #.Z j.} L ,.J U #.Z j.} L ,.J U #.Z j.} L :.] B.. } 7.;       ",
"      x.a :.g.: J.&.N %._ |.9 * R.&.N %._ |.9 * R.&.N %._ |.9 * R.&.N %._ |.9 * R.&.N %._ |.9 * R.&.N %._ |.9 * R.&.N %._ |.9 * R.&.N %._ |.9 * D.i.s.P 0.      ",
"        R n i./ [.p ! s x.q  .f.!.d ! s x.q  .f.!.d ! s x.q  .f.!.d ! s x.q  .f.!.d ! s x.q  .f.!.d ! s x.q  .f.!.d ! s x.q  .f.!.d ! s x.q  .f.` E >.r         ",
"                  +.e.      U.q.  +.e.      U.q.  +.e.      U.q.  +.e.      U.q.  +.e.      U.q.  +.e.      U.q.  +.e.      U.q.  +.e.      U.q.                ",
"                                                                                                                                                                ",
"                                                                                                                                                                "
};
