/* XPM */
static char *_630638360311[] = {
/* columns rows colors chars-per-pixel */
"80 85 256 2 ",
"   c #FA5719",
".  c #FC6E1A",
"X  c #FC741E",
"o  c #FA2D12",
"O  c #FB4B16",
"+  c #F95F1C",
"@  c #FA521A",
"#  c #FD691C",
"$  c #FB641C",
"%  c #F83A18",
"&  c #FD4816",
"*  c #F43E19",
"=  c #F73115",
"-  c #FC3A14",
";  c #FD851C",
":  c #FD3A18",
">  c #F7641B",
",  c #FC4218",
"<  c #EF4218",
"1  c #FD791D",
"2  c #FD471C",
"3  c #FA4515",
"4  c #FA5A1F",
"5  c #FD4E1B",
"6  c #FD5114",
"7  c #FA6516",
"8  c #FA5B17",
"9  c #FA6A1E",
"0  c #EF3415",
"q  c #FB3214",
"w  c #F84919",
"e  c #F75515",
"r  c #FC5617",
"t  c #F84319",
"y  c #FD7B17",
"u  c #F93E18",
"i  c #FC7316",
"p  c #F92912",
"a  c #FC3011",
"s  c #FC3612",
"d  c #F72C14",
"f  c #F54718",
"g  c #FD4E17",
"h  c #F6541C",
"j  c #F84315",
"k  c #FA4E19",
"l  c #F66923",
"z  c #FA5215",
"x  c #FD7618",
"c  c #FD8C1C",
"v  c #F9841F",
"b  c #F22A13",
"n  c #EB4718",
"m  c #FCAE28",
"M  c #FD5B17",
"N  c #FD971B",
"B  c #FC3E13",
"V  c #F55A1A",
"C  c #FA6A16",
"Z  c #FBC024",
"A  c #FA6116",
"S  c #FD4512",
"D  c #FC7923",
"F  c #FC8425",
"G  c #FD9024",
"H  c #FA941F",
"J  c #F96F16",
"K  c #FD6E14",
"L  c #FD8016",
"P  c #FC2E18",
"I  c #F93517",
"U  c #FB8C2D",
"Y  c #F98A1B",
"T  c #F9741A",
"R  c #FD8D16",
"E  c #FC3417",
"W  c #FD4213",
"Q  c #F96F1D",
"!  c #F93611",
"~  c #F97E1E",
"^  c #F23B14",
"/  c #FD9216",
"(  c #FD8A24",
")  c #FD7E1D",
"_  c #FB341C",
"`  c #EF2C14",
"'  c #F93B12",
"]  c #FD5F1A",
"[  c #FD6013",
"{  c #FD6914",
"}  c #EE3B16",
"|  c #FD9D17",
" . c #FBB92A",
".. c #F34213",
"X. c #F83F12",
"o. c #FD6E1E",
"O. c #F94912",
"+. c #FDD01E",
"@. c #F76918",
"#. c #FC6A25",
"$. c #FB9B2F",
"%. c #F97916",
"&. c #F73914",
"*. c #FD541B",
"=. c #F74E14",
"-. c #FD8616",
";. c #F9A027",
":. c #E93217",
">. c #F76D25",
",. c #F2551A",
"<. c #F55E1F",
"1. c #FBA51F",
"2. c #F87A1D",
"3. c #FB2817",
"4. c #FCC02C",
"5. c #FBB327",
"6. c #FBB220",
"7. c #FDB61A",
"8. c #FDB218",
"9. c #F65A20",
"0. c #F75D16",
"q. c #FD7F24",
"w. c #F97A24",
"e. c #FA4F14",
"r. c #FC9526",
"t. c #F9821A",
"y. c #FDA228",
"u. c #FD4C0F",
"i. c #FD911D",
"p. c #FA9B27",
"a. c #FCB434",
"s. c #FCA918",
"d. c #F32F14",
"f. c #FB5611",
"g. c #FA6522",
"h. c #F87522",
"j. c #FCBA22",
"k. c #FCC827",
"l. c #E94119",
"z. c #F82312",
"x. c #F63513",
"c. c #FC2413",
"v. c #E83917",
"b. c #EB6F25",
"n. c #F76425",
"m. c #FDA827",
"M. c #FDA020",
"N. c #FAAF30",
"B. c #FDA417",
"V. c #FA9824",
"C. c #FCCB1F",
"Z. c #FCDF30",
"A. c #F91E12",
"S. c #FA7025",
"D. c #FD9B20",
"F. c #FA7529",
"G. c #F9A825",
"H. c #F98F20",
"J. c #F6792C",
"K. c #F67F24",
"L. c #FABB32",
"P. c #F52815",
"I. c #FCCE2E",
"U. c #F04E1E",
"Y. c #F83A1F",
"T. c #F8481F",
"R. c #F95F24",
"E. c #F24716",
"W. c #FD591C",
"Q. c #FDC61C",
"!. c #F99219",
"~. c #F64E1E",
"^. c #FB4220",
"/. c #EE5520",
"(. c #FB7A28",
"). c #FA922C",
"_. c #FA991A",
"`. c #FCAE1B",
"'. c #FCDE22",
"]. c #F22314",
"[. c #E94D1B",
"{. c #EC5E1C",
"}. c #FE6416",
"|. c #F0591E",
" X c #FDAD20",
".X c #FCD42A",
"XX c #EB2314",
"oX c #F72D1A",
"OX c #F34D17",
"+X c #F06425",
"@X c #FC4425",
"#X c #FC9F1A",
"$X c #FC5520",
"%X c #FBA032",
"&X c #F99F1E",
"*X c #F97E29",
"=X c #FCB621",
"-X c #F98617",
";X c #EA2C14",
":X c #E42C17",
">X c #F15F1F",
",X c #F8401F",
"<X c #F94F23",
"1X c #EB6825",
"2X c #FAAA1F",
"3X c #FCCC3B",
"4X c #F7321F",
"5X c #F2321C",
"6X c #E23818",
"7X c #FC3A1F",
"8X c #EE5017",
"9X c #F0491B",
"0X c #FB802C",
"qX c #EA551B",
"wX c #FDC03B",
"eX c #F4712B",
"rX c #F78B25",
"tX c #FCA731",
"yX c #FCD730",
"uX c #FCE933",
"iX c #F1651C",
"pX c #FB882A",
"aX c #F8A72D",
"sX c #FCBB1D",
"dX c #FDD71F",
"fX c #FDE522",
"gX c #FBC62F",
"hX c #F5711F",
"jX c #F98532",
"kX c #FC5B10",
"lX c #F68724",
"zX c #FD5E21",
"xX c #EE2514",
"cX c #F95423",
"vX c #FC9334",
"bX c #FDBF1B",
"nX c #E32314",
"mX c #F41F12",
"MX c #FD3A0C",
"NX c #FBC835",
"BX c #FDF125",
"VX c #FDF725",
"CX c #FDD63A",
"ZX c #E14219",
"AX c #EF6B27",
"SX c #FD4C24",
"DX c #E1551D",
"FX c #FEE040",
"GX c #FDF939",
"HX c #FDEC21",
"JX c #E35D23",
"KX c #D92515",
"LX c #D5481C",
"PX c #D73518",
"IX c #C51F15",
"UX c #CD6524",
/* pixels */
"' X.S W [ | D.V.H H 7 - c.- o.1 H  .H.9.>.] b nX6XJX<.pXX cXcX  z j X.e i i { i _.m m H.T =XN D.I.Z..XZ..X# w 6 u f % r ; X e =.A i A W 6 c 1.y C.2X$ E.8XOXV l ",
"! ' X.& x 8.y.aX;.G.; [ a u X ( H 2XH.n.>.o.* nXv.|.n.$.q.cXR.t.C ' X.8 i L / i %.Y p.v c 7.-.M.k.Z k.Z.Z 9   z , * % g c H 2.i -.R C X.u.) i.y dXC.q.~.< E.  R.",
"' &.x.8 6.fXL.N.aX&X`.R 3 e ; M.H Y H w.R.D T.d.< @.(.$.0Xn.~ 2X-.k O.7 Y sX'.. ..=.. o.D.bX/ M.5.!.V.aXF l > =.- % s , L s._.!.#X2X_.7 A J Q y C.HXm 4 0 O.M 4 ",
"7X2 k 1 '.VX.XH ~ L / %.,.V t.M.y.y.;.v $X$X% Y.w H F o.g.2.v 2.X X @.J 6.BXdX#   z 3 $ v =XB.t.H H >.J.J.l ~.u I E I @ %.L @.0.T &X`.&XR C 9 1 B.Q.N $X* e.] w.",
"_ W.i.i.6.+.+.H 9 X z O.=.j Q H.a.FXwXJ.cX@X_ Y.T.; @ t h 0.A <.$ . Q ~  XQ.) r 1 $ x.e ~ ; #   >.S.J.N.N.K.<X,XI I t v Y J > h Q Y T i C M # X c R g 5 k *.#.$.",
"w J #XY > -XN X @ I mXo p I @ 9 G N.y.F.R.<X7X_ P c.d 0 < ^ = , @ z > v Y r oX= t u a s &.4 W.k 9.l S.(.0XF G w o   Q 2.T 9 *.2 , I P.p q 2 X *.O S - W.o.o.F ).",
"7 J J 9X< e.u.E 3.XXnXp & t * f ,.l R.$Xg.cX*.& A.A.].XX0 * % 3.a e Y  Xv a = oXd &.&.a P E W B 3 T.Y.2 @XSX. 3 - ; 6.Q w - s o c.z.xXxXp ! > < xXa B a ] j.k.$.",
"3 - - h ,.S }.: 3.XX].I w * , W } } t 2 5 SXzX] P 3.A.P : : I z.A.E i Q.Q.f.z.oX_ = u j x.P.o s u ,X4X4X7X7X2 P , =.-XH u : X.d.].d.% z.z.` 6XPX:X` ` = 2 | 1.*X",
"a a B   8 6 r c.c.3.q E oX;Xd.q I t <X@X^.^.@XSX^.oX3.7X_ o p c.p s g c dX/ MXp 3.c.B * ;Xb z.E Q K.<X4XY.@X@X_ 2 ,Xh M.) B ^ ^ q s s A.b d.;X:.:.:X;X} t j o.F ",
"I o p u + h v.:XoX* k a P xXd.O w < U.9X,X@X7X_ * 5XoX: A.% & a o = = T.F._.-._ _ k j x.` Q # y Z L.#.@X@XY.cX: W.2 s e.#Xi.> w u B 3 * j A T.7X5 b mX} ,.] # D ",
"I = &., W n LX:.oXl.v.z.a = E , ~./.U.^ t 5 s mX^ &.- s S }.M k u = E : h w.-.. 9 % ' f.f 2.x Y G.w.7X^.g.~ -X7 | -.- s L +.H.< < V V f t K @ d _ 5 r &.,.{.> hX",
"Q T %.+ = } < w E.n :.b B , &.0 /.b.|.O g u.g W &.X.kX[ J / L D Q 8 k r L 2X%.Q $ b P.z 0.< = ~ &X  c., -XZ &X1 B.7.%.d q u.|.[.[./.< b o & &.` d 2 kX< l.[.1Xb.",
"_.#XR zX4XoX^ U.$ V < ..,.w } l.{.iX>Xf X...OXw ^   %.&X&Xv o.9 # . #.g.2.G.h.S.9 = d x.  h 9.9 C 8 & & . H.K.H.-./ L u 7XE ^ [.[.n v.nXd : 5X6X..& &.^ } } 9X,.",
"H v ] , _ % U.JXV V $ i {.[.n qX+X> > qXl.} f 0.> R #X6.H.n.O O r ] > h + 2XG q.h 5Xd.` Y.R.>.4 u e y K 8 t w e A 7 j : @X_ p 0 } v.ZXJXDX* 6XPXl.< 0 } ~.T.z 7 ",
"H.~ 8 & 6   f >X/.4 + ,.n /.>X+X+X<.>X{.[.9Xf @.J -.8.| 4 @ k w # 1 + A L H . 5 * v.:XXX5X<XF.0X*.u T &X1 z t I I w S E ^.7XP = ^ 0 } iXJ.9X:X6XLXLXv.l.<X#.F ; ",
"w.w.Q   W.*., ..9XT.* 0 * + D (.eX1X1X{./.~.j h =.e.R / g , *.<.hXS.# ( 6.1 d nX6X6X6X:X` f g.#.@ : r !.; ) 4 q s B f.6 & _ _ 2 9X0 _ zXF ~.].5XLXLXn 8XT.#.G ( ",
"9.n.l 9.,XE q = , oX4X= , u.# (.*XJ.b.AXh ^.2 , ! q y -.W E ^.g.l cX$XS.o.O mXIXKX6X6X:.xX^ ,.T.t X D.H Y h.R.] . W f.[ 3 d.% 2 T.,X@X4 ] t P.6Xl.5X} V + D q.( ",
",XT.@ , 3.A.p a S q oXo u I ~.eXU ( hX>.W., t B o ] / C a c.3.O @ Y.7X2 z.b b KXXX` nXv.oX* +X/.OX; k.Z 5.w.w ; 7.u.- u.X.0 < < t 5 U.n ..e.n DX< b ` @ G $.pXU ",
"Y.^.2 o A.A.P.b - : oXb 5XY.U.+XpXG g.+ ~ J j o = / #X  q c.A.p E : : oXXXxX` = % 0 nX;X* R.eX1X{.h.N =XI.p.O x Q.L a X.@   n ZXn w l.6XOX# qX{.U.0 x.1 gXa.).V.",
"Y.4 # E p z.z.xXd _ 4X5X0 } [.{.h.r.(.+ !.&X9.&.w ) x w % I 3._ $XW.: P.XXmXXX0 *.U.` xXU.*XJ.1X1XeXQ v k.m.D 9 N 7.# k R.#.f v.l.< l.n e   n l./.<.(.yXZ.wX%XG.",
"7X#.N [ , 3 j &.d 3._ _ * :.l./.*XN.N.h.@.lXl =.z M - x.&.O.O $ ( # o P.b A.].` # 9 * Y.4 >.b.b.K.V.rXH.gXm G 2.K  XgXQ r   @ ^.u E.> l n v.` b OXrXa.uXFXwXN.aX",
"E *.; R -.-Xt.z - P P P 5X:.v./.( 4.Z t.e > h ! , A B ! X.z L c X @ a z.P.mXP.;XV X   ] w l.JXhX6.dX6.G.gX .( + 3 ( Z.x kXC K 6 : 3 i ) 9XZX:X3.k V.V.m .XaXpX).",
"& B O H C./ L ) 5 % _ P ` ` v.qX~ m.j.M.%.@.O.c.P E - ' &.=.T !.i.~ 8 : ! p Y.[.n >.S.V } XXv.K.j. Xr.V.L =X=X$ E O i.i z @.y [ 3 3   1 q.,.:.4X@ 1.aXy.sXy # ( ",
"H.v Y &XH.C .  Xz u u oXd.&.^ 0.!.j.I.3X;.~ O.s : : I x.d x.' 7 &X .G.D.R ..+Xb.b.b.AXn } d.P.j O t ~ y.; M.8.R   w t.-X3 e.B.`.t.T $ g.a.g.f l t.m wX .M.K K x ",
"'.C.&X> I t 9 G ) r e.u u @ ~.@ . i.D.m.m.L { - E 5 t b MXS a q @.G.4.6.c + b.b.b.b.1X[.} % - s oXoXX.8 # 6 L Y H.;   z kXK  Xk.6.r.F F ) 5 ~.~ p.r.NXNXi.L [ O ",
"!.t.  * % 9.).1.=X-Xe O q.pX5 I @ o.$ O.}.i.i.J W $ |.f f.j.) c.p %.j.p.S.l h 1X+X1XJXJXU.5 t * % = x.! O 1 ( j A ) z A D.=X5.G.1.m.%XU R.<Xj @ <.h.K.r.&X&Xy k ",
"&.p z.% R.rXG.B.x e.w g X W.* 0 ..X 9 0 j $ Q 1.1.i.8XOXw . X @ % e.L ( n.E...@.hXDXUXUX>X>X/.n < * * t @ ).I.- % W A &XI.yX=X@.X.M S.l h * ..S k <.4 R.h.H.2XH ",
"o o p E + 2XG.i u.u...V ; }.X.` ... > :.f { y 1.7.R x.^ w ) N 8 p ! @ # 8 * < 8XK qXUXb.b.b.{.8Xn < * * V vXFX  x.k #.rX4.Z R z x.B k 9XE.w E.kX=.U.h ~.+ 2.s.2X",
"p p o &.0._.H _ MXMXX.OXr.1.r p   F l d.! { | Q.7.{ z.A.r dX'.C p o B ' d u U...u.^ DXqX>Xy q.h.l 9.f x.S 1 N.#.$ q.9 Y 2Xs.C j X.s s g 5 ^.t u.O.l.|.w e.-.6.5.",
"x.x.= ' e 9 g.$XMXu.kX7 7 J 8 4 F.jXF.$ . N C.fXbXkXp A., 1.6.T j ' O.8   ^.,.OXS j OX..e ~ U pX0XJ.l 9.zXo.m.m F.*XQ Q C 1 A 3 O 6 , *.D $XW u.f.e u.f.-.k.FXNX",
"- o z.! B O f.x a f e e z V >.*X*X(.( m.5.&XH.H y ' z.mXx.7 Q + j ! K 8.#X8 =.^ } ^ x...< qX+Xw.pX*X>.w.F G ; y.pX*X$ k W O j ! =.R y M Z x S + <.e.0.N i.r.m.G.",
"[ g s a s u.6 - p I @ %.A e >.K.G y.m. .2X2.> M W P z.P.j e.u w   J / L [ x $ % ..V r C n [.[.l p.y.S.> >Xw u r D F 9 $Xk w j B O.R sX#XH { O.T v %.%./ N D . ~ ",
"L | | e.s u.B A.z.- 1 `.A ' e ; Z yXm &XG.K.Q C s *., I * f t ] R #X%.j &.8 l T.i G X G @.n n 9.pXm.F <./.= I O.$ m.wXU F.cX$ }.6 i bX8.u.! O./ -XJ L 8.C.`.Y S.",
"#XC.'.Y A { o z.p W R 1.  j J M.1.D.D.G.;.v l ~ A r , oX= w 8 R 8./   9X8X=.>X,.; v g.F o...E.V 4 9 h.eX>.h k A c yXFXa.%XF.#.# 8 J _.R f.[ T %.e e H HX+.8.2XK.",
"dXfX'.j.7.| W X.u W L ; 4 Q G.5.( q.;.p.w.> w hX_.x W.% u e.y 2X| .   >XiX0.8X<.q.hXh S.F o.$ > h ~.l 0X0X] 5 %.=XuXCX3Xa.p.D 9 9 Y s.!.| +.Z 0.X.T F k. X/ V.aX",
"'.Q.8.dX'./ f.C g g . o.$ X ;.G.tXwXtXF.R.<Xu g.G.sXi.C C x #XD.. W.$ @.> V |.g.w.w.V h.;.r.0XJ.J.0XvX%XjX5 T.G  X6.NX3Xy.( pX*XH.7.C.Z sX+.yXv T V.+ D r.v V.yX",
"t.J J s.8.] r # 5 @ g 6 $ [ x D.4.wXU R.R.SX^.# ( 7.| M.1.`.8.y O , @ o.9 9 S.q.lXw.@.Y ;.$.U ).%Xa.NXa.0X<Xt (  XK m.M.X g.w.*XG.Z j.I.5.r.gXI.a.r.> 9.S.pX5.uX",
"o ' w h A g r : ^.u a MXW 6 . -.M.G h * 9X@X7X=.@ C X N m N -.kX! o P 5 ) D.D ;.aXlXq.&Xy.%Xy.5.N.N.m.q.(.#.+ y 7.) x 1 + 9.$ o.v p.tX .4.tX5.uXwXh.V DX[.S.M. .",
"= &.3 k 3 W S P _ : d z.z.% g 6 6 k Y.` :.} 4Xd d u q W g , ! ! ' s q X.{ N ; m aXp.).p.$.).p.tX$.9 t ^.#.0X).i.G lXQ (.>.n.#.# + F.vX$.m ) c 5.).+X,.LXZX+ ) $ ",
"d o S { r q ! B t , 3.c.` d o c.P 2 SX5X:X:.5XoXoX,X* % u = = &., B B j ' f.s.gX$.;.;.%X$.x x G q.<X4X,X@ >.F.D jXJ.J.vXU pX0X#.g.w.U J.l }.A <.h.h.h.+Xh r M @ ",
"X.B 6 .   f 0.f.$X: a 3.P.d = d % R.+ T.Y.5X4XoX].Y./.,.=.f 3 kXkXB a P.< 0.7.yXy.;.5.L.4.9 O 9 #.4 <X@X,XcX~.u #.eX4 9 U pXpX(.h.h.eXAX>.c v <.9.1 ;.v + W.O <.",
"<.V 8 $   U.iX9 zX5 = z.p I * d.&.h ~.^.SX_ 3.E ].` 8X{.qXV   . 1 A @ h |.> _.m y.N.gXZ  XX @ 9.n.9.<X@XY.j z M { 4 3 ! }.}.g.S.2.hX+X+XD m.;.eXn.X . H >.9.e >X",
"+ + + + e n {.C ] @.8 o s W B o d 0 d.E & & W B O n {.{.iXC K . T <.,.9 iX> ; V.G.L.gX4.) O   9 J.>.t I x.W z kX/ L 8 I B f.w h hX2.S.eXJ.$.U >.0Xa.y.r.l f &.n ",
"Q 7 . q.n.DXDXe h @.C & & : & g - P.b u r }.5 ^ 8X{.T B.Y > K Q >X8X|.l n.<.9 p.L. .;.5.rXt.N t.l l 9.' a 3 h e.s.; o.W.o.#XC k D %X$.jXU %XjXcXF tXm y.#.,.> @ ",
"6.2XN h.<.>X>X9.j C %.y ] 4Xw H . P =.K W.& t < [.|.> +.rXAX2.K V /./.9.S.h.(.V.3X .!.&XZ D.] z 0.T X @ @ Y V.;.N 1.p.0X%XG > <.U a.N.( o.(.jXF.U ).p.F #.pXh.t ",
"k.Q.sXB.t.~  .+ : $ ~ R 9 @X#.F @ 3.r R M : W }.%.|...R H AX9.  O.=.z C  . .;.3X3Xm.q.7 K. .;.$ + T v p.N.3XZ.CXwXZ Z %XtXvXJ.J.pXG N _.2.4 *X$.%XaXp.S.cXF.F.U.",
"5.2X!.H.rXw.&X{ $Xg.r. Xj.; r.y.. 3 & M W.% k L L > =.C x X F # O w k ~ 4.4.m N.vX0X>.h =.s.+.Z 5.H rXp.tXNXFXa.j.7.bXN.aXtXvXjX>.2.m 4.m V.;.N.%X$.U R.$X(.F.|.",
"gXaXh.>.J.iX,.e h > p.bXQ.c D.yXZ T 6 r g %   9 7 8 OXe 0.# G q.R.9.4 #.~ 2X1.H.>.eXl 2.c / M.m k.Z.CXCXI.6.D.N.NX7.6.H rX%XtXvXjX$.NXNXwXwX3XL.U pXr.g.L D.#.u ",
"=X1.~ g.n.8 =.OXe 7 ~ &X&Xc V.NXNXi.# n.h , w f j # > =.e @.v D 4 4 4 + -X6.!.T w.F.<.Q w.D U U ;..XZ.CX=X%.x  .4.; J A V w.U jXvXa.yX3Xa.wXFX3X).S.o.( ) *X>.f ",
"C t.G X F i.c ,.0.# $ A Y ;.aXaXL. .T n ,.k ^ ;X` ; %.e V @.v Y . *.z T Z uXy.F tX$.9 V *X$.%X$.F Y  .L.V.~ 7 T _.T E.E.[.qX>X+XK.=XfXBXI.L.3X3Xa.pXF.*Xl J.eX/.",
"4 g.X F m =X_.|.=.k g.$ ~ G.N.m.5.aXl 0 9XQ U.XXXXz 8 K . Q rX=XD.W.8 _.k.GXI.M.;.L.$.w.pXNXCXI.H.h.G. .;.;.~ 9.T Q h f U.{.{.|.S.M.k.'.uXyXL. .wXwXvX<.AXjX0Xl ",
"F.>.<.X  X&XhXOXx.% # ) h.1.I.yX .lXV t h ( > 0 ^ d.d.x ) $ v 4.m w.v `.Z yX'.M.Y  .L.$.$.yXGXZ.y.).4. XX 2.2.K.q.h.e r + +XAXn.S.G &XG.Z.GXI.4.3XCXvXR.1XjXpXS.",
"Q hX9 # ; H.iXe h k   # $ t.Z Z.k.H J 0.> N J ^ E.< } x 1 + 1 r.( v !.B.j.+.sX1 !.4.gXN.gXuXGXyXm.a.I.H }.z > ( tXv ..M o.>.eX(.0XG H ).L.Z.uXCX3XL.vXn./.AXK.Q ",
"O.r . X D y.w.D V.D @ t 3 O N Z  .G.H.hX+ y . } l.qX> ; c Q Q . A e + Y 6.7.1 5 r.m .Xk. .k..XgXm k..XH X $ n.q.%Xw.* w r $ w.( pXF *XU a.NXFXCXwXaX$.l < v.>XQ ",
"B & > w.q.c ~ V.5.D.$ t d q ; #Xi.t.hX>.w , j v.[.1XF.c D.1 T T 7 w u h.5.L , , 9 1 '..XX N _.5. .4.uX5.Q h.Q *XpXn.  O 3 z 2.v T 9 #.jXa.a.N.a.wXaX%X>.E.` ..h ",
"6 k h + W.r v m j.`.; t d q & M [ O u OXt 2 = :XJXAXq.; i e.f.C 9   O T 6.~ W.$ J t.Z.I.v  ._.H.N.I.Z.I.m N.;.rXU F h.i 1 Y !.v 2.2.Q F.jXjXjX%XFXa.vXl f ^ x.b ",
"' = d oX7Xn. .Z bX+.6.  = % t , 6 r w ^ &.& x.:.qXiXQ 1 7 s o &.X.j $ Y H 5.m C.2X6.uXuXfX.XH.p.gXgX.XdXs.1..XN.J.U F.2.2XC.sX_.&Xm p.(.J.U *XtXGXCXvXn.9Xl.0 5X",
"P 3.z.I $Xm.Z.7.B.Z Z hXT.$ . }.{ . > f j M u ^ A J i K y > e O.- q k rX .I. .x 9 p.yXI.Z.6.T 6.uX'.Q.| J i Z v n.n.  8 ) M._.Y &X .N.U ).tX).tXa.4.%X#./.qXz 3 ",
"a a - *.) dXs.2.t.| 6._.J 1 1.L { %.J f @ X @ O Y !.{ ) c L @.e 3 O + rXfXVX5.+ i.w.~ H sXZ -XR +.j.f.8 `.Z c   O.t 8 9 r.D.y 0.J &X .4.k. .4.8.s. .y.J.J.+Xh # ",
"p ! e.. 1.+.Z Z 8.8.!.H 1 z O [ -.1.v % S R i <._.t.-Xc $   6 u.u.O.0.s.VXBX X9 R > h 2.6.+.s.`.+.`.H.Z HXbXv 8 MX' j  Xk.6._.%.i 2.t.c ; p.I.s.| bX( #.w.Q 9 y ",
"! =.J L 7.dX .N.M.; ) y.@.3 S ] v ;.v j ' y -.N 2X~ 2.M.X E.f ] 6 X.C 1.Z j.m.}.K [ K 7 K +.fX'.BXVXVXHXQ.+.VXB.[ %.7 c sX2X!.J 6 3 ..< 9Xn.$ [ s.fX/ z 7 G p.).",
"i i i D.fXdX) A 9 l U ( V qXAX0XJ.eXAX+XK.m  Xk.Z pXX y e n n e g @ !.bX6.Q.HXB.. C K x M r.I.+.'.uXyX.XI.sX+.8.-XY J 4 C 7 3 o P.;X6X6XZX[.OXe.A L { W e 5.Z H.",
"X -.B.8.Q.B.| e |.*X# = XXv.{.>X*XN.).b.2.$ 8 @.2.CX( V OXe.E.< =.R +.'.C.C.8./  X) f.@.V 9 q.`.fXyXm Z C.> @ 8 2.C @.9 A t P.].].d...E.qX> E.^ 4 k +   t ; N ~ ",
"j A N B.R K 9 +XV 9 O d mXv.{.|.h.y.rX1XK.4 : =.kXm r.p.V.h.|.E.J 7.Q.s.C.| J 8 R 2.> e V C x s.HXVXk.=X.Xt.w z   8 A C @.f x.x.' O.O ' O.T q.E.|.qX@.c y r # D ",
"=.e @.t.%.$ |.eXK.iX..B O E.,.iXiX@.2.lXG.hX@ 6 7 Y aXL.aX$.;.;.sX8.!.sXbXC.Q.@.e > Q T X { i =XfX'.C.k.C.6.1 7 A y { @ h ~.3 3 S O OXE.O.0.w.OX9XQ F X i { M 4 ",
"~.V hXhX> X rX).2.qX0 &.  t 7 V.K.>XlXgX4.l + ) 9 K.NXyX4.Z fXHX+.H.t.dXBXVXdX`.-X> Y 2XhXOXi +.+.V.V.G.m  XD.@ *.C   w j O.f < E.< < 8Xe ..U.E.n ,.> ,.  { > /.",
"^.+ N H h $ j.~ ~.^ d.% Y.d 1 k.L.aXL.Z.a.cXW.X 4 @ 2XHXBXBXGXGXk.. M / HXQ.2.Y c 9 7 T >Xn 0.`.'.y.n.F.N.5.( 7X2     k S ' v.6X6XZXl.} ..^ 5X< ZXPXZXn f e >X1X",
"r K | v &.f y =.:.KXnXq P d h..XyXL.NXL.).#.$Xk ,Xq x BXVXfXyXZ.j.T w r N -.t w h w ' f E.9XO 7 D.G <XT.*Xm.m $X: O   w g - :XKX;X* ^ ;Xx., T.* 0 :X:X0 u 4 l J.",
"%.i [ u p &.' b KXIXIXP.a % g.=Xk.N.aXK.K.%X9 X.% ' 9 sX`.N y K %.t.> k e { , I < E.^ 0 ` T.g B j @ 2 7XT.g.G.. ] , u E 5 *.d.XX].d P.xXq 2 9.% q % x.d * g.F $.",
"> e.p 3.q q d ].nXIXKX` s u k J -XlXeX<.K.m pX. k @ $ A M g - p X.0.T y J 6 - 0 n n l.0 ;X* W - q _ ^.^.Y.7X9.8 x , d E _ ] j xXnX;X0 xXp - < :.% W.5 x.} > D.m ",
"I o o B s = p mXP b ` d.: : d.;X< /.U.$Xo.(.U D.g.4 @ t ^.O B &.&.! [ 8.s.O.' :.0 ;Xn [.* 0 b d ,X@X@XT.^.@XY.2 zXB oX2 , W ..v.:X:.} ].p a ` :X% & : 0 0 e i.;.",
"q a o s , * x.xX3.I X.= oXd.XX:X[.<.9.9.R.9.S.D ~ + h f ,X+ z B s o u.Y t.V 0.w Y.} {.8Xw OX:.l.l #.cX<X@X@X<X2 zX_ P 5 o.g j ..d.b ` d.x.X.0 v.< d z.= t w Q H.",
"t % d : 5 ~.n :.3.t *.s b ;X:X:.,.hX>XU.cXV =.t Y ; 8 z O.C A 2 P q e.w 0 {.i 9 hXb.>XOX0.iX9X>XlX(.cXSXzXg.h.  9 =.z.s X X ] f 0 0 < E.* e n l.} ` ].= 9 X 9 ~ ",
"lX2.=.E - w e X.b e.j ].0 } } ^ 0.lXl 0 0.R A X./ +.B.`.!.K e.u 3 1 v 3 j V @.2.lX[.0 qXiX8X% M . @ t Q m j.-X) _.!.! - 6 [ $ @ 9X/.~.' u @ 9X:.XXXX].O.!.| i.V.",
"C.Q.-XoX_ O i 3 OX=.} 0 E.  r @ > K.l =.%.dX=X%.`.'.'.HX+.R f.=.!.BX.X#.c Z 0.{.b.l.;Xv.[.< < h j ! r !.8.L o.c -._.e.= z.o   + OX9X^.P : = % x.b = ' J 1.s.| j.",
"+.sXv w 7Xw ] g.# A e e.o.4   9 ; 1.j.&X_.VXBXC.bX_.-.N 1.M.c H dXVXj.D 9 c h.b.1Xn :.:.< qX1X,.q { B.-Xv V I 2XfXs.c ] ,XY.I 2 *.5 ^.,X% % :.}   . w z M.m./ &X",
"H.~ . x 7 y v G ; . ) $ k h /.+Xp.C.+.Z =XQ.y { Y Q.`._.t.r.M.=XfX'.i.{   V S.9.U.< :.;X4Xn.b.qX= : L B.v w A.M i.i i.M zX@ &.E 5 *.z iXh.4 :.d.4 1 z $ Z H 8 $ ",
"w.D ; #X2Xt.A Y c X # O % U.+Xn.G +.fXgX5.j.0.j 8 7.7.R 0.A t.m yXBXbXQ V } 0 5X<X< :.;X` <XJ.b.n o - i 7.8.& 3.& { K 9 C ] 2 & f.O :   F $ ].5X@ 1.s.6.4.r.l @.",
"(.r.4.y.#.@ : J i 2 SXI % ^ 9X>.y..XyXNX .H.h = W g O O.x.= u ; Z.GXk.w.T.d.XXnX<X<X0 0 X.O DXLXv.&.j 8 y #X1 - 6 ; 7.=XD.] $ D g.T.,XY.h ~.mXd.R.H FXGXC.H.n.lX",
"W.y.uX( A.d - A -.M 2 W I d f eXtX.XI.a.aX@.> u a *.e.d z.mX3.*.i.G R.~.I o mXnX@ k q 7 ' 6XDX[.8 i.G R.k w 2 e.+ k.'.}.e.z G.m $ + pX#.s X.&.]   % F uXdX6.0X*X",
"3.5 i k 3.: & g -.{ I a _ Y.U.>.(.D D D 2.> + & 3.% ^ ].z.z.z.a 3 T.,XP c.a a b * % ` w * qX1XJ.=X+.G > n.3 o S 8 L [ u.t.B.sX6.t.A 1 ; 6 e <.q.@ o q X wX3Xa.U ",
"_ P P I , 2 zXc & % 4XP.d.% U.|.|.9.zX]     ~.] , p ` XXP.= % t T.,X, W.g A.d 0 :Xv.:XxXn b.eXK.;.rX5 g X ( g.8 O S O.-XL..X2XT     g #  .. E.|.<.U.< @ G a.3X4.",
"4X4Xd = O + . y - z.P.5X5X: T.|.AX*XF.4 3 , & # g a b ` ! I t T.,X% - r g A.].:.PXZX:.nX[.rX$.$.F <.T.g o.pXm.1 ' j V T m  .D T.^.*.# G 5.6 x.:.[.AXb.n.F.%XNXyX",
"P.3.p ' f.J L [ - 3.P.P.<Xo.@ ~.>.).0X~.q , [ A 5 & q d 6 B.N e = o o a o z.].:XPXZX6X:X* o.r.).Q V |.g.D r.a.8 u M > 8 y | J % _ & K c . 3 = b l.1X+Xn.S.%XL.3X",
"o ! j z A 0.C + , _ 4X3.W.# O f l G ( h 8 1 X w @ $ q = O.s.Q./ 0.j W - d d 0 l.ZXqXDXl.^ &.,.1X{.|.1X+Xh ).3Xj % }.X O.S y J j s & M A e.OXt % * >Xw.r.H G.5.L."
};
