/* XPM */
static char *favourite__1_[] = {
/* columns rows colors chars-per-pixel */
"20 20 58 1 ",
"  c None",
". c #FC4553",
"X c #FC4654",
"o c #FD4654",
"O c #FC4754",
"+ c #FC4755",
"@ c #FD4755",
"# c #FD4855",
"$ c #FD4856",
"% c #FD4957",
"& c #FF4958",
"* c #FF4B5A",
"= c #FF4C5B",
"- c #FF4D5C",
"; c #FF4E5C",
": c #FF4E5D",
"> c #FE515E",
", c #FF505F",
"< c #FF5260",
"1 c #FF5360",
"2 c #FF5361",
"3 c #FD5460",
"4 c #FD5562",
"5 c #FD5662",
"6 c #FD5763",
"7 c #FD5965",
"8 c #FF5965",
"9 c #FD5B67",
"0 c #FD5E6A",
"q c #FD606C",
"w c #FF606D",
"e c #FD626D",
"r c #FD626E",
"t c #FD636E",
"y c #FD636F",
"u c #FE636E",
"i c #FE636F",
"p c #FD646E",
"a c #FD646F",
"s c #FE646E",
"d c #FE646F",
"f c #FF646F",
"g c #FF6470",
"h c #FE6570",
"j c #FF6570",
"k c #FE6670",
"l c #FE6671",
"z c #FF6671",
"x c #FE6772",
"c c #FF6773",
"v c #FF6873",
"b c #FF6874",
"n c #FF6974",
"m c #FF6975",
"M c #FF6A75",
"N c #FF6A76",
"B c #FF6B77",
"V c #FF6C78",
/* pixels */
"                    ",
"                    ",
"    uds       e5#   ",
"  sBmmNj    sBmbw*% ",
" umusdidB  smautx7= ",
" Bududddnd Bdddtuh;o",
"yjyuddssdssfsdudth3.",
"tddsddddsdfsdudtth4.",
"pvpdpddsdssdsdtdth>X",
" mstdsddddddutdtde-$",
" tVdadaddddutdtdh1O ",
"  uMtddasdutdtdd2o  ",
"    vgdddtuduhr<o   ",
"     fzydiduhq,+    ",
"      dcdduk0:@     ",
"       yntl9=$      ",
"        uN8&        ",
"         6+         ",
"                    ",
"                    "
};
