/* XPM */
static char *_630541427407[] = {
/* columns rows colors chars-per-pixel */
"50 50 2 1 ",
"  c black",
". c None",
/* pixels */
".                                    .............",
"                                     .............",
"                                      ............",
"                                      ............",
"                  ...............     ............",
"                     ............     ............",
"                        .........     ............",
"                         ........     ............",
"                         ........     ............",
"                         ........     ............",
"                         ........     ............",
"                         ........     ............",
"                         ........     ............",
"                         ........     ............",
"                         ........    .............",
"                         .........   ...   .......",
"                         .......... ....    ......",
"                         ...............     .....",
"                         ................     ....",
"                         .................     ...",
"                         .................      ..",
"                         .....                   .",
"                         ....                     ",
"                         ....                     ",
"                         .....                   .",
"                         .................      ..",
"                         ................      ...",
"                         ...............      ....",
"                         ...............     .....",
"                         .........  ....    ......",
"                         .........   ...   .......",
"                         ........    .............",
"                         ........     ............",
"                         ........     ............",
"                         ........     ............",
"                         ........     ............",
"                         ........     ............",
"                         ........     ............",
"                         ........     ............",
"                         ........     ............",
"                         ........     ............",
"                         ........     ............",
"                                      ............",
"                                     .............",
"                                     .............",
".                                   ..............",
".....                    .........................",
"..........               .........................",
"...............          .........................",
"....................    .........................."
};
