/* XPM */
static char *_630638058812[] = {
/* columns rows colors chars-per-pixel */
"80 80 132 2 ",
"   c gray10",
".  c #2D2D2D",
"X  c #313131",
"o  c #323232",
"O  c gray20",
"+  c gray21",
"@  c #373737",
"#  c #3A3A3A",
"$  c #3C3C3C",
"%  c gray24",
"&  c gray25",
"*  c #414141",
"=  c gray26",
"-  c #434343",
";  c #444444",
":  c gray27",
">  c #464646",
",  c gray28",
"<  c #484848",
"1  c #494949",
"2  c #4B4B4B",
"3  c #4C4C4C",
"4  c #4E4E4E",
"5  c gray31",
"6  c #505050",
"7  c #515151",
"8  c gray32",
"9  c #535353",
"0  c gray33",
"q  c #555555",
"w  c #565656",
"e  c gray34",
"r  c #585858",
"t  c gray35",
"y  c #5A5A5A",
"u  c #5B5B5B",
"i  c gray36",
"p  c #5D5D5D",
"a  c gray37",
"s  c #5F5F5F",
"d  c #606060",
"f  c gray38",
"g  c #626262",
"h  c gray39",
"j  c #646464",
"k  c #656565",
"l  c gray40",
"z  c #676767",
"x  c #686868",
"c  c DimGray",
"v  c #6A6A6A",
"b  c gray42",
"n  c #6C6C6C",
"m  c #6D6D6D",
"M  c gray43",
"N  c #6F6F6F",
"B  c gray44",
"V  c #717171",
"C  c #727272",
"Z  c gray45",
"A  c #747474",
"S  c gray46",
"D  c #767676",
"F  c #777777",
"G  c gray47",
"H  c #797979",
"J  c gray48",
"K  c #7B7B7B",
"L  c #7C7C7C",
"P  c gray49",
"I  c #7E7E7E",
"U  c gray50",
"Y  c #808080",
"T  c #818181",
"R  c gray51",
"E  c #838383",
"W  c #848484",
"Q  c gray52",
"!  c #868686",
"~  c gray53",
"^  c #888888",
"/  c #898989",
"(  c gray54",
")  c #8B8B8B",
"_  c gray55",
"`  c #8D8D8D",
"'  c #8E8E8E",
"]  c gray56",
"[  c #909090",
"{  c gray57",
"}  c #929292",
"|  c #939393",
" . c gray58",
".. c #959595",
"X. c gray59",
"o. c #979797",
"O. c #989898",
"+. c gray60",
"@. c #9A9A9A",
"#. c #9B9B9B",
"$. c gray61",
"%. c #9D9D9D",
"&. c gray62",
"*. c #9F9F9F",
"=. c #A0A0A0",
"-. c gray63",
";. c #A2A2A2",
":. c gray64",
">. c #A4A4A4",
",. c #A5A5A5",
"<. c gray65",
"1. c #A7A7A7",
"2. c gray66",
"3. c #A9A9A9",
"4. c #AAAAAA",
"5. c gray67",
"6. c #ACACAC",
"7. c gray68",
"8. c #AEAEAE",
"9. c #AFAFAF",
"0. c gray69",
"q. c #B1B1B1",
"w. c #B2B2B2",
"e. c gray70",
"r. c #B4B4B4",
"t. c gray71",
"y. c #B6B6B6",
"u. c #B7B7B7",
"i. c gray72",
"p. c #B9B9B9",
"a. c #BBBBBB",
"s. c gray",
/* pixels */
"I )  .^ O.#.L E ..o.7.e.:.<.<.` Q ` ( _ &.*.T g ^ ` ! R G S d A X.] G F R ! E n T O.T ! O.;.' ! L _ ^ I / | ` / { =.%.3.] { X...} ' K W ] { n K E [ M B L ' ' ! ",
"E Q ^ ~ { [ E ` &.$.6.r.3.5.,.^ ) ' ! ^ %.:.( N ! / R R Y ! V Y ! / E Q P V Y ( L >.R ( O.*.@.T K ! _ I H [ &.] ' $.o.;.] } X. .( _ ^ J { ' F H E z I ( A ) ~ } ",
"' ~ E _ / E ] |  ...,.5.-.-.%.! Q _ ) ` &.:.| E ! ! Y E ! ..T ^ ] ' ^ ` U m R o.D $.S )  .` o.R J I { ' L _ *.{ ~ ..| ;.%.@.] U K { @.W ( ` R ~ ! j C ^ I { ^ { ",
"+.| )  .W U O._ T / @.%.|  .O.{ K ` o.+.*.&.X.| ) / Q / / @.( ' %.] F J U P ~ ~ I ^ V  .X.W ^ ] ( ] *.>...( / ~ } $. .*.3.1.#.~ ( $.&..._ X.T ! ] *.B U [ _ _ ` ",
"@.#.o.O.E W #.Y W ^ ] } { o.%.%._ X.+.#.-.&.o.o.' ^ / ] ^ X._ } O._ M x S E ) L ~ W / =.#.| U ` +.9.2.@.$.` H U  .*.] W ` [ $.$.<.O.$.X.-...P A %.s.`  .o.Q _ o.",
"o.+.$.X.E ) o.J } ) W ~ | $.%.@.1.&.] [ *.-.O...^ K T ' T ) ! } %. .I H K I ) ^ R ( &.#.] %.J A ` w.@.S ~ [ T ^ } 2.%.W Q L ' +.O.W <...2.L P K *.| ] >.+.o.{ $.",
"$. .$.{ Q ] _ I { _ E E ` } | X.1.O.! ^ O.#.X.o.( A K [ R ~ W ..,.Q C ) | I Q  .^ X.#.{ R X.E N ! %.` A T ) ^ [ @.q.3.X.,.X.o.} E I =.=...D V L / W I +.&.-.X...",
"1.| #.] ~ ] E E ! ` _ ~ ! W _ #.{ ` ! ^ { { } %.o.J Y @._ ' ) $.%.i ; W ,.E P } *.,.} | W { o.~ o. . .o.} E T _ } #.) R 8.4.-._ [ _ W 4.E ` p d N 0.Y ' =.] | [ ",
"*. .K I ^ E ! Q W ) _ / ] @.o.)  .U _ ;.{ [ Y O.&...X.] I T ) ! o.O.J _  .o.] +.=.Q ) _ R ~ ) ` ( ) ~ ' ) ^ ' T } #.@.@.<.<.+.{ >.E F ;.R Y x j X.q.H L 1.W D o.",
" .[ ! / T G ( X./ Q R ! { @.#.O.O.| O.) Y X...+.%.{ [ ..} _ ( ~ $.1./ E E %.3.2. .x T } ` X.Q S ( ..@.#.( W O.#.` :.*.#.5.1.*.q.>.! T *.P F I ..$.5.( T +.O.o.&.",
"P Q ` { I F ( ~ ~ R R ) | o.*.1.U ! ..U P ' { E  ._ ( O.;.X.~ ~ %.#.` X._ X.4.w.-.m Q ..] $.] Q | O.+.&.} _ #.+.! =.+.| ,.&...7.u.=.*.$.V i D O.H E <.y.5.&.@.2.",
"..] { ..^ _ @.R E ! ( ' { X.=.4.I I ..} O.] | ( W _ ` ..;.O.Q !  ._ ` =. .] :.1.&.^ / ' W U ^ o.@.@.O.=.O.] .._ _ #.+...=.-.@.$.>.:.8...J n ~ ..} ] w.1.( Q U O.",
"p.} P ^ Y Y  .' ` ` ~ R ( #.-.$.} ~ | o.#.( O.@.L ..@. .+.o.` _ ) | X.} )  .2.X.{ <.}  .{ V K { +.&.=.,. .~ | | Q ) o.| / { @.[ ] =.9.{ } o.<...&.,.<.N B ..U L ",
"w.W B ^ U c K ' *.} L Z ! *.=.] | [ [ } ' W } _ T %.,.o. .#.@..._ { o.+.#.| =.| [ 5.| | $.Y L ^ @.X.} O.] ~ .. .R / +.} C c L ^ [ %.,.[ =.1.1._ ! @.*.H _ 3.^ ~ ",
"o.` Q  .[ P R ^ =.| R I ) @.#.} X.#...:. .( [ ~ ` O.=.+. .&.;.O.] ] | $.<.(  .#.! Q ` ~ ` } U P [ / W { ] ^ [ ( ] #.;.=.~ t y / _ ~ ` X.<.@.[ ` o.o.@./ ' X.( #.",
"Y #.{ E /  . .P  .| | ..| { X.&.%.@.) 1.} Q ( ] ..'  .O. .&.:...] &...U ' ^ %.:.L l &.o.] 7._ U K Q { &.' P ^ ) ^ o. .-.*.w $ E +.W ! >.1.I v I ( ! ^ U ! &.#.' ",
"..$.] Q ' ` U L ^ ' ^  .-.&.,.4.$.( ` { } ' ! [ ..` ' 6.,.2.O... .4.X.) E | | ` W ~ ( ) =.*.=.) E / @.#.I / Q ^ X.$.] &.+.R f Z { ~ [ *.#.g N [ H { ( J ~ ` Q ( ",
"%.&.X.` ] ' Q Y T ~ F H _ +.>.=.@.` } ` / ` R P *.] ] w.4.&.' ....3.;.O._ X./ ^  . .} ] ..X.%.+.X.| [ / J ] ~ ^ | #.[ | @.o.E T ( $.#.=.O.' {  .E ' _ )  .[ / [ ",
"%.o...} _ _ _ ! / { J V E o.-. . .)  .) W } ^ Z ) ^ ] 4.<.@./ _ o.#.*.@...;.W ^ ~ / ] +.#.#.O.+.{ O.} ( ! +.~ Q ~ ! ) [ =.&. .W  .&.| 2.$.&.@.$.} _ ` O.#. . .&.",
" ./ ' [ ~ ( } _ ' +.^ R _ ..$. .' Q { _ ^ @. .I ^ { ) E ~ | { _ R ! +.| ( +.Y +.| ` | &.&.@.^ ~ { >.&.' ~ ..R ^ ` H E ) +._  .| *.O.` ;.#...o.o.+._ ) | } } $.>.",
"} Q ( { / ( } [ ^ { ( ] } ( ..*.} ~ ` ^ / @.O.` R { ] W ] } Q F b I &. .L ! K <.,.X.+.} { ..} ;.6.q.+.P A ^ Y [ &.~ Q P E T *.9.+... .{ | } :.{ @...| ' / { $.%.",
"#.] ] ..} ` ] { [ ] ~ | } U _ ;.@.| ` K Y | } ..T E W / -.[ J Z I ( o. ./  .W #.:.X.<.^ ~ ^ X.0.9.:./ F C _ ! { } | ` K Y ' >.6.X.T ^ [ +._ ,.$.$.2.<.X.[ O.$.@.",
";.+.{ X.@.' ~ ' $. .! ..@.! ) #.@.-.` x Z ] } &.*.) V x ' ) ( } | O.) ` [ =. .X.2.X.9.T ^ I Q [ %.] / / U { / ` P ` ! ! | *.o.o.o.H P &.*.{ ;.-.+.9.4.o...+.@.;.",
"-.@.' | %.' T _ +.] R X.>...} X. .2._ t b } O.2.:.+.U v ..+.[ ! ~ #.( ! L ) +.<.$.Y #.m { [ o. .+.] o.#.Y ~ W _ T ! D _ -.>.( |  .' / ;.o.4.8...[ <.%.( ' ] ..5.",
"<.;.@.` ^  .o.^ *.U ) E O.&.#.#.+...| J b 2.~ [ #...X.]  .$.` Q | W @.L .._ z X.:.L = P A Y @.| @.+. .} ` P S U ] G ^ I ..;.*. .| ] *.%.^ } &./ ~ +.>.:.=.O.X.&.",
"w.:.} E Y [ $.O.+. ._ T ! $.@.@.W J ^ >.-.1.i 4 I X.4.%.+.*.` U E U ( ] +.Z > } 2.P k Q A d ^ +.%.$.@.O.[ F x m J M ^ Q  .O.O...%.' ' %.-.#.@.&.+.#.$.>.4.;.*.4.",
"6.*.O. .' {  .] ` } ! ..! ' ' ' ! H J ;.4.<.m x ^ } @._ _ ) V h L ( ! #. .k > &.o.H [ } Q h Q | +.$.&.%.{ A g l Z M ( ' { ' } O.[ ^ P / #. .' -.5.=.#.4.t.1.$.>.",
"O.{ o.&...) ~ R / M C <.` G ` { '  .W ^ ^ O...3.5.X.W D S z 8 d K  .` ] L k M ,.%.T O.J G T :.2.} #.*.#.' D M H ! I ` X.} _ | #.) ..[ W / o.=.>.=.%.*.7.y.,. .X.",
"+.` _ ) Y J T ~ | e b *.^ b $.X.E *.#.[ Q ^ ( ,.4.;. .U Z p 7 C P ) } R N l ` O.o.T  .Y F X.:.;...:.>...! J I ] o.` ' &.@...o.o.} } ..! L $.e.-./ o.-.2.6.-.X.X.",
"7.$.} ( K D K I ..v ! @.^ S  .K E { %.&.$.^ A +...<.;.~ E A e s ( ) +.^ P C { ` ( P ..=.W ` R E &.9.4.[ T Y /  .X.} _ :.*.&.$.| o.L U ! T @.0.&._ $.:.=.&.O...@.",
"7.-.%.$. .( L b W ^ $.O.{ _ P m ^ E ..+.,.) g _ ( *.@.W ) T y r ..*.O.U U R ! [ &.( ' [ C H U R &.e.5.` W ` [ _ ] ..) =.o.$.-.O.+.R Y { +.;.7.6.&.-.=.*.%. .[ @.",
"@.| o.;.<.*.~ x Z | .._ | $.Z ~ U P $.o.;.E & p ^ @.o.Q ~ D g U } q._ f x ^ G | &.{ ' E V I ` J X.9.2.) ( @.X.Q ` +.) @.(  .:.=._ ] ` | ;.:.>.r.:.#.o.=.<.O.{ %.",
".... .-.y.e.o.T ..) K *.;.' G K ( O. .O.*.H 6 e d r / >.H N ' } X.>.c O l ( S E [ ( ^ ( ! Y U Q { #. .~ / } | ..) / { +.R X.%.,.) ] ` ' :.+.>.-.>.1.;...` P C ~ ",
"| .. .#.1.:.` K ,.$.W ;.o.m S ] ' &.#.2.:.A s l 1 % k _ Y R +.@._ ~ m e F } T U [ R K T ( ( ^ ^ _ .._ T J ( O.3...U ' #.} ] @.$.( } X.X.:. .%.+.$.4.6.@./ Z v P ",
"^ ` ] } .. ./ P %.=.#.8.o.q v ' ' @.&.9.>.I Z n y b J x q A &.>./ N C H Q o.] Y } W L R ) ) / ^ / ) P Y F )  .,.{ ! X.`  .%.0.{ ! ' o.$.4.+.#.( E #.1.>.#.` ! ) ",
"D H U T R / / Y W | 3.;.` r j E [ `  .' / } / Z N { $.J i v ! [ ) V D L Y [ ' R ! E ! _ _ ~ ~ _ _ / P R N U / $.&.#.$.' } 1.p.| ^ )  .=.w.1.<.) / %.>.3.3.=.X.! ",
"m n V C C U Q H L ( 2.E J Z A / _ ! X.m x =.#.^ m M Q >.>.E C K _ ! T A K ( W W P U / X.+.| { | ' _ ^ ! v C W o.5.;.` #.| X.#.} ` ] @.%.,.;.e.-.} &.@.%.+.| o.Q ",
"G V S Z m L W Z P ' :.~ ( O.' { U ^ :.K M &.&. .U v B } %.) W [ / o...Y ~ { ! _ ] / ' *.5.<.$...' R / ' / ( ( F W #.H U U ] ` Y ^ { =.X./ ~ 9.9.#.;. .] L S [ _ ",
"U G I J M P ^ S F [ [ :.2.=.X.( T ^ ) E D L ' { / R E Y F J ~ ` K ` &.} ] X.] | O.[ [ %.1.:.#.X.` P }  .;.$.o.b s +.N 7 V O.=.R U ` :.O.R P <.>.0.9.O.[ B p K F ",
"G A I J b J / G C _ Z 7.9._ [ T ..Q e z g 3 L ' n C } 1.{ S l u v A ..o./ ' } | ~ W ^ [ | { ..$.` ^ 2.| | / :.( n %.m - I #.0.%.I ( <.>.| ) <. .,.&.^ ' G j P V ",
"[ W A d s I ` H m / ` #.&.X.E X.&.~ @.[ h J  .l N B S ..;.! h : > z { +./ ` +.} R m E C L ! ^ *.@.-.%.<.3.+. . .M j ' Y Z H [ #.{ ] *.;. .@.&./ 4. .x F } ( ' [ ",
"] R V x Z / ) L B E ~ } $.@.( _ ^ Q / V l O.%.8 H L v ' >.U B m e b _ %.o.[ } | P m ( K U W R ` } -.o.U ~ &.$.[ H p f E ~ ` @.O.<. .| O. .X...~ ~ { ' ..&.$.$.O.",
"@.] D N Q ] W P E E T I Q / ( ~ ) / m , y %.3.D K ^ H $.3.C u u 6 b T / ` ' | $.A x ^ K G U E E Y R W C W ;.} _ m a w X.} /  .O.:.O.X.&.*..._ / y v ] =.-.>.%.+.",
"*.*.U V _ { R ! ` ! / Y Z c A J { ( v 8 f U [ +.Y T Q &.4.^ q X 5 Y [ L H I G Z S m ^ J P { >.-.D a A ! #.o.b D g z A =...! / ) / o.*.-.$.[ ` X.s 4 S } +.#.' } ",
"_ &.~ F ] } Q [ Q ~ ..X.S e u m Q ^ W Q R v x ~ ! Z ! ! | 7.Y , e Q | Q ! Q B p V C E C L o.q.5.I v I ~ o.] t w n n / / ..o./ J G  .-.+.| } ..#.] v D E ^ { ( [ ",
"J | _ W { ~ J ` ) ` ~ ' N f a H ~ ) [ { Q V Z ~ P Y o.P C +.X.K P T T ! } | Q J J ^ ( N L ` @._ ! ..X.Z U %.G 9 n N ' C R ] / E J { ;.-.*.:.%._ ;.' E S S ! ' { ",
"A R W ) ' A n ( %. .j v j T S / ^ ! _ Q Z H ` { L +._ F M A `  .;.] R U U E W P / ;.o.A ^ [ ` J Y ,.%.A U ,.{ p c U ' I A S ! &._ { =.,.-.<.-./ +.o.U A S G Q ( ",
"B M A / / x c ..;. .1 9 k -.E W S A ` ] V S ! K { >.t s Q S ] +.^ ! ^ L M H R A D O.~ j W ` ^ F G O. .^ { O.E t F | ) @.P M ~ 6.:.{  . .~ } :.$.$.o.G T ~ B A I ",
"G C N Y ) D m Q %.W g b S [ ~ E U V _ X.z Z U U [ #.4 m f Y { =.E f E | U T &.W J X.W q g H ] U L | :.X.( | W r s K T 1.R c ' 5.=.[ } I G [ +.,.Z Y U _ ..( ~ W ",
"Q Y F U ] ! D H ~ Y ( ! ' H U Q / D ) [ j J ^ Y ^ L z +.H ]  .F r m o./ A L ] M I @.4.S 4 K o.c N +.*.~ ` %.^ j 7 N T G M G  .X.W H ` [ ! ^ [ 2.I { ) ) X.#.@.) ",
"W / W E ] [ R F C H ` ~ W h B ~ ] E ` G 3 H W p l r M O. .o.{ P M ) [ b A Y m + V O.a.A - W >.Y b / ~ P _ _ L L v j S h Z K ^ ' I S ! _ W E _ -...#.W J E ( ] ! ",
"K )  .{ ' ) E K Y ^ G K N A F X._ ` ' l * W ~ , 1 s Z f ;._ D ) ^ | A 6 U _ b ; v o.t.g i ! } } U K T [ ` S H @.` N z V / Y E ] ( ^ _ ! Y ^ ( W o.] H I Q K R ) ",
"! { =.-.} T F C D E n b A ` ( #.^ W R b u O.O.z u ( ) . ' ! b n E -.) d L H A E ^  .9.x I G V S J D [ +.H M T ) } ! d T { Q E ! ' | O.X.( ! W D Q ~ R  .#.) ] @.",
".. .-.<.} J m j 4 c A b ..#.$.@.` A c V A  .' ( R >.{   t / ) d V =.3.Q Y k S <.7._ X.b Y C A b v L *.} v P ] c } / i [ ..V n K [ | +.-.) D ! { (  .( / ) Q ` } ",
"Y W o.$.W Z N c u J ^ R 2.=.X...+.H a z Z T F ] { ;.Y + O J [ F f S ..;.@.f m 5.9.+.Z y G U L I L U { ] U ( ' N Q U M ] X.b g I _ } | #.W Z [ -.| ..T L P G E ( ",
"r n _ ' C b H P ! $.~ ( { ' m G :.' l p n U Z ' / *.D l o i k E C p E u.3.< 1 } $.u.k 4 U ' v Y ' k s R ` S M P j L ` J ' Q P ! I {  .o.^ R X.] ^ Y G ] +.~ _ $.",
"( b D 1.A ; H ) [ R %.F n P g A #.;.Q M Q o.' ~ / v @.E r @ k M L ~ B T i.m & ! { q.! d ( O.n u Y m x P Q u V I y D _ U Z _ +.T G ` X.` ( [ ( J C S T D { $...` ",
"$.~ W o.A q Z P ' *.o.H v J S F { | ' ! E E Y P F h N O.M e A R L h D E 2.C G ' >.( S L | Y D m c G T R Y S Y Y z b H U T [ | Y G H T _ ] ( ! ~ ^ ~ ` P } +...} ",
"{ [ ! U F M m B ) 2.D N a l T ) ] W ~ ( I S G K m C x *.W F ' { c M W ! $.R ( X.O.K b T / p b P j H ~ T J ^ U J H m S / [ ] ` ^ J F P / / E ) $.@. .X.Y ` _ Q W ",
"D ! R S ! E v B | ` * h m Z I ! | Q G J R Y Y ^ N _ ( ( Q Q @.! K O.] U c ! ] o.Y X.m V R c j G I D K Y K ( N A Y H R { ] W ! { I ! _ ! I Y } >.O.{ } U ' ) Y L ",
"B Y T Y o.' A ^ :.F . d ( &.I x Q ` L F ' [ ! { A { ..J L | ) m R | #.Q q ) #.v Z %.F L ~  .D b ] U Y ( R ^ b S P Y Q / ~ T Q { R Q ^ ! R R (  .{ ) _ K } +.{ ) ",
"S J H _ $.) ( 2.-.I 4 g G +.! m x ~ _ ! ] ` E ^ L Q Y R Y ;.K d b ! { l L } | a a S ~ #.Y [ L v E ^ ] ` R R S D J T I P / ] ' ] Q Z C ~ { W J L ] ' ] F ' %.+.[ ",
"I F C  .o.I ..9._ T B V h A { ) l G  .X.E E ( R W Y S E ~ | I t y ( L , | ) T ( a r ( ..R F c M J Q ~ R U D I F Z P J J ' O.} { ! A V E [ ~ H A T ' X.G / +. .! ",
"' Y F *.} V } *.K Z Z ( D b +.[ P V  .=.J E *.( ! E I Z Q N ~ 5 # Z R K -.) S ^ P a P V #.I r b Q U A D R M R K z G H K _ { _ } ~ ^ W U R / Q K c ! #.U ` $...E ",
"=.T U %._ b J ] ..M a / ) G / ] L T / ( J L } { T X.P C Q W C d 4 m @.,.( K L S Y ^ U } R J v f k S I F H M R U j x U ^ E | X.H Q S P I F I Y R v P [ X.{ _ ~ Q ",
"..T U o.( v D _ { D c N J L W M K W T H Y o.@.U H @./ G Q ~ D a N I _ Q F J T U T | #.] w l U v y z A F I V T U m M Y E V F Q L C L H D H S F U E Y ^ ..| E I Q ",
"! W L { =. .` ^ ' E K 4 a I ` B H ' E m ~ e.6.! v  .@.} ^ V f e M Y Q I I R W ! ~ X.` C , s E G B B A G R D ) [ D Z U U v l V V n _ L K ~ K K P ` R Y / ( Y K I ",
"I _ Y ~ %.*.#. .l D  .a m E / N G o.[ M R 7.<.[ I [ O.2.&.F n A v Y / ) ` E L ^ o.] u 7 n A F W L Z C G T N U W H J E W H D C j C | Q ` ] T / D I R I F H T P V ",
"L ) Q ! Y m T >.l C { k C G I G A ) ] A I | W U W U J | &.' [ o.' ` Q ! ^ F Z / -.T 2 q ~ Q K R F C H ~ { A G A V R ' ( ! ) R n M ^ { $.I V _ M D Y Y S A L F c ",
"A V J @._ p v o.] ! T s m N P ^ b n U U ( ] C C u C L Q ^ ' %.@.=.' P L P A S ! X.N h N H K _ A K F P /  .L R I g U ` T I / ^ J v P @.*.v s Q S U U U I H A V N ",
"p y B =.&.G C H Q } ~ J R L R Q n t G ) ..X.F G q H _ _ E ) &.X.^ R Y K B V I ! E k m F S S } F P F S F T C T T s S P S J Q Q U G I ..{ b l Y W Y Y I K K P I P ",
": r A _ ! P I c C O.( R Y Y {  .G u I } | } H U Z A N S L ( #.[ V U ` K i j T ) L z f N ) U ` / R T Y U ! S R P c V B Z W _ W P ( R ! U D G P ) S T P M S `  .~ ",
"C h c G ! K g c ..` Y ^ C J R [ J v R +./ W { ] ! P A ~ ~ Q ..R G U X./ q m ^  .K f b R L F K A ^ ~ E _ ^ R ^ L K L J G J Y ~ _ ) ! ^ T S Y / P F N C J P W / Q ",
"B C P H A B F @./ n Y ~ Y C n Q ' L S / &.X.^ ~ / P L _ ( ( +.X.l 9 b ( F E ` $.M z J / Z f M U  ._ W ] { ' ] P B I J N Z P E ( E I R Y D I ^ T Y C B K W _ ` E ",
"! Z l f D ^ Q ] ^ N o.! K k t M [ W f n :.;.Y R / K W / ! ) | &.G 7 0 D S W ^ @.B S ! _ A i c ~ { ^ U ) { [ _ A C Q D k D T K I J Z G K S S P U W H J Q ( ] } ` ",
"Z S D v N G Z K _ X.5.R c c x j J I g h ..*.! ! ~ P ( R T ' / | { D h g d P U ) W ~ Q R L V Z R R Y L ~ / ! W m T ) Z x W ! V V P S D K D M B G Z C P W I P ^ { ",
"l U  .Q G A v Z ( 2.X.R m R ` M f J T L ^ | ` W R R _ L R ..Q E Q H h i k ! P R ' _ L C K R L S S U W ` ~ T W Z E / H J [ T v D _ E I Y K n x B d d M F m v G E ",
"K W ] _ ..o.I S ` #.D ( ^ +.&.D i H O.O.~ ! Q D H T R F Q | E H H j < 8 B ( D W ^ E F n V U I V C T / ] ! R ( P F E W _ } J M ~  ._ Y I I N j b c f c D A C H I ",
"C K ~ ^  .#.( / ] ( H [ $.*.&.I M K [ #.{ R G S G R F L _ / T J ~ M 2 w F ^ N Q Q F S G A K T F F T E ^ Q ~ { E Z U ( } { T I ' ..[ Y L E J m B F M S R I J U W ",
"z k n A ` @./ ! ~ R } [ =.&.=.` ! I L [ &.^ F R T ^ S ~ X.E R E  .` N N ! ] N T _ V D ~ Y Y ~ U Y E I E ~ ] +.^ J U ^ [ | [ _ ( o...W Y ` ( L I A V P ! H N H ! "
};
