/* XPM */
static char *lunar__2_[] = {
/* columns rows colors chars-per-pixel */
"78 78 144 2 ",
"   c gray10",
".  c #1D1D1D",
"X  c gray17",
"o  c #2C2C2C",
"O  c gray19",
"+  c #323232",
"@  c gray20",
"#  c #353535",
"$  c #373737",
"%  c #393939",
"&  c #3A3A3A",
"*  c gray23",
"=  c #3C3C3C",
"-  c gray24",
";  c #3E3E3E",
":  c #3F3F3F",
">  c #414141",
",  c gray26",
"<  c #434343",
"1  c #444444",
"2  c gray27",
"3  c #464646",
"4  c gray28",
"5  c #484848",
"6  c #494949",
"7  c gray29",
"8  c #4B4B4B",
"9  c #4C4C4C",
"0  c gray30",
"q  c #4E4E4E",
"w  c gray31",
"e  c #505050",
"r  c #515151",
"t  c gray32",
"y  c #535353",
"u  c gray33",
"i  c #555555",
"p  c #565656",
"a  c gray34",
"s  c #585858",
"d  c gray35",
"f  c #5A5A5A",
"g  c #5B5B5B",
"h  c gray36",
"j  c #5D5D5D",
"k  c gray37",
"l  c #5F5F5F",
"z  c #606060",
"x  c gray38",
"c  c #626262",
"v  c gray39",
"b  c #646464",
"n  c #656565",
"m  c gray40",
"M  c #676767",
"N  c #686868",
"B  c DimGray",
"V  c #6A6A6A",
"C  c gray42",
"Z  c #6C6C6C",
"A  c #6D6D6D",
"S  c gray43",
"D  c #6F6F6F",
"F  c gray44",
"G  c #717171",
"H  c #727272",
"J  c gray45",
"K  c #747474",
"L  c gray46",
"P  c #767676",
"I  c #777777",
"U  c gray47",
"Y  c #797979",
"T  c gray48",
"R  c #7B7B7B",
"E  c #7C7C7C",
"W  c gray49",
"Q  c #7E7E7E",
"!  c gray50",
"~  c #808080",
"^  c #818181",
"/  c gray51",
"(  c #838383",
")  c #848484",
"_  c gray52",
"`  c #868686",
"'  c gray53",
"]  c #888888",
"[  c #898989",
"{  c gray54",
"}  c #8B8B8B",
"|  c gray55",
" . c #8D8D8D",
".. c #8E8E8E",
"X. c gray56",
"o. c #909090",
"O. c gray57",
"+. c #929292",
"@. c #939393",
"#. c gray58",
"$. c #959595",
"%. c gray59",
"&. c #979797",
"*. c #989898",
"=. c gray60",
"-. c #9A9A9A",
";. c #9B9B9B",
":. c gray61",
">. c #9D9D9D",
",. c gray62",
"<. c #9F9F9F",
"1. c #A0A0A0",
"2. c gray63",
"3. c #A2A2A2",
"4. c gray64",
"5. c #A4A4A4",
"6. c #A5A5A5",
"7. c gray65",
"8. c #A7A7A7",
"9. c gray66",
"0. c #A9A9A9",
"q. c #AAAAAA",
"w. c gray67",
"e. c #ACACAC",
"r. c gray68",
"t. c #AEAEAE",
"y. c #AFAFAF",
"u. c gray69",
"i. c #B1B1B1",
"p. c #B2B2B2",
"a. c gray70",
"s. c #B4B4B4",
"d. c gray71",
"f. c #B6B6B6",
"g. c #B7B7B7",
"h. c gray72",
"j. c #B9B9B9",
"k. c gray73",
"l. c #BBBBBB",
"z. c #BCBCBC",
"x. c gray74",
"c. c gray75",
"v. c #C1C1C1",
"b. c gray77",
/* pixels */
"/ _ ] %.$.' ..$.2.@.c.0.6.e.#.] / }  .-.e.J S | X.~ ~ _ D b T :.` L { J ..U P ..{ ^ | w._ +.P _ ) ` I | *.<.[ X.4.5.] 2.o.X.;.` E ' @.T I ` W ~ R H ~ [ -.` ",
") _ { { ' _ '  .y.>.j.q.8.4. .E ;.] E :.s._ H ^ [ ~ Q _ ] } [ / [ / / A E ..) #.X.! &.&.$. .^ I  .' ~ &.+.| ) ;.$.<.<.O.{  .H ;.| ! { } R } P x T / .. .X.} ",
" .| %.) ~ X.' | _ =.q.X.O.;.$.V  .#...<.1.&..._ ^ _ ..o.#.O.O...' | ' ( P @.T  .E P $.` o.) [ Q -.+.` } | 1.>.@.#.-.u.<.$.#.G 2.2.` o.%.K [ | R H ` .. .' @.",
"%.#.3.) ^ ;.} ..F %.2.o.#.=.9.) { >.,.9.+.:.,...' ] @.@.@.^ +.e.U S S ^ T X.K { W [ 1.&.} ( @.4.<.7.0.$.P ! #.%.<.] -.8.#.&.>.,.-.@.5.+.K / 9.e.(  ._ { ` :.",
"-.%.5._ / ;.' ` X.| ` &.5.] <.6.e.#.] e.<.=.@.] ] ( ` / %.[ %.8...G H I ^ +.~ ' #.=.4.%.| H ..q.,.] ..$.~ G | 0.3.T )  .` $.7.1.[ ;.0.^ ~ Q 3.1.1.,. .O. .<.",
"<.*.>.[ ` @.( / ;.] J ~ -._ &.1.6.../ :.;.*.%._ H ^ { I %.+.=.&.Y T ;.) ~ { } { <.o.$.W $.B } *.=.I G Q O.o.>.6.>.' 1.[ O.=.^ #.%.4.*.Z R R O.! O.:.<.1.$.&.",
",.#...} } { ` ` | +.' T @.%.>.%.) X.+. ...+.3.+.S { =.T O.' %.,.2 l :...Q ' +.:.:.O.{ E 2.^ &.#.O.&.*.^ ' ) #.;.=.%.s.1.1.%.^ ! :.3.[ G j G +.{ P o.7.;.#.X.",
"&.} Q ' { / ] } R  .&.[ %.} { o.` { o.X.%.` :.:.{ +.%.T +.W @.e.F A %.;. .$.$.2.{ $.Q _ #.X.o.| X...../ @._ o.2.%.O.,.9.#.' r.Y ) @.] { 2 n -.9.E @.3._ [ o.",
"9.F  .X.I R -._ ) } ( O.<.#.#.-.*.3.| >.' | 2.O.} { :.@.~ ] @.*.,.X.W Q &.e.2.[ Y ] X.' &.L F 1.&.$.X./ ;.O.+.$.<.4.7.u.;.7.a.m =.{ [ ~ _ ' 2.e.b [ -.U $.r.",
"H | $.{ J _ E ` / / _ @.$.;.8.*.x 2.J P :.+.~ :.,._ O.3.-.[ ' <.+.2.-.X.1.i.:.Y V ' :...&.' [ :.O.>.-.) =.*.%.X.*.4.:.<.2.e.3.2.:.&.N h +...Q <.3.p.u.:.3.j.",
"` ,.&.{ ' 1.[ [ [ ^ { *.O.<.t.[ U 4.{ | =.O._ / %...&.:.:.X.( $.} #.O.#.7.7.:.<.! ` &.X.X.] %.%.<.-.$.+.<.| [ =.&.-.w.' 2.7.2.i.y.@.M A +.#.' =.r.<... .' 8.",
"s.R _ ~ Q [ :.( ..) _ %.=.2.5.^ [ } #.:.) X.<.U | =.<.@.@.X.( O...3.;. .$.:.;.2.;.O.O.! T ' 8.@.5.:.O.+.=._ ( >.,.] -.X...>.>.>.r.#.| ;.%.$.:.8.;.R I ~ P { ",
"r.V _ ' B Z &.X.X.` K ` ,.,.*.| } ;.$.[ | ..O.{ :.-.-.%.:.@.` =.%.&.*.3.7.@.| ,.$.;.*.W J _ t.@.} 3.*._ ] @.X.X.<.[ Z { K &.o.&.O.<.8.8.1...+.r.#.U O.%.[ T ",
"@.] ..%.Y _ [ :.&...K ! =.$.@.&.:.t.3.] +.' ( X.<.:.=.o.;.7.$. .$.| X.>.<.%.X.X.| o.@.=.X.Z { #.~ &.o.[ } %.| o.&.4.Q 7 n [ *.{  .$.w.-.o.) $.@.o.R <.<.=.] ",
"| #.{  . .+.T o.=.#.{ O.%.%.1.-...[ :.O.{ / O.O.O.&.3.#.%.0.:._ ;.4.:.W T 5.,.x ..X.] 5.r.A L ....o./ o.O. .( ;.$.6.w.: a Q -.^ %.#.1.L W W =./ ..^ #.&.%.2.",
";. .+.' $.~ R  . .o.,.0.-.3.f.,.] ( 2.;.#.` @.$...] 6.u.1.&.+.&.t.W T $.*.-.$.R ] 6.{ } a.*.O.` *.,.` _ ( X.] =.-.} 9.[ < _ ) O.| y.+.> ) W ) X.' ^ ^ [ ^ =.",
"*.-.` ] +.( T T ( P D ( ,.3.;.>...! '  .{ ' ` o. .=.t.a.<.X.$.2.w.&.;.;.X.) ( O.) -.$.$.>.' >._ =.[ U @.| ' o.1.%.=.#.=.) E *.O.*.-.&.*.&.| _ | O.@.+.{ U &.",
",.&.*.| O.&.' } #.~ L ! o.*.*.$.o.>.X...X./ ` | o.-.3.=.%.! _ *.e.,.' @.,.$.@.( X.;.&.;.&.;.*.X.[ -.' o.+...W Y :.X.&.&. .@.-.$.>.1.>.:.,.#.[ [ O.O.$.-.+.e.",
"O./ &./ ! &._ { &.' ' X.O.=.=.{ _ @.' ^ $.+.E R [ X.` Y =.=.{ Y } 7...o. .~ -.@.{ $.5.&.] +.+.2.2...` $.T } #.H o.^ -.&.o.1.=.;.;.<.-.&.>.-.o. .:.o.@.;.=.9.",
"@.^ %...) +.} ..o.` o.&...*.1...' ^ O.} :.6.^ ( X.`  .4.$.Y C I ' 1.] ! ) { <.%.#.*.2.o.O.#.0.d.r.R D X.U ` 2.#._ P [ +.*.7.-.[ o.&.@.X.%.;.=.-.-.` [ O.%.4.",
"-.{ o.,.+.] X.O.+.' X. .Q | 1.-.+._ / X.o...%.@._ ^ } 6.E ` ~ U  .&.+.~ ` :.2.:.5.>.P _ @.3.i.4. .' n ( -.| ^ 1.` E Y @.3.7.:.D { $.&.%.;.>.<.7.7.X.#.%.-.2.",
";...[ >.%.~ [ o.O.} +.@.' } *.&.2.@.e I | ~ i.%.] H C [ E 2.1.} } } -...] :.,.=.2.7.V o.( =.-. .] @.T { #. .! ] ! | X.4.:.@.=.I X.-.2.6.8.<.>.7.5.O.:.=.<.2.",
"5.%.@.*.-.X.[ :.{ [ O.:.>.&.@.+.4.4.p Z >.%.w.<.3.P P <.<.G I q.-./ ^  .} *.3.' / o.) %...O.&.*.>.@.| @.K / o.U T  .7.9.O.| %. .=.;.>.5.5.&.@.1.@.) $.O.1.7.",
"3.O.&.[ +.=./ <.[ ( / O.1.:.$.;.` 3.' A =.*.I <.$.#.%.| f.] Q o.o.} { ;.U G 7.-.e 0 Q H ,.| 1.;.*.*.' [ G Y ( Q _ ~ :.*.O.2.*.X.1.&.o.$.&.} [ ;.p.>.4.+.;.,.",
"a.1...! / <.5.]  .%...T *.,.%. .L ) ,.4.t., u ~ o.y.3.&.} ..Y _ ) ( =.@.1 D r. .B / X.l F 2.$.9.&.X.%._ c Z E m ..E [ -.;.-.%.#.Q -.8.,.$.+.;.0.2.8.e.>.,.t.",
"1.$.%.%.o.@.@.( =.` X.' } &.| U ^ / X.r.f.n G &.>.{ R X.} x k / ` ..:.R q Y w.L | ] ~ C ' 1. .;.0.-.@.I a N E B [ O.%.#.#.] / $.R +.$.} *.q.8.-.%.q.z.w.>.3.",
"$.{ o.*.} Q ( | S x :.:.H ' @.%.] %.` ' &.,.t.=.=.+.K Y k q M ` o.@...c x ` y.W %.O.R E ,.6.%.;.q.;.@.~ C Q X.E  .2.#.| ,.$.' *..._ / #.q.8.;.;.2.r.s.&.` O.",
"3.X.` ` R H ^ =.A a +.@.K &.@.+.#.-.#.+._ ^ w.t.5.7.D S w V W T $.X.E V Y } 1.{ ( *.( ) ;.-.,.2.4. .' ) W { &. .+.4.$.+.3.<.%.%...~ ) 4.u.=.X.2.2.7.r.>.&.2.",
"r.>.| _ ~ U R ] } W 3.} Y  .I I -.*.2.>.X.G %.X.9.&.) } C q F #.%.O.Y ) '  .} ) ( -.~ ~ { ~ @.5.j.$._ } { | &.;.O.2.1.2.%.o.&.] T ` +.1.9.<.&.>.:.;.<.$.*.7.",
"2.<.*.=.=._ S N  . .r.} ( E H ^ [ $.2.+./ M [ Y 0.] :.' ^ ; F t.3.X.H ' !  .@.O.@.@.K W [ P } i.h.$.] $.*.o.o.$.&.=.#.2.;.$.;.Y } X.&.7.y.5.-.,.2.:.-.[ } ,.",
"O.&.:.9.t.@.L H $.R $.] ;./ ` ` / ..>.w.L $ l X.#.' #.b ~ ~ ] &.0.Z a E W ~ ;.,...} I ~ ..! [ y.-.` ! | #.o.] ( -.=.! $.e.5.:.Y ,.*.=.0.p.4.=.5.,.;.,.@.#.2.",
"o.#.-.e.f.,. .;.*.T 5.:.=.c / | &.7.%.7.R d r i 3 { q.P N ,.` @.<.- - W { V [  .U { ' ^ { ( ^ -.<.+._ _ o.=.%.X.o.2.! o.t.-.X.^ { ,.1.*.,.0.8.3.,.{ E V G ` ",
"} :.=.@.6.-.v =.<.o.8.4.B ^ { | %.8.0.%.I c A 4 7 K K ` } 5.4.) C P P ~ =.^ ` +.P L ) _ [ $. .~ $.Y J [ #.x.( K  .-.1.>.$.[ [ ,.X.<.,.1.=.} *.9.6.X.%.V J o.",
"X.' ` $...o.Q ^ @.5.y.3.g y -.' -.%.6.2.{ ) C v  ._ u 8 C ,.4.I H F E { o.T [ [ o.X.' _ ( ! #.{ ! @.W / ` 1. .6. .$.] 8.f.| ) $.5.<.X.:.2.} o.0.d.4.1.&. .+.",
"B ] Q ` ^ ! ( +.| -.7.Q K a H 1.' 2.C #.^ 0.m R ) :.*.R S J } ' / Z U } { T } R ~ O.O.;.-.R %.Q ' Y h I R 6.a.6.^ %.( 9.c.#.} | $.u.9.6.9.#...&.%.r.5.4._ ' ",
"N P z n T  .E U Q 4.8.k ~ =.( ) T 9.b z 1.$.[ F m ^ 4.>.#.Y ^ ^ %.R I ) +.' o.E ^ #.,.:.>.' >./ X._ W { K / o.=.+.;.} { ' ^ o. .} q.3.3.u.3.%.%.$.9. .$.{ ~ ",
"_ C Y I M @.) M <. .[ 8.2.{ ;.T } 2.' T 3.&.w.W D L ' ~ X...@.{ :.%._ / :.o.@...} -.u.1.<.>.*.R ` 4.<.X.+.U d q.P s W %.` ` { O.0...S | a.9.2.t.%.I w L -.I ",
"W T o.E m } U T [ [ 2.u.>. .#.` Y x Z R 7 ) ( / J O.7.! N S Y Q { 1.$.) %.[ ..+.( o.7.<.=.8.+.E $.O.%.O.4.+.b :.D o A s.y.#.W @.t.$.I ] 3.6.q.q.=.] v M Q t ",
"T W v s I $.Z B ( P 2.>.e./ J t.( Z ! l x / J _ J ..6.X.B l 5 6 E %.;.[ ..' ..T ) ] E [ E $.:.:.0.X.5.0.O.( L G -.n K *.<.X.! &.=.6.2.&.o.>.9. .M .._ Y ^ R ",
"o.( n S I +.[ n / ] >.} 2.E 4.%.! g.^ z o.,.9 c T T O.3.' G 5 i ! | ;.+.o.O.$.x L / B %.( | ;.>.5.:.;.5.1...! l H ' ~ T #.5.,.=.%.*.;.>.X.#.>.Q P -...$.*.=.",
"&.Z M P X.+.U ! E | O.W O.} ' Q ~ Q 0 T :...Y L U T =.*.V S d k P ..{ X.-.:.O.b } ! Z ..I ` o.=.2.3 +.-.^ <.F b w ~ } { $.>.2.*.@.4.} $.) ( J %.#.=.2.9.6.;.",
"1.X.K D { [ Y  .( _ W / ' ^ T ] %.Z + l ] <.,.^ ` R *.y.F r * r / | _ ] ' ) _ A K ..Y R 4. .T j [ ^ ( 1.;./ N c V @.&.[ ` X.>.=.7.5.$.$.] ! 0 0 -.4.2.O.{ @.",
"o.,.Q R -...Q X._ | Q ~ m c v ) *.! m P m L X.U I _ X.y._ u % A  .) T E A k C S ) ~ J ] l.r.&.q g 8.*.[ g s H a _ =.-.#.) W  .@.,.$.*.=.;.;.D g J ) +.+... .",
"( @.Q | <.{ _ } ' %. .Y p p M ) ! ..$. .b n _ ! ( $.A ( 4.@.l ^ ` ! } <.X.D V L %.J n o.1.3.o.W 9.z ~ a.y t ! b ) ^ / $.X.T ( ..>.>.;.=.&.#.+.Q T P ! O.%.| ",
"' ( Q o./ A ] %.#.^ U Z H J ) } _ $.] L E _ | ) #.X.K P X.*.) #.[ ! ) @.@.Q E =.%.} R ] +.~ x w.e.D F e.>.z 0 =.Q Y S ! X.| o.X.6.t.-.3.-.{ 3.X.( P L (  .[ ",
"Y F / @.F l ` 1.1.k 9 x ..[ { Q I #.` M ^ ` ~ _ *.j E E F ` <.*.` ^ J Z R I K ,.#.! R ^ %.^ B :. .....-.) j G | X.-.Y C { 3.2...=.,.` 7.q.&.<.#.I T I H T [ ",
"A B / } T H Q %.;.l e H | ` ~ U h ' X.V T T ^ $.3.: A B / :.:.K H  .[ Y #.} B ' +.Z 6 T { _ E / 8.,./ _ =.v Z W ..9./ A @.7.;. .+./ K -.3.%.K _ ) o.| U I | ",
"E L W Y ) ' K _ | W W $.^ ( ) } ( o. .n P Q _ { ..g @.m  .o.L M G -...F @.%.J %.-.;.O ! { ! A =.7.[ X.{ =.y 9 C D  .K L 3.<.{ X.%.P P %.,.2.m -.U o.4.1.+.] ",
"o./ ^ o.| ^ W n Q @.! o.D u o.O.P | Q s W ~ Z I 0 ' *.] ;.-.a L X.' M F _ i e #.5.i.4 M 4.$.4 ) O.' { ..R ` n n I N A Q R X.Q F { O._ O.o.,.+.*.o.{ R %.{ ~ ",
"/ } %.^ &...Z ( ~ R ..A C D [ { ~ ,.m # ] ! * 2 G m L p.( ( { Q O.B d +.{ ; : ..v.E q V  .%.$.W J ^ O.H R } { C m M R | / o.! L %._ R E %.+.o.o.V P | T #.Q ",
"I ..a.%.` P T [ ( b M N { >.+.' T $.M 2 ,.%.r u [ H * ;.Q l E { e.D s } L Q +.~ w._ b [ Y _ T M ] 1.] z ] | +.} g U o. .Q :.*.o.+. .&.K ] G | @.[ *.*./ %.:.",
"<.8.<.&.} C Y > l ~ c -.&.%.,.<.Z B P L $.&.{ _ 5.#.. V 5.P N / q.%.H Q j / <.&.=.o.B _ v M l L 8.-.S Y ) T ~ | V +.*.G d ] o.] 1.$.O.N  .' %./ ' { [ ) &.O.",
"/ 1.X.(  .G Z q b ,.J 9.;._ &.>.I e S E U T X. .>.K   = o.` V u } k.#.K D 6.6.r.o.t b ` L B O.T o.W T @.^ H ' Y P o. .S h / { +.5.+.) L %.&.%.] ! H X.C =.W ",
"g V 3.{ z J Y  .*.] L { 8.I L 1.%.b b Z ! Q ` X.$.^ j $ v Q W F e  .b.[ X C 3.a.' 6 n >.~ L o.G g | $.v ] D Y I ! ~ / } _ [ ^ >.1.O.' X.#.) ! X._ _ 3.Q ..<.",
"X.x ,.O., T / ) -.( [ K } c j i.2.W K K @.o.' | K ..' ; : V F ~ &.k d.0.* c &.4.X.^ S o.G B V ! u o. ., ( C h D ] ! ! #.o.! b ~ 1.o.( ' @.' Y U L W >.2.' r.",
"=.( +.} 2 H / #...5...s B Q V  .%.^  .` { ( R D C ( @.M q ' Q B ~ d 5.[ c +.%.4.( / ( / | m A P ` J ' W ) ~ S b R W Q | O.X.P { T @.>.^ ~ R ( ~ *.P ,.=...O.",
"} ] / E J b C | =.[ K v F _ ^ ^  .[ _ U W W H D M d 3.Y U O...k L ! -.#.I #. .$.x ! [ Z f R _ n E { U / J ~ ` P L ' ) o.} ` D P Q ^ [ | ..-.2.-.%.L X.@.L | ",
"~ ..I ) O.F Z Q 9.5 y K J Y ~ <.$.B o./ J @.W J &.#.o.)  .( } ! O.;.l _ -.] +. .K b ~ R S G { S Q } Q ) H P W K ^ +. .) ) O._ U :._ R ' *.1.%.) o.! o.X.E / ",
"C ..P [ *.L ( ;.;.O r ] o.] V ^ %.N }  .~ %.Q W ) { R W 3.G S o. .:.m n &.( a ] %.B ~ [ | c E ` ^ | ) ] I H I Y ]  .X.^ ' #.+.P | ' ( ) | #.@.| ' _ #.#. .` ",
"V ^ / X.o.] :.0.Q k b G #.:.M p [ X.! o.$._ Y [ ) ~ #.^ 9.B 2 L $.| c | 1.K A B +.| o.~ ' n P @.^ ' _ ` ! I U ~ ( U { | @.} } J A ] o.~ Y ( O.*.! Q $.>.%.O.",
") S o.&.] >.<.[ U / A h H o.} V I <.} | [ { ( | P K W ( +.Q a V 5.> p 1.[ I ! : G ..=.E n C ~ { Q ! ! R ( R J R R J | #.*.] [ U Y ] ] Q E R ~ X.` U #.>.[ } ",
"$.m -.-.D } *.] Y L I ` H E 2./ F } ,.] Z 3.#._ ] O.j +.G J q @ &.Z 4.#.E O.! N T H [ +.v j L Q T Y T S ^ R C D E / O.O.o.} } ^ _ ( W ) ` G G +.%.( *.&.E ^ ",
"%.V &.,.b N  .,.Y c P =.' W ..Q K `  .[ P 5. .Q ' } h &.U I m t C d.>.P T B ` E ..~ W R R l l F I T ! B / Q V A ^ ` ) } ] ( E _ L ! W ! ( J L =.#.o.&.[ ! ] ",
"*.G { 8.T k ! $.! n l N ! ` I ! E *.N | -.o.P W ;.^ E ) R M M Q #.' H A / U { Q W p./ # ^ Q k h I Q ` C ` _ G J _ E D } ' J v ) N / R S E ) ^ { / O. .T ' $.",
"] W } <.2.1.%.W Y L ^ & _ | m I @.{ B ( x.2.#.I -.o.5.$.n i g b _ ^ Q [ ) ` ~ ;.&.( 8 r T ) N Y L L ` L ~ +.K J ( I n s B L K [ _ J Q ( ' ) $.K E ` ^ ! Y G ",
") / | { ` ;.=.G L | I z [ } J S =.] E E 1.y.^ W [ #.7...J W ~ I _ O...) K } +.=.x * a o.Y E ^ D U P _ U E ` J ( ' >.[ Y K S E / %.-.] | } n ( | R ^ E ! T D ",
"I _ &.^ z E =._ Z } k c / I o.G ! { C ) o.+.W J ) _ #.+.O.%.O.%.../ I W H { -.1., z T ( J [ ( V E T [ ^ Q E G [ ! / J &.| i S ..o.;.z m ( j H ~ Y Y G P D j ",
"U z _ 7.U p Y 1.] o.Z x ) k $.l K | K $.X.V b a Q R ` X.;.:.o.-.o.! K ~ Z Y ` ! b ) H L [ ) N _ R W [ ( ! U V U ^ { ! O.{ C P Y -.>.c x ..} { ) E U F Y J k ",
"0 N +.$.Y W / M $...` Y #.L -.N b H =.@.O.Q N V D ~ { !  .1.X.~ L ` ! U z Q ..Z m N S ' _ [ ! ^ U Q ~ Y R Y B N ~ W ( [ ' ) ^ / [ ! F V I ( P I E W R } { R ",
"g k E @.^ C A P  .~ ) ^ _ | ;.{ u P =...#.{ +.! L Y _ ( } *._ H [ { m n M ..:.L d B ~ [ H | O.I Q ) ~ Y Q ! L F L x L ] ` ^ / &.X.H E ' Q ( D E J R Q  ...( ",
"N F Y R G B P o...~ [ P S L ( ' F X.' ;.$.R @.P ` J ^ ..+.@.! C +...x S E X.{ z P ! Y Q J I R +.( } [ { [ Q R ! U ! _ ) W ` ..Y } P G ' _ ' J T S E ^ [ ` E ",
"T G V U _ Y R -.T H #.G T b ^ / _ J Q 4.*...W  .] W } { { <.[ f * E E [ X.;.{ t U +.! c d ( o.X.! } o.=.O.P K ^ R S v }  .U ] P Q  .K ~ ~ ( Y U K '  .O.} / ",
"U B p U ) ^ P %.Q O.#.G F 4 V @.O., ) 7.|  .Y ~ T ( [ ~ @.O.&.~ : Z l A W ! 0.j ` / | D j { 3.| b  .;.W ' Y L J ~ p ^ ! Q E S F U ) J G Q F | K ( / { | ..+.",
"b } E z j ( ! L +.6.,.h A Q J x } z F ..$.&.[ ^ ( ( ) ^ +.' | [ Y x h Y / D o.[ ..F L U S P ! ` I } ..Y ` T Q | ! D { / b Q T _ ` G W V D ' v v ` Q T E ] o.",
"F ` @.=.W m B X.>.@.o.V [ 5.F p T X./ { X.Q ( ^ ) ~ ~ ) @.W R  .M 5 m T ~ R ]  .o.S D / _ I D ) X...' Q ' I T X.~ ' .._ p } [  .] D ! V z _ w k G F V S W ( ",
"' Q / ;.4.@.~ ^  .R ( ..6.5.H C H <.:.%.' V H Y R R / [ +.W G } < - S R E ( } Y P G H K ~ Q Z P O.| ` ] ..W K Q _  .} ] m &.$.) E / E L c N m A D ~ R W _ ^ ",
"L H P Q O.:.#.Q Q [ o.:.5.:.` K ^ _ #.%.} ! P I T E ' ] [ ) I X.C s F } ! V { W Z ~ ( G W [ U I ~ / ) X.$.X.Q I  .| X. .^ +.<./ U { _ ! I c Q T F ) J F T F ",
"t k ( X.] U [ $.] +.#.;.3.&.&./ o.H | #.}  .Q _ _ Q { ' E } _ -.#.E W -.^ k o.Q T  .+.^ ' X.^ ` W / ( O.#.-.' I #.o.=.$.o.^ 7.../ ~ #._ } E R U { %.F D [ ] "
};
