/* XPM */
static char *_630541438405[] = {
/* columns rows colors chars-per-pixel */
"50 50 98 2 ",
"   c #834313",
".  c #844413",
"X  c #834314",
"o  c #834414",
"O  c #844414",
"+  c #874717",
"@  c #884716",
"#  c #884817",
"$  c #894817",
"%  c #894917",
"&  c #8B4A1A",
"*  c #8B4B1B",
"=  c #8C4B19",
"-  c #8E4D1A",
";  c #8C4C1C",
":  c #8D4C1C",
">  c #8F4F1E",
",  c #8F4F1F",
"<  c #904E1B",
"1  c #95531E",
"2  c #97541F",
"3  c #915020",
"4  c #935322",
"5  c #975522",
"6  c #955524",
"7  c #975726",
"8  c #985520",
"9  c #9A5621",
"0  c #9B5821",
"q  c #9C5822",
"w  c #9E5A22",
"e  c #9E5A24",
"r  c #9F5C25",
"t  c #9B5B2A",
"y  c #9C5B2B",
"u  c #9C5C2B",
"i  c #9F5E2C",
"p  c #A05C25",
"a  c #A15E27",
"s  c #A25E27",
"d  c #A35F29",
"f  c #A15F2A",
"g  c #A15F2B",
"h  c #A4612A",
"j  c #A7632D",
"k  c #A7642E",
"l  c #A16030",
"z  c #A46433",
"x  c #A76736",
"c  c #A86733",
"v  c #AB6833",
"b  c #AC6833",
"n  c #AC6933",
"m  c #AA6936",
"M  c #AC6A36",
"N  c #AE6B37",
"B  c #AB6A38",
"V  c #AC6C3B",
"C  c #AD6C3B",
"Z  c #AD6D3C",
"A  c #B06D38",
"S  c #B26F3A",
"D  c #B2703B",
"F  c #B5733E",
"G  c #B6743F",
"H  c #B67441",
"J  c #B77541",
"K  c #B77745",
"L  c #B87541",
"P  c #B97642",
"I  c #B87746",
"U  c #BB7945",
"Y  c #B87846",
"T  c #BD7A47",
"R  c #BB7A49",
"E  c #BD7C4B",
"W  c #BF7E4D",
"Q  c #C07E4B",
"!  c #C07F4B",
"~  c #C0804E",
"^  c #C1804E",
"/  c #C48250",
"(  c #C58350",
")  c #C68451",
"_  c #C58452",
"`  c #C78755",
"'  c #C88754",
"]  c #C88756",
"[  c #C98856",
"{  c #CB8957",
"}  c #CB8A58",
"|  c #CD8C5A",
" . c #CE8C5A",
".. c #CE8D5B",
"X. c #CE8D5C",
"o. c #CE8E5C",
"O. c #CF8E5C",
"+. c #D08F5C",
/* pixels */
"O O O O   6 _ ..........~ h 0 w w w e w w e w e w e w 1 @ O O O O O O O O l  ...........F w e e w e ",
"O O O   3 ^ O.............W h w w w w e e w e w e w 5 % O O O O O O O O u ' ............ .F e w e w ",
"O O O % f _ O...............W h 0 e e w w e w w w 1 & . O O O O O O . = B +. .............{ H r w e ",
"O O % 9 w j ( O...............! h w w e e w e w 5 @ . . O O O O O O = 9 a S ' .............. .S r w ",
"O O 9 e w w j ( O.O.....| O.| O.W f w w w w w 9 @ O O O O O O O O = q e w w S ...... .O. .O.} O.F e ",
"& 9 w w e w w j / O.....O.| O.....W h 0 w w 5 & O O O O O O O O = q e w w w w D ' ..X.X.O. .O.O...J ",
"w w w e w e e w j / O.| | O.........^ a w 9 O O O O O O O O O = 9 e e w e w w e S +. .X. .O. .O.....",
"w e e w e w e w 1 6 W O.O.| ..........^ e @ O O O O O O O O = q w e w e w e e w < l ' +.O. .O.} ....",
"e w e w w e w 1 @ O 3 ^ O.O.O.O.......O.R & X X O O O O O & q w e w e w e w w - O O l } O...........",
"w e w e w w 1 O O O O 3 ~ O.O.O...........R : X O O O   = w e w w e w e e w < O O O O l ' O.........",
"w e e w w 1 O O O O O o 3 ^ O.O...........O.I :   O O & q e w e e w w w w : O O O O O O l } O.......",
"e w e e f & O O O O O O o 3 W O.............O.I :   = w w w e w w w w p 9 X O O O O O O O l  .+.....",
"w e w D _ k o O O O O O O O 3 ( O....... .O. .O.K 1 9 e e w e w w w a L W 3 o O O O O O O O l ' ....",
"e w S { O.} l o O O O O O O O 3 ^ O.....O. .O. .T a w w w e w e w a L ....W 3 X O O O O O O O l ` ..",
"w C { ..} O.} l O O O O O O O o 3 ~ O... .O...U f w w e w e e w f L ......O.W 3 O O O O O O O O l  .",
"D } ....O.O.O.` l O O O O O O O o 3 ~ O.O.O.U f w w e w e w e p L ..........O.Q 3 O O O O O O O o u ",
"{ ............+.{ 6 O O O O O O o o 3 ( O.T h e w e e w e e a L } O.O. .O. .+.O.I =   O O O O O O O ",
"..............} F e - o O O O O O O O 3 S a w w e w w e w r L ..O.O. .X. .O.+.' M 9 % O O O O O O O ",
"............ .F e w 0 - O O O O O O o o % 9 w e w e w w a L ....} O. .O.O.O.` n w w q @ O O O O O O ",
"............F e e w e w - O O O O O O o o % 9 w e w e e L ......O. .O. .O.` z w e w w q % O O O O O ",
"..........F w e w e w e 9 - o O O O O O O O % 9 w w a L ........O. .O.O.' c w e w e w e 9 @ O O O O ",
"....+.' m e e w e w e w w w - O O O O O O O   & 2 a L .......... .X.O.` M w w w e w e w w 9 %   O O ",
"..O. .l O < w w w e w e e w w - O O O O O O O o - L ............+.O.' b w w w e w e w e w e 9 % O O ",
"....z O o X - w e w e w w e e 9 - O O O O O O # B +.............+.' b w e w e w e w e w e w w 9 $ O ",
"' x O O O O O < w w e w e w e w q - O   O O @ C  ...............' b w e w e w e w p p q e w e w 9 & ",
"l O O O O O O O - w w e w e w e e w = O O O C  .............+.' m w w w e w e e w q q p w e w e w 9 ",
"O O O O O o O O : m f w e w e w w e w - $ C  . .........O.O.' b w e e w w e w w j b p q e w e w w e ",
"O O O O O X   : U ..L e w e w e e w w q x X. . .........O.' b w w e w e e w w j ( ' m e w e w e w w ",
"O O O O O o & U ......L a e e w w e w e s U +. . .X.X.+.` b q w e w e w e w k / +.+.' C a w w w w e ",
"O O O O   & K O....... .L e w w e w e w p a Q +.X.X.+.' c p w w w e w e w k _ O.+. .O.} M w w w e w ",
"O O O O : K O.O...........L a w w e w e p q f Q  .O.' b w e w e e w w w j _ O. .O. . . .` A w e w e ",
"O O O X g ` O.O........... .J p e w e w q p q f Q ' b q w w e w w e w 5 B O. .O. .O. .O.O.{ M w e w ",
"O O O 9 e M { ................F e w e w e w e w h j e w w e w e w w 9 @ + Z  .O.O.........O.` M w w ",
"O @ 5 e w e m { ................L e w e w e w e w w w e e w e w e 9 @ O O + Z  .............+.' M w ",
"X 9 w w e w w M ' +............. .F e w e w e w e w e w w w w a 9 @ O O O O + Z  .......O. .O.O.' S ",
"9 w e w w e w w m { +.............O.J r w e w e w e w e w w w 1 O O O O O O X $ Z  .....} O. .O.+.{ ",
"e w e w e w w e 9 i ` .............. .F a e e w e w e w e w 1 & O O O O O O O O < L ....O.} O.O.....",
"w e w e w e w 9 @   t ' ..............} F e w e w e w e w 5 % O O O O O O O O = p e L  .O.O.} O.....",
"e w e w e w 9 &       t ` .............. .F e w e w e w 5 % O O O O O O O O - w w w f L  .O.O.O.....",
"w e w e w 9 O O O O     t { .............. .J r w e w 9 O O O O O O O O O - w e e w e e J O.} O.....",
"w e w w 9 $ O O O O O O   i ` ....O.....} O.} D f e 9 @ O O O O O O O   - 9 w w w e w e e L  .O.....",
"e w e 9 & O O O O O O O O   i ` O.O.O...O.O.O.} S 9 O O O O O O O O O i J a w w e w e w e a L  .....",
"w e 9 % X X O O O O O O O O   t ' O.....} O.} O.T & o O O O O O O O y ' +.I a e w e w e e w p L ....",
"w 9 @ O O o O O O O O O O o X   t ' O.O.O.O.O.W : o O O O O o X O y ' +. .+.U f e w e w w w w a L  .",
"5 % O O O O O O O O O O O O O O   i _ O.O.O.W : O O O O O O O X u ` O.O.O. .O.K f e e w e w e w f F ",
"O O O O O O O O O O O o O O O O O   u { ..^ : o O O O O O O O g { O.O.O. .O.} O.L e w e w e w e w r ",
"O O O O o O X X h I < o O O O O o o   i K : o O O O O O O O y ` O. .X. .O. .X. .g < q w e w e w e w ",
"O O O O o o X y ` O.W 3   O O O o o     & O O O O O O O O u ` O.O.O. .O. .X.} z O O - w w e w e w e ",
"O O O O O O u { O.....W : o O O O O O O O O O O O O O X u { ..O. .O.} O.O. .l X O O O : w e e w e w ",
"O O O O . 6 ' ..O...O.O.R : o o O O O O O O O O O O X t ' ......O.} O.O.} z o X O O O O - e w e w e "
};
