/* XPM */
static char *_630638188935[] = {
/* columns rows colors chars-per-pixel */
"80 80 204 2 ",
"   c black",
".  c #010101",
"X  c #000303",
"o  c #030202",
"O  c #040403",
"+  c #000506",
"@  c gray2",
"#  c #010808",
"$  c #020C0D",
"%  c #040E0E",
"&  c #0C0C0C",
"*  c #0C0D0D",
"=  c #0E0E0E",
"-  c #130F0B",
";  c #040F10",
":  c #041112",
">  c #051616",
",  c #07191A",
"<  c #011C1D",
"1  c #071C1C",
"2  c #111111",
"3  c gray8",
"4  c #1B1510",
"5  c #171819",
"6  c gray10",
"7  c #1D1D1D",
"8  c #231C15",
"9  c #2A2119",
"0  c #34291F",
"q  c #1F1F20",
"w  c #032021",
"e  c #022526",
"r  c #0B292A",
"t  c #0C2C2D",
"y  c #0C2E2F",
"u  c #0D3032",
"i  c #0F3537",
"p  c #0F3839",
"a  c #113C3D",
"s  c #113E3F",
"d  c gray13",
"f  c #232323",
"g  c #282828",
"h  c gray17",
"j  c #2D2D2D",
"k  c #392E22",
"l  c #3C3024",
"z  c #3D3124",
"x  c #3E3225",
"c  c #2E3133",
"v  c #333434",
"b  c #353638",
"n  c gray23",
"m  c #403426",
"M  c #4D3E2E",
"N  c #5F4D39",
"B  c #63503C",
"V  c #043E40",
"C  c #113F41",
"Z  c #124143",
"A  c #124345",
"S  c #14494B",
"D  c #154C4E",
"F  c #154F51",
"G  c #065558",
"H  c #165052",
"J  c #165255",
"K  c #175456",
"L  c #175557",
"P  c #185557",
"I  c #18575A",
"U  c #18595B",
"Y  c #19595C",
"T  c #195C5E",
"R  c #065D60",
"E  c #1A5E61",
"W  c #066366",
"Q  c #066468",
"!  c #076B6F",
"~  c #1B6365",
"^  c #1C6669",
"/  c #1D6A6C",
"(  c #1E6D6F",
")  c #08777B",
"_  c #08787D",
"`  c #207578",
"'  c #21787B",
"]  c gray25",
"[  c #464748",
"{  c #4C4C4C",
"}  c #4E5255",
"|  c #515151",
" . c #505357",
".. c #565656",
"X. c #53575A",
"o. c #5A5A5A",
"O. c gray37",
"+. c #6C5741",
"@. c #735D45",
"#. c #7C644B",
"$. c #626262",
"%. c #656565",
"&. c #616669",
"*. c #686868",
"=. c #686C71",
"-. c gray44",
";. c #747474",
":. c gray48",
">. c gray50",
",. c #82694E",
"<. c #866C51",
"1. c #8B7054",
"2. c #917557",
"3. c #A28262",
"4. c #AA8967",
"5. c #C7A078",
"6. c #C9A27A",
"7. c #237E82",
"8. c #088084",
"9. c #088186",
"0. c #098287",
"q. c #09868C",
"w. c #09878D",
"e. c #248385",
"r. c #258588",
"t. c #25888C",
"y. c #278D90",
"u. c #289195",
"i. c #2A9598",
"p. c #2A979A",
"a. c #2A9A9E",
"s. c #2B9B9F",
"d. c #2C9DA1",
"f. c #2C9FA3",
"g. c #2DA0A4",
"h. c #2DA1A5",
"j. c #2DA3A7",
"k. c #2EA5A9",
"l. c #2FA8AC",
"z. c #2FABAF",
"x. c #30ACB0",
"c. c #30ACB1",
"v. c #31AEB2",
"b. c #32B4B9",
"n. c #7C8287",
"m. c #838383",
"M. c #848484",
"N. c gray53",
"B. c gray55",
"V. c #8E8E8E",
"C. c gray58",
"Z. c gray60",
"A. c #9A9A9A",
"S. c #959BA1",
"D. c #979EA4",
"F. c #9EA5AC",
"G. c #A4A4A4",
"H. c #A7A7A7",
"J. c #A0A8AE",
"K. c #ACACAC",
"L. c gray68",
"P. c #A7AEB5",
"I. c #B1B1B1",
"U. c #B6B6B6",
"Y. c gray72",
"T. c #BBBBBB",
"R. c #BCBCBC",
"E. c #D4AB80",
"W. c #D9AF83",
"Q. c #E0B487",
"!. c #E4B789",
"~. c #F1C292",
"^. c #F7C795",
"/. c #FFCD9A",
"(. c #FFD7A1",
"). c #FFE1A9",
"_. c #FFE5AC",
"`. c #FFEDB1",
"'. c #C0C0C0",
"]. c gray76",
"[. c gray78",
"{. c #CACACA",
"}. c gray81",
"|. c #C0C8D0",
" X c #C0C9D0",
".X c #C3CCD3",
"XX c #CAD3DB",
"oX c #D2D2D2",
"OX c gray84",
"+X c #D8D8D8",
"@X c gray85",
"#X c #DADADA",
"$X c gray86",
"%X c #DDDDDD",
"&X c #DFDFDF",
"*X c gray88",
"=X c #E2E2E2",
"-X c #E4E4E4",
";X c gray90",
":X c gray91",
">X c #EAEAEA",
",X c #ECECEC",
"<X c gray95",
"1X c None",
/* pixels */
"1X1X1X1X1X1X1X1X1X1X1X1X1X1X1X1X1X1X1X1X1X1X1X1X1X1X1X1X1X1X1X1X1X1X1X1X1X1X1X      1X1X1X1X1X1X1X1X1X1X1X1X1X1X1X1X1X1X1X1X1X1X1X1X1X1X1X1X1X1X1X1X1X1X1X1X1X1X",
"1X1X1X1X1X1X1X1X1X1X1X1X1X1X1X1X1X1X1X1X1X1X1X1X1X1X1X1X1X1X1X1X1X1X1X1X1X1X1X      1X1X1X1X1X1X1X1X1X1X1X1X1X1X1X1X1X1X1X1X1X1X1X1X1X1X1X1X1X1X1X1X1X1X1X1X1X1X",
"1X1X1X1X1X1X1X1X1X1X1X1X1X1X1X1X1X1X1X1X1X1X1X1X1X1X1X1X1X1X1X1X1X1X1X1X1X1X          1X1X1X1X1X1X1X1X1X1X1X1X1X1X1X1X1X1X1X1X1X1X1X1X1X1X1X1X1X1X1X1X1X1X1X1X1X",
"1X1X1X1X1X1X1X1X1X1X1X1X1X1X1X1X1X1X1X1X1X1X1X1X1X1X1X1X1X1X1X1X1X1X1X1X1X              1X1X1X1X1X1X1X1X1X1X1X1X1X1X1X1X1X1X1X1X1X1X1X1X1X1X1X1X1X1X1X1X1X1X1X1X",
"1X1X1X1X1X1X1X1X1X1X1X1X1X1X1X1X1X1X1X1X1X1X1X1X1X1X1X1X1X1X1X1X1X1X1X1X      e V e       1X1X1X1X1X1X1X1X1X1X1X1X1X1X1X1X1X1X1X1X1X1X1X1X1X1X1X1X1X1X1X1X1X1X1X",
"1X1X1X1X1X1X1X1X1X1X1X1X1X1X1X1X1X1X1X1X1X1X1X1X1X1X1X1X1X1X1X1X1X1X1X      e R _ R e       1X1X1X1X1X1X1X1X1X1X1X1X1X1X1X1X1X1X1X1X1X1X1X1X1X1X1X1X1X1X1X1X1X1X",
"1X1X1X1X1X1X1X1X1X1X1X1X1X1X1X1X1X1X1X1X1X1X1X1X1X1X1X1X1X1X1X1X1X1X      < Q 8.w.8.Q <       1X1X1X1X1X1X1X1X1X1X1X1X1X1X1X1X1X1X1X1X1X1X1X1X1X1X1X1X1X1X1X1X1X",
"1X1X1X1X1X1X1X1X1X1X1X1X1X1X1X1X1X1X1X1X1X1X1X1X1X1X1X1X1X1X1X1X1X      < Q 8.0.8.0.8.Q <       1X1X1X1X1X1X1X1X1X1X1X1X1X1X1X1X1X1X1X1X1X1X1X1X1X1X1X1X1X1X1X1X",
"1X1X1X1X1X1X1X1X1X1X1X1X1X1X1X1X1X1X1X1X1X1X1X1X1X1X1X1X1X1X1X1X      e Q 0.0.0.9.0.0.9.Q e       1X1X1X1X1X1X1X1X1X1X1X1X1X1X1X1X1X1X1X1X1X1X1X1X1X1X1X1X1X1X1X",
"1X1X1X1X1X1X1X1X1X1X1X1X1X1X1X1X1X1X1X1X1X1X1X1X1X1X1X1X1X1X1X      e R 0.0.0.9.0.9.0.0.0.R e       1X1X1X1X1X1X1X1X1X1X1X1X1X1X1X1X1X1X1X1X1X1X1X1X1X1X1X1X1X1X",
"1X1X1X1X1X1X1X1X1X1X1X1X1X1X1X1X1X1X1X1X1X1X1X1X1X1X1X1X1X1X      % G 8.q.8.8.0.0.0.9.9.q.8.G $       1X1X1X1X1X1X1X1X1X1X1X1X1X1X1X1X1X1X1X1X1X1X1X1X1X1X1X1X1X",
"1X1X1X1X1X1X1X1X1X1X1X1X1X1X1X1X1X1X1X1X1X1X1X1X1X1X1X1X1X1X    + V _ w.0.0.0.0.0.0.0.0.8.q._ V +     1X1X1X1X1X1X1X1X1X1X1X1X1X1X1X1X1X1X1X1X1X1X1X1X1X1X1X1X1X",
"1X1X1X1X1X1X1X1X1X1X1X1X1X1X1X1X1X1X1X1X1X1X1X1X1X1X1X1X1X      w _ 0.0.0.0.0.0.0.0.0.0.0.0.0._ w +     1X1X1X1X1X1X1X1X1X1X1X1X1X1X1X1X1X1X1X1X1X1X1X1X1X1X1X1X",
"1X1X1X1X1X1X1X1X1X1X1X1X1X1X1X1X1X1X1X1X1X1X1X1X1X1X1X1X      < ! q.q.q.q.q.q.q.q.q.q.q.q.q.q.q.! <       1X1X1X1X1X1X1X1X1X1X1X1X1X1X1X1X1X1X1X1X1X1X1X1X1X1X1X",
"1X1X1X1X1X1X1X1X1X1X1X1X1X1X1X1X1X1X1X1X1X1X1X1X1X1X1X1X      # < w w w w w w w w w w w w w w w < #       1X1X1X1X1X1X1X1X1X1X1X1X1X1X1X1X1X1X1X1X1X1X1X1X1X1X1X",
"1X1X1X1X1X1X1X1X1X1X1X1X1X1X1X1X1X1X1X1X1X1X1X1X1X1X1X                                                      1X1X1X1X1X1X1X1X1X1X1X1X1X1X1X1X1X1X1X1X1X1X1X1X1X1X",
"1X1X1X1X1X1X1X1X1X1X1X1X1X1X1X1X1X1X1X1X1X1X1X1X1X1X1X    # % : : : : : : : : : : : : : : : : : : : ; #     1X1X1X1X1X1X1X1X1X1X1X1X1X1X1X1X1X1X1X1X1X1X1X1X1X1X",
"1X1X1X1X1X1X1X1X1X1X1X1X1X1X1X1X1X1X1X1X1X1X1X1X1X1X      y F U I I I I I I I I I I I I I I I I I U F y       1X1X1X1X1X1X1X1X1X1X1X1X1X1X1X1X1X1X1X1X1X1X1X1X1X",
"1X1X1X1X1X1X1X1X1X1X1X1X1X1X1X1X1X1X1X1X1X1X1X1X1X1X      / f.s.s.s.s.s.s.s.d.s.s.s.s.s.s.s.d.s.s.s.f./       1X1X1X1X1X1X1X1X1X1X1X1X1X1X1X1X1X1X1X1X1X1X1X1X1X",
"1X1X1X1X1X1X1X1X1X1X1X1X1X1X1X1X1X1X1X1X1X1X1X1X1X      1 t.b.v.v.v.v.v.v.v.v.v.v.v.v.v.v.v.v.v.v.v.b.r.1       1X1X1X1X1X1X1X1X1X1X1X1X1X1X1X1X1X1X1X1X1X1X1X1X",
"1X1X1X1X1X1X1X1X1X1X1X1X1X1X1X1X1X1X1X1X1X1X1X1X1X      A I P H F H H H H H H H F H H H F J F H F F I I A       1X1X1X1X1X1X1X1X1X1X1X1X1X1X1X1X1X1X1X1X1X1X1X1X",
"1X1X1X1X1X1X1X1X1X1X1X1X1X1X1X1X1X1X1X1X1X1X1X1X1X    + P ,                                           , P +     1X1X1X1X1X1X1X1X1X1X1X1X1X1X1X1X1X1X1X1X1X1X1X1X",
"1X1X1X1X1X1X1X1X1X1X1X1X1X1X1X1X1X1X1X1X1X1X1X1X      : S >     @ @ @ @ @ @ @ @ @ @ @ @ @ @ + + @     > S :       1X1X1X1X1X1X1X1X1X1X1X1X1X1X1X1X1X1X1X1X1X1X1X",
"1X1X1X1X1X1X1X1X1X1X1X1X1X1X1X1X1X1X1X1X1X1X1X1X    % C D :   6 %.$.$.$.$.$.$.$.$.$.$.$.$.$.$.&.%.6   : D C %     1X1X1X1X1X1X1X1X1X1X1X1X1X1X1X1X1X1X1X1X1X1X1X",
"1X1X1X1X1X1X1X1X1X1X1X1X1X1X1X1X1X1X1X1X1X1X1X1X    1 ( H :   v {.'.'.].].'.].].].].].].].].].].{.v   : H ( 1     1X1X1X1X1X1X1X1X1X1X1X1X1X1X1X1X1X1X1X1X1X1X1X",
"1X1X1X1X1X1X1X1X1X1X1X1X1X1X1X1X1X1X1X1X1X1X1X      y u.J ;   ] <X,X>X>X,X>X>X,X,X,X>X>X>X>X>X>X<X]   ; J u.u       1X1X1X1X1X1X1X1X1X1X1X1X1X1X1X1X1X1X1X1X1X1X",
"1X1X1X1X1X1X1X1X1X1X1X1X1X1X1X1X1X1X1X1X1X1X1X      Z j.J ;   v '.Y.Y.Y.Y.Y.Y.Y.Y.Y.Y.Y.Y.Y.Y.Y.'.v   ; J j.Z       1X1X1X1X1X1X1X1X1X1X1X1X1X1X1X1X1X1X1X1X1X1X",
"1X1X1X1X1X1X1X1X1X1X1X1X1X1X1X1X1X1X1X1X1X1X1X    ; H f.J ;   2 ] ] ] ] ] ] ] ] ] ] ] M ] ] ] ] ] 2   ; J f.H %     1X1X1X1X1X1X1X1X1X1X1X1X1X1X1X1X1X1X1X1X1X1X",
"1X1X1X1X1X1X1X1X1X1X1X1X1X1X1X1X1X1X1X1X1X1X1X    1 E f.P %     o o o o o o o o o o o o o o o o o     ; P f.E ,     1X1X1X1X1X1X1X1X1X1X1X1X1X1X1X1X1X1X1X1X1X1X",
"1X1X1X1X1X1X1X1X1X1X1X1X1X1X1X1X1X1X1X1X1X1X1X    w / f.e.u # + + + + + + + + + + + + + + + + + + + # u e.f./ w     1X1X1X1X1X1X1X1X1X1X1X1X1X1X1X1X1X1X1X1X1X1X",
"1X1X1X1X1X1X1X1X1X1X1X1X1X1X1X1X1X1X1X1X1X1X1X    r ` j.d.` ^ ~ ~ ~ ~ ~ ~ ~ ~ ~ ~ ~ ~ ~ ~ ~ ~ ~ ~ ~ ^ ' s.j.` r     1X1X1X1X1X1X1X1X1X1X1X1X1X1X1X1X1X1X1X1X1X1X",
"1X1X1X1X1X1X1X1X1X1X1X1X1X1X1X1X1X1X1X1X1X1X1X    u 7.j.f.d.p.p.i.i.i.i.i.i.i.p.i.i.i.i.i.i.i.i.i.p.p.s.j.j.7.u     1X1X1X1X1X1X1X1X1X1X1X1X1X1X1X1X1X1X1X1X1X1X",
"1X1X1X1X1X1X1X1X1X1X1X1X1X1X1X1X1X1X1X1X1X1X1X    a t.j.s.~ A a a a Z a s s s s a C a a s s s s s a Z ~ s.j.t.a     1X1X1X1X1X1X1X1X1X1X1X1X1X1X1X1X1X1X1X1X1X1X",
"1X1X1X1X1X1X1X1X1X1X1X1X1X1X1X1X1X1X1X1X1X1X1X    Z s.s.^ ,       +   + X X X X +   + X X X X X X X   , ^ f.s.Z     1X1X1X1X1X1X1X1X1X1X1X1X1X1X1X1X1X1X1X1X1X1X",
"1X1X1X1X1X1X1X1X1X1X1X1X1X1X1X1X1X1X1X1X1X1X1X    D z.s.P ;                                           : P s.l.D     1X1X1X1X1X1X1X1X1X1X1X1X1X1X1X1X1X1X1X1X1X1X",
"1X1X1X1X1X1X1X1X1X1X1X1X1X1X1X1X1X1X1X1X1X1X      F v.s.J ;   q :.;.;.;.;.;.;.;.;.;.;.;.;.;.;.;.:.d   ; J s.v.F       1X1X1X1X1X1X1X1X1X1X1X1X1X1X1X1X1X1X1X1X1X",
"1X1X1X1X1X1X1X1X1X1X1X1X1X1X1X1X1X1X1X1X1X1X      H v.s.J ;   ] <X>X>X>X>X>X>X>X,X>X>X,X>X>X,X,X<X]   ; J s.v.H       1X1X1X1X1X1X1X1X1X1X1X1X1X1X1X1X1X1X1X1X1X",
"1X1X1X1X1X1X1X1X1X1X1X1X1X1X1X1X1X1X1X1X1X1X      H v.s.J ;   n *X#X#X#X#X#X+X#X+X+X+X+X+X#X+X#X*Xn   ; J s.v.H       1X1X1X1X1X1X1X1X1X1X1X1X1X1X1X1X1X1X1X1X1X",
"1X1X1X1X1X1X1X1X1X1X1X1X1X1X1X1X1X1X1X1X1X1X      H v.s.J ;   v ].R.R.Y.R.R.Y.R.R.R.Y.R.R.R.R.R.'.v   ; J s.v.H       1X1X1X1X1X1X1X1X1X1X1X1X1X1X1X1X1X1X1X1X1X",
"1X1X1X1X1X1X1X1X1X1X1X1X1X1X1X1X1X1X1X1X1X1X      H v.s.H ;   * j h h h h h h h h h h h h h h h j *   ; H s.v.H       1X1X1X1X1X1X1X1X1X1X1X1X1X1X1X1X1X1X1X1X1X",
"1X1X1X1X1X1X1X1X1X1X1X1X1X1X1X1X1X1X1X1X1X1X      H v.s.E $                                           % E d.v.H       1X1X1X1X1X1X1X1X1X1X1X1X1X1X1X1X1X1X1X1X1X",
"1X1X1X1X1X1X1X1X1X1X1X1X1X1X1X1X1X1X1X1X1X1X      H v.d.7.i > , , , , , , , , , , , , , , , , , , , > i 7.d.x.H       1X1X1X1X1X1X1X1X1X1X1X1X1X1X1X1X1X1X1X1X1X",
"1X1X1X1X1X1X1X1X1X1X1X1X1X1X1X1X1X1X1X1X1X1X      F z.f.j.y.7.` ` ` ` ` ` ` ` ` ` ` ` ` ` ` ` ` ` ` 7.t.j.d.z.F       1X1X1X1X1X1X1X1X1X1X1X1X1X1X1X1X1X1X1X1X1X",
"1X1X1X1X1X1X1X1X1X1X1X1X1X1X1X1X1X1X1X1X1X1X      F x.j.k.j.f.s.f.s.f.f.f.s.f.s.f.s.f.f.f.s.f.f.f.f.d.j.k.j.x.H       1X1X1X1X1X1X1X1X1X1X1X1X1X1X1X1X1X1X1X1X1X",
"1X1X1X1X1X1X1X1X1X1X1X1X1X1X1X1X1X1X1X1X1X1X      H x.y.J ( u.k.g.g.j.g.g.j.g.j.g.g.g.g.g.g.g.g.j.j.u.( J y.x.H       1X1X1X1X1X1X1X1X1X1X1X1X1X1X1X1X1X1X1X1X1X",
"1X1X1X1X1X1X1X1X1X    1X1X1X1X1X1X1X1X1X1X1X      J d.T : 1 / k.g.g.g.g.g.f.g.g.g.g.g.g.g.g.g.g.f.l./ , : T d.J       1X1X1X1X1X1X1X1X1X1X1X    1X1X1X1X1X1X1X1X",
"1X1X1X1X1X1X1X1X        1X1X1X1X1X1X1X1X1X1X      K s.D # $ E z.g.g.g.g.g.f.f.g.g.g.f.f.g.g.g.g.g.l.~ % $ D s.K       1X1X1X1X1X1X1X1X1X1X        1X1X1X1X1X1X1X",
"1X1X1X1X1X1X1X            1X1X1X1X1X1X1X1X1X      H k.r.a U r.j.g.g.g.g.f.g.g.g.g.g.g.g.j.g.g.g.g.k.y.E A t.k.H       1X1X1X1X1X1X1X1X1X            1X1X1X1X1X1X",
"1X1X1X1X1X        d 3       1X1X1X1X1X1X1X1X      H l.f.s.s.d.j.g.g.g.g.f.f.j.g.f.f.g.g.f.g.g.g.g.g.f.s.s.s.z.H       1X1X1X1X1X1X1X1X      3 d         1X1X1X1X",
"1X1X1X1X1X      o.H.*.@     1X1X1X1X1X1X1X1X      F v.k.l.x.k.d.g.g.g.f.j.j.r.A w A t.g.j.f.g.f.g.f.k.l.z.k.l.H       1X1X1X1X1X1X1X1X    @ *.H...      1X1X1X1X",
"1X1X1X1X    @ ] I.*XY.|       1X1X1X1X1X1X1X      F k.t.H ~ t.j.g.g.j.f.f.t.a +   + s t.f.g.f.f.f.j.y.~ H t.z.H       1X1X1X1X1X1X1X      | U.=XI.] @     1X1X1X",
"1X1X1X      g H.%X%X*XL.j       1X1X1X1X1X1X      J j.T   ; / l.f.f.g.g.t.S           S t.g.j.f.f.l.^ :   T d.K       1X1X1X1X1X1X      j L.*X&X$XH.h       1X1X",
"1X1X1X    2 *.*X#X#X%XOXH.3       1X1X1X1X1X      P p.a +   J x.g.g.g.y.H     * 3 *     F y.j.g.g.l.K     a p.P       1X1X1X1X1X      3 G.+X$X#X$X*X*.2     1X1X",
"1X1X      | '.%X%X#X#X%XoX*.3     1X1X1X1X1X      P p.a X   P z.g.g.s.D       -.H.-.      D s.f.g.v.P     Z p.P       1X1X1X1X1X    3 -.oX%X$X#X%X%X'.|       1X",
"1X1X    3 M.*X#X#X#X#X%X#XY.g     1X1X1X1X        P p.C X   P z.g.l.~ 1     $.R.%XR.$.o   1 ~ z.g.z.P   + s p.P         1X1X1X1X    g U.#X$X$X$X$X$X&Xm.3     1X",
"1X1X    [ L.;X#X#X#X#X#X%X%X]       1X1X          P p.a X   P v.f.u.y   o v Y.#X=X#XY.v o   y u.f.x.P   X a p.P           1X1X      ] +X$X$X$X$X#X#X;XL.[     1X",
"1X      :.}.%X#X%X%X%X#X#X*X*.3             @     P p.a     P v.f.U :   q B.#X=X%X*X$XB.7   : U f.v.P     Z p.P     @             3 *.=X$X$X$X&X$X$X%X}.:.      ",
"      @ G.;X%X#XOXoXOX#X%X%XZ.v         @ 2 7     I p.a +   P x.i.,     { #X#X+XoX+X%X#X{     , i.v.P   X a p.P     7 2 @         v A.&X$X$X+XoXOX#X$X;XH.@     ",
"    o g I.;X%XOXH.o.m.}.#X%X{...        [ n.} @   P p.Z     I l.` #   v C.*X*XN.o.N.*X&XC.v   # ` k.U   X s p.P   @ } n.[         ..[.$X$X}.m.o.H.OX$X;XI.g o   ",
"    o n Y.*X%XoX[ & n Z.%X%X;X*.    2 &.J.F.X.@   P p.a +   U s.D     ..}.#X].n   n '.#XoX..    D s.Y   X s p.P   @ X.F.J.&.2     -.=X$X$XA.n & [ oX&X=XU.n     ",
"    @ { R.*X*X}.7   q >.*X%X>X>.@   h S..XJ. .@   P p.a X   T y.w   @ :.:X+XL.f   f L.+X>X:.@   < y.T     Z p.P   @  .J..XS.h   # >.>X$X;Xn.q   7 }.*X*XR.{ o   ",
"    @ O.'.;X*XoXq   d >.*X#X;Xm.* + b D. XF. .@   P p.Z X   E r.    j Z.:X+XK.g   g L.+X;XZ.j     r.E   + a p.K   @  .F. XD.b   * M.:X$X=X2.d   7 }.*X-X'.O.@   ",
"    @ $.'.*X*X}.q   d >.*X#X>XM.=   c S. XF. .@   P p.a +   Y '     | I.=X+XL.g   g L.OX*XI.|     ' Y     C p.P   @  .F. XS.c   = M.:X#X=Xn.d   q }.*X*X[.$.@   ",
"    @ $.'.*X*X}.q   d >.*X#X>XM.-   c S. XF. .@   P p.s     H (     $.R.=X+XL.g   g L.#X;XR.$.    ( H   + a p.I   @  .F. XS.v   = n.:X#X%Xn.d   q }.*X*X'.$.@   ",
"    @ $.].*X*X}.q   d >.*X$X>XM.*   v S.|.F. .@   P p.C X   S ~     ;.[.*X+XL.g   g L.+X*X[.;.    ~ S     Z p.K   @  .F. XS.c   = M.>X#X*X>.d   q }.*X*X'.%.@   ",
"    @ %.{.:X:XOXd   f M.>X*X,XN.=   c S.|.F. .@   P p.a X   A U     n.oX&X+XL.g   g L.+X&XoX>.    Y A   + a p.P   @  .F.|.S.v   = N.,X=X:XM.f   d OX>X;X[.%.@   ",
"    @ ..K.[.[.U.q   7 -.'.'.{.;.&   c S.|.F. .@   P p.C     Z K     N.OX&X+XK.g   g L.+X&XOXN.    K C     Z p.P   @  .F.|.S.c   * ;.{.'.].-.7   7 U.[.[.L...@   ",
"      g | O.O...*   - v O.o.O.b @ + c S.|.F. .@   P p.a +   C K     N.OX&X+XK.g   g L.+X&X+XN.    K C   X a p.P   @  .F.|.S.c   @ b O.o.O.v *   * ..O.O.| g     ",
"        o @ @ @         @ @ @     o c S.|.F.X.@   P p.a X   Z J     N.+X&X#XL.g   g L.+X*XOXN.    J Z   X s p.P   @ X.F. XS.c o     @ @ @ @       @ @ @ O o     ",
"                                  o v F.XXP.X.@   Y f.Z X   A U     B.*X>X*XU.h   j Y.=X>X*XB.    U A   X Z f.Y   @ X.P.XXF.v o                                 ",
"      l @.<.<.#.-   @ N <.,.1.M @   q &.n.=.b     p ~ r X   r p     o.B.C.B.-.6   6 -.V.C.B.o.    p r   X r ~ p     b =.n.&.q   @ M 1.,.<.M -   - #.<.<.@.k o   ",
"    @ #.^._._.(.9   9 3._.).`.4.-   @ 6 q 5 *     $ > #     # $     3 q d d 6 @   @ 6 q 8 d 3 +   $ #     # > $     * 5 q 6 @   - 4.`.)._.3.9   9 (._._.^.#.@   ",
"    @ +.E.^.^.!.8   8 1.^.~./.2.-                                                                                               - 2./.~.^.1.8   8 !.^.^.6.@.@   ",
"      4 0 x x k @   @ 8 x x m 8                                     4 9 9 9 8 @   @ 8 9 9 9 4                                   o 8 m x x 8 @   @ k x x k 4     ",
"        o O @ @       o O O O o       1X1X1X1X1X1X1X1X1X1X1X1X      #.6.E.6.3.8   8 3.6.E.6.#.      1X1X1X1X1X1X1X1X1X1X1X1X        @ O @ o       O O O o       ",
"                                    1X1X1X1X1X1X1X1X1X1X1X1X1X      4.(._.(.W.0   0 W.(.).(.4.      1X1X1X1X1X1X1X1X1X1X1X1X1X                                  ",
"1X1X1X1X1X1X1X          1X1X1X1X1X1X1X1X1X1X1X1X1X1X1X1X1X1X1X      <.6.Q.W.4.9   9 4.W.Q.6.1.      1X1X1X1X1X1X1X1X1X1X1X1X1X1X1X1X1X1X1X          1X1X1X1X1X1X",
"1X1X1X1X1X1X1X1X      1X1X1X1X1X1X1X1X1X1X1X1X1X1X1X1X1X1X1X1X      x N B N M -   - M N B N m       1X1X1X1X1X1X1X1X1X1X1X1X1X1X1X1X1X1X1X1X      1X1X1X1X1X1X1X",
"1X1X1X1X1X1X1X1X1X1X1X1X1X1X1X1X1X1X1X1X1X1X1X1X1X1X1X1X1X1X1X      o O O O o         @ @ O O       1X1X1X1X1X1X1X1X1X1X1X1X1X1X1X1X1X1X1X1X1X1X1X1X1X1X1X1X1X1X",
"1X1X1X1X1X1X1X1X1X1X1X1X1X1X1X1X1X1X1X1X1X1X1X1X1X1X1X1X1X1X1X1X                                  1X1X1X1X1X1X1X1X1X1X1X1X1X1X1X1X1X1X1X1X1X1X1X1X1X1X1X1X1X1X1X"
};
